<svg width="186" height="185" viewBox="0 0 186 185" fill="none" xmlns="http://www.w3.org/2000/svg">
<path d="M17.9484 82.6731C-2.24563 82.1751 -7.15764 60.2641 13.0364 61.3951C33.2304 62.5271 38.1424 83.1721 17.9484 82.6731Z" fill="#FF8285"/>
<path d="M20.5711 47.961C15.0791 55.32 22.7471 62.936 28.7921 55.285C34.8371 47.633 26.9031 39.476 20.5711 47.961Z" fill="#FF8285"/>
<path d="M90.6025 179.211C71.5475 179.211 18.0405 167.049 5.22855 122.081C-7.58445 77.1141 33.4755 83.5841 43.9655 88.7261C54.4555 93.8681 23.7575 34.0181 67.6335 10.5861C117.445 -16.0149 177.61 14.0331 184.421 71.0171C190.078 118.334 166.739 179.211 90.6025 179.211Z" fill="#FF8285"/>
<path d="M129.099 140.241C105.431 140.241 81.7629 140.241 58.0949 140.241C57.8339 140.241 57.5769 140.383 57.4469 140.612C47.8469 157.639 84.7199 161.938 93.5969 161.948C102.468 161.958 139.339 157.626 129.747 140.612C129.273 139.771 127.977 140.526 128.452 141.369C137.783 157.919 95.9609 160.873 88.1139 160.227C79.4379 159.513 69.8439 157.494 62.3899 152.761C58.3889 150.22 57.5369 147.907 58.0409 143.06C58.1299 142.207 59.0299 141.329 58.2139 141.74C58.3899 141.651 58.7769 141.776 58.9669 141.74C61.3019 141.295 64.1569 141.74 66.5269 141.74C70.8569 141.74 75.1869 141.74 79.5179 141.74C89.8109 141.74 100.103 141.74 110.396 141.74C116.631 141.74 122.865 141.74 129.1 141.74C130.064 141.741 130.065 140.241 129.099 140.241Z" fill="#702624"/>
<path d="M115.439 142.552L93.5961 143.821L71.7521 142.552C49.9091 144.562 39.7871 169.205 39.7871 169.205C56.9211 184.435 93.5951 184.118 93.5951 184.118C93.5951 184.118 130.269 184.435 147.403 169.205C147.403 169.205 137.282 144.562 115.439 142.552Z" fill="#FFE8D3"/>
<path d="M106.313 162.786C119.137 160.547 130.383 155.299 132.389 149.824C132.425 149.726 132.448 149.631 132.481 149.534C127.904 145.947 122.241 143.126 115.439 142.5L93.5963 143.769L71.7523 142.5C64.9853 143.123 59.3453 145.92 54.7803 149.481C54.8183 149.596 54.8463 149.708 54.8883 149.823C56.8903 155.286 68.0873 160.523 80.8753 162.77C81.6553 169.102 87.0563 174.023 93.5953 174.023C100.129 174.024 105.526 169.111 106.313 162.786Z" fill="#FFE8D3"/>
<path d="M148.127 168.954C145.213 161.958 140.358 155.332 134.662 150.373C130.124 146.422 124.754 143.448 118.823 142.249C114.891 141.454 110.956 142.011 106.98 142.242C99.2051 142.694 91.9171 142.922 84.1591 142.471C80.1021 142.235 75.8771 141.625 71.8111 141.754C66.1251 141.934 60.3131 144.582 55.7471 147.827C48.5161 152.965 42.4811 160.75 39.0641 168.955C38.6931 169.845 40.1441 170.234 40.5101 169.354C43.2151 162.858 48.1221 156.193 53.5891 151.435C58.5061 147.155 65.1131 143.509 71.7811 143.254C75.1971 143.123 78.7671 143.66 82.1771 143.858C88.6241 144.233 94.6651 144.459 101.094 144.086C111.344 143.491 120.085 142.237 129.266 148.166C136.83 153.049 143.311 161.266 146.68 169.355C147.046 170.231 148.498 169.846 148.127 168.954Z" fill="#702624"/>
<path d="M52.9586 156.437C51.4256 157.716 50.1256 159.247 49.4196 161.131C49.2876 161.483 49.8086 161.657 49.9976 161.375C51.0486 159.805 52.1226 158.284 53.5306 157.009C53.9206 156.655 53.3526 156.108 52.9586 156.437Z" fill="#702624"/>
<path d="M52.155 160.221C50.488 162.242 49.077 164.494 48.509 167.076C48.44 167.39 48.898 167.625 49.055 167.306C50.181 165.025 51.266 162.762 52.799 160.718C53.077 160.349 52.452 159.862 52.155 160.221Z" fill="#702624"/>
<path d="M55.6845 160.209C54.4595 161.749 53.4344 163.52 53.2004 165.499C53.1464 165.952 53.7954 165.957 53.9374 165.599C54.6154 163.878 55.2475 162.229 56.3565 160.727C56.6415 160.34 55.9865 159.829 55.6845 160.209Z" fill="#702624"/>
<path d="M133.542 158.525C135.704 161.021 137.138 163.808 138.666 166.703C138.876 167.101 139.528 166.828 139.394 166.396C138.412 163.214 136.331 160.397 134.081 157.986C133.743 157.625 133.224 158.158 133.542 158.525Z" fill="#702624"/>
<path d="M135.281 165.503C136.322 167.677 136.98 169.924 137.72 172.208C137.888 172.726 138.609 172.508 138.522 171.987C138.121 169.568 137.119 167.252 136.009 165.077C135.761 164.591 135.049 165.018 135.281 165.503Z" fill="#702624"/>
<path d="M131.549 164.48C132.648 165.932 133.326 167.573 133.84 169.311C133.962 169.722 134.677 169.668 134.623 169.205C134.387 167.21 133.511 165.488 132.267 163.926C131.947 163.525 131.235 164.066 131.549 164.48Z" fill="#702624"/>
<path d="M129.141 140.991H58.1366C58.1366 140.991 55.8936 144.651 57.4456 148.887C59.3276 154.023 75.7766 161.198 93.6386 161.198C111.501 161.198 127.95 154.022 129.832 148.887C131.383 144.651 129.141 140.991 129.141 140.991Z" fill="#FF8285"/>
<path d="M129.141 140.241C105.473 140.241 81.8049 140.241 58.1369 140.241C57.8759 140.241 57.6189 140.383 57.4889 140.612C47.8889 157.639 84.7619 161.938 93.6389 161.948C102.51 161.958 139.381 157.626 129.789 140.612C129.315 139.771 128.019 140.526 128.494 141.369C137.825 157.919 96.0029 160.873 88.1559 160.227C79.4789 159.513 69.8859 157.494 62.4319 152.761C58.4309 150.22 57.5789 147.907 58.0829 143.06C58.1719 142.207 59.0719 141.329 58.2559 141.74C58.4319 141.651 58.8189 141.776 59.0089 141.74C61.3439 141.295 64.1989 141.74 66.5689 141.74C70.8989 141.74 75.2289 141.74 79.5599 141.74C89.8519 141.74 100.145 141.74 110.438 141.74C116.673 141.74 122.907 141.74 129.142 141.74C130.106 141.741 130.107 140.241 129.141 140.241Z" fill="#702624"/>
<path opacity="0.5" d="M93.6378 154.138C111.125 154.138 127.249 147.262 129.684 142.154C129.402 141.425 129.14 140.991 129.14 140.991H58.1358C58.1358 140.991 57.8748 141.425 57.5918 142.154C60.0288 147.262 76.1518 154.138 93.6378 154.138Z" fill="#FF8285"/>
<path d="M100.733 168.342C104.679 164.396 104.679 157.999 100.733 154.054C96.7878 150.108 90.391 150.108 86.4456 154.054C82.5002 157.999 82.5002 164.396 86.4456 168.342C90.391 172.287 96.7878 172.287 100.733 168.342Z" fill="#FFC42F"/>
<path d="M102.947 161.198C102.302 173.169 84.2413 173.282 84.2413 161.198C84.2413 149.114 102.302 149.216 102.947 161.198C102.999 162.158 104.499 162.164 104.447 161.198C104.13 155.306 99.7433 150.345 93.5943 150.345C87.7073 150.345 82.7143 155.292 82.7413 161.198C82.7673 166.905 87.3353 171.736 93.0443 172.021C99.4053 172.339 104.118 167.312 104.447 161.198C104.499 160.233 102.999 160.236 102.947 161.198Z" fill="#702624"/>
<path d="M99.9195 161.198C99.9195 164.691 97.0875 167.522 93.5955 167.522C90.1025 167.522 87.2705 164.69 87.2705 161.198C87.2705 157.705 90.1025 154.874 93.5955 154.874C97.0875 154.873 99.9195 157.705 99.9195 161.198Z" fill="#ED9A55"/>
<path d="M99.1696 161.198C98.7856 168.334 88.0206 168.4 88.0206 161.198C88.0206 153.995 98.7846 154.056 99.1696 161.198C99.2216 162.158 100.722 162.164 100.67 161.198C100.463 157.359 97.6016 154.124 93.5956 154.124C89.7596 154.124 86.5036 157.351 86.5206 161.198C86.5376 164.921 89.5256 168.076 93.2506 168.254C97.3896 168.452 100.456 165.177 100.67 161.198C100.722 160.233 99.2216 160.236 99.1696 161.198Z" fill="#702624"/>
<path d="M76.2933 44.846C76.2933 44.846 59.6723 23.904 33.6533 31.731L54.9733 62.148L76.2933 44.846Z" fill="#ED9A55"/>
<path d="M38.0952 79.355C38.0952 79.355 19.0571 56.48 33.6531 31.731C33.6531 31.731 57.9452 27.923 67.5872 49.288L38.0952 79.355Z" fill="#FFB6C3"/>
<path opacity="0.4" d="M35.3152 75.3391C36.8882 77.9031 38.0952 79.3552 38.0952 79.3552L67.5872 49.2881C58.7962 29.8081 37.8351 31.2542 34.2021 31.6612C53.4321 37.8732 56.9872 48.1671 56.9872 48.1671C45.1102 56.3541 38.2302 68.9491 35.3152 75.3391Z" fill="#FFB6C3"/>
<path d="M110.898 44.846C110.898 44.846 127.519 23.904 153.538 31.731L132.218 62.148L110.898 44.846Z" fill="#FFE8D3"/>
<path d="M149.096 79.355C149.096 79.355 168.134 56.48 153.538 31.731C153.538 31.731 129.246 27.923 119.604 49.288L149.096 79.355Z" fill="#FFB6C3"/>
<path opacity="0.4" d="M151.876 75.3391C150.303 77.9031 149.096 79.3552 149.096 79.3552L119.604 49.2881C128.395 29.8081 149.356 31.2542 152.988 31.6612C133.758 37.8732 130.203 48.1671 130.203 48.1671C142.081 56.3541 148.961 68.9491 151.876 75.3391Z" fill="#FFB6C3"/>
<path d="M156.804 107.191C156.643 105.418 159.531 104.294 159.516 101.524C159.501 98.754 148.462 62.826 127.508 49.387C118.009 43.295 105.938 39.644 93.5963 39.644C81.2543 39.644 69.1823 43.296 59.6843 49.387C38.7303 62.826 27.6913 98.753 27.6763 101.524C27.6613 104.294 30.5493 105.418 30.3883 107.191C30.2273 108.964 25.1263 110.017 26.6323 113.313C27.7813 115.828 32.3373 127.619 49.9203 137.203C69.8213 148.05 93.5923 148.031 93.5973 148.031C93.6023 148.031 117.372 148.051 137.274 137.203C154.857 127.619 159.413 115.828 160.562 113.313C162.066 110.017 156.965 108.964 156.804 107.191Z" fill="#FFE8D3"/>
<path d="M47.5396 66.4219C47.5396 66.4219 37.7966 64.7829 37.7966 62.4849C37.7966 60.1869 42.6686 61.3559 42.6686 61.3559C42.6686 61.3559 36.4326 46.9359 37.7966 44.2079C39.1606 41.4799 46.5656 57.4589 46.5656 57.4589C46.5656 57.4589 46.4466 50.2489 48.7466 50.6389C51.0476 51.0289 51.6316 60.1879 51.6316 60.1879L47.5396 66.4219Z" fill="#ED9A55"/>
<path d="M27.6753 101.524C27.6603 104.294 30.5483 105.418 30.3873 107.191C30.2263 108.964 25.1253 110.017 26.6313 113.313C27.2423 114.65 28.8163 118.609 32.7983 123.464C46.1433 126.043 63.8183 125.188 76.9573 108.919C93.4353 88.5151 82.9603 59.054 74.7133 42.498C69.2893 44.161 64.1943 46.4951 59.6833 49.3871C38.7293 62.8261 27.6903 98.754 27.6753 101.524Z" fill="#ED9A55"/>
<path d="M159.517 101.524C159.532 104.294 156.644 105.418 156.805 107.191C156.966 108.964 162.067 110.017 160.561 113.313C159.95 114.65 158.376 118.609 154.394 123.464C141.049 126.043 123.374 125.188 110.235 108.919C93.7566 88.5151 104.232 59.054 112.479 42.498C117.903 44.161 122.998 46.4951 127.509 49.3871C148.462 62.8261 159.502 98.754 159.517 101.524Z" fill="#702624"/>
<path d="M102.559 109.223C100.196 107.041 93.6046 107.23 93.6046 107.23C93.6046 107.23 87.0136 107.041 84.6506 109.223C82.4946 111.213 70.9476 128.179 71.8796 130.381C72.8116 132.582 82.0116 136.446 93.6046 136.446C105.199 136.446 114.567 132.339 115.33 130.381C116.093 128.423 104.715 111.213 102.559 109.223Z" fill="white"/>
<path d="M139.653 66.4219C139.653 66.4219 149.396 64.7829 149.396 62.4849C149.396 60.1869 144.524 61.3559 144.524 61.3559C144.524 61.3559 150.76 46.9359 149.396 44.2079C148.032 41.4799 140.627 57.4589 140.627 57.4589C140.627 57.4589 140.746 50.2489 138.446 50.6389C136.145 51.0289 135.561 60.1879 135.561 60.1879L139.653 66.4219Z" fill="#702624"/>
<path d="M158.763 109.262C155.35 114.236 149.337 124.025 138.741 129.8C118.171 141.012 93.6006 140.991 93.5956 140.991C93.5906 140.991 69.0216 141.011 48.4516 129.8C37.8556 124.025 31.8426 114.236 28.4296 109.262C27.1096 110.244 25.7566 111.4 26.6316 113.314C27.7806 115.829 32.3366 127.62 49.9196 137.204C69.8206 148.051 93.5916 148.032 93.5966 148.032C93.6016 148.032 117.372 148.052 137.274 137.204C154.857 127.62 159.413 115.829 160.562 113.314C161.436 111.399 160.083 110.243 158.763 109.262Z" fill="#FFE8D3"/>
<path d="M120.895 51.366C105.315 42.301 81.3818 40.956 66.2328 51.975C65.9608 52.173 66.1888 52.549 66.4928 52.42C75.4838 48.602 83.5478 45.407 93.5078 45.246C103.05 45.092 112.234 47.409 120.8 51.527C120.908 51.58 121.001 51.428 120.895 51.366Z" fill="white"/>
<path d="M52.9846 122.594C41.7096 120.009 45.3156 112.299 52.9846 114.133C63.6016 116.671 62.2106 124.709 52.9846 122.594Z" fill="#FF8285"/>
<path d="M134.208 122.594C145.483 120.009 141.877 112.299 134.208 114.133C123.591 116.671 124.982 124.709 134.208 122.594Z" fill="#FF8285"/>
<path d="M59.4002 83.546C61.3802 82.698 64.0882 82.1 67.2242 83.227C69.4682 84.033 70.7112 82.236 69.0672 80.95C67.1742 79.468 62.4252 78.608 59.1052 80.238C55.7852 81.868 56.0132 82.981 56.2782 83.614C56.5432 84.246 57.5392 84.343 59.4002 83.546Z" fill="#702624"/>
<path d="M127.791 83.546C125.811 82.698 123.103 82.1 119.967 83.227C117.723 84.033 116.48 82.236 118.124 80.95C120.017 79.468 124.766 78.608 128.086 80.238C131.406 81.868 131.178 82.981 130.913 83.614C130.647 84.246 129.652 84.343 127.791 83.546Z" fill="#FFE8D3"/>
<path d="M83.471 107.651C83.341 112.602 93.596 117.706 93.596 117.706C93.596 117.706 103.852 112.603 103.721 107.651C103.592 102.699 83.602 102.699 83.471 107.651Z" fill="#702624"/>
<g opacity="0.5">
<path d="M85.9756 107.103C88.4816 106.837 91.0706 106.642 93.5926 106.788C96.1626 106.937 98.5845 107.677 101.117 107.979C101.414 108.014 101.52 107.551 101.268 107.422C96.7736 105.132 90.6396 105.418 85.9446 106.873C85.8246 106.91 85.8396 107.118 85.9756 107.103Z" fill="white"/>
</g>
<path d="M79.5721 122.444C80.6401 124.471 82.2931 126.451 84.2731 127.626C87.9581 129.812 91.5051 127.966 94.1271 125.061C94.7721 124.346 93.7151 123.282 93.0661 124C90.3521 127.008 87.0151 128.268 83.7351 125.366C82.5791 124.343 81.5881 123.054 80.8671 121.687C80.4171 120.832 79.1221 121.589 79.5721 122.444Z" fill="#702624"/>
<path d="M106.326 121.686C105.606 123.053 104.615 124.342 103.458 125.365C100.178 128.267 96.8412 127.007 94.1272 123.999C93.4792 123.281 92.4212 124.344 93.0662 125.06C95.6872 127.965 99.2362 129.81 102.92 127.625C104.9 126.45 106.553 124.47 107.621 122.443C108.071 121.59 106.776 120.831 106.326 121.686Z" fill="#702624"/>
<path d="M92.8457 115.738C92.8457 118.793 92.8457 121.848 92.8457 124.903C92.8457 125.868 94.3457 125.87 94.3457 124.903C94.3457 121.848 94.3457 118.793 94.3457 115.738C94.3457 114.773 92.8457 114.772 92.8457 115.738Z" fill="#702624"/>
<path d="M77.5712 111.578C78.8262 112.264 80.1182 112.866 81.3772 113.544C82.6382 114.223 83.8272 115.081 85.1152 115.696C85.5612 115.909 86.1172 115.329 85.6832 114.96C83.5522 113.149 80.4012 111.862 77.6792 111.321C77.5312 111.291 77.4242 111.497 77.5712 111.578Z" fill="#702624"/>
<path d="M67.8159 116.31C73.4849 116.217 78.6659 116.093 84.1739 117.79C84.9099 118.017 85.2289 116.858 84.4919 116.637C79.1959 115.055 73.1359 114.198 67.7539 115.849C67.5069 115.926 67.5449 116.315 67.8159 116.31Z" fill="#702624"/>
<path d="M70.2615 120.572C74.8705 119.24 79.0465 119.261 83.7435 119.913C84.4665 120.013 84.8045 118.993 84.0545 118.783C79.4775 117.502 74.3765 118.277 70.1345 120.272C69.9645 120.352 70.0855 120.622 70.2615 120.572Z" fill="#702624"/>
<path d="M109.513 111.321C106.791 111.862 103.639 113.149 101.509 114.96C101.079 115.326 101.627 115.911 102.077 115.696C103.366 115.081 104.554 114.223 105.815 113.544C107.074 112.866 108.366 112.264 109.621 111.578C109.768 111.498 109.664 111.291 109.513 111.321Z" fill="#702624"/>
<path d="M119.439 115.85C114.057 114.199 107.997 115.056 102.701 116.638C101.965 116.858 102.281 118.018 103.019 117.791C108.531 116.092 113.71 116.218 119.377 116.311C119.646 116.315 119.689 115.927 119.439 115.85Z" fill="#702624"/>
<path d="M117.057 120.272C112.814 118.277 107.714 117.502 103.137 118.783C102.389 118.992 102.724 120.014 103.448 119.913C108.136 119.261 112.335 119.244 116.93 120.572C117.105 120.622 117.229 120.352 117.057 120.272Z" fill="#702624"/>
<path d="M64.4036 88.6909C52.7076 88.3949 50.4865 102.46 54.4845 108.826C56.4835 112.009 58.9826 114.221 64.4036 114.221C69.6506 114.221 72.3246 112.009 74.3226 108.826C78.3206 102.46 76.0996 88.3949 64.4036 88.6909Z" fill="#FFC42F"/>
<path d="M76.342 97.261C73.931 89.181 64.402 84.699 57.068 90.104C51.402 94.28 50.457 103.352 53.837 109.204C54.32 110.04 55.616 109.285 55.132 108.447C52.415 103.742 52.794 96.678 56.549 92.594C62.509 86.112 72.588 89.926 74.896 97.659C75.171 98.583 76.619 98.19 76.342 97.261Z" fill="#702624"/>
<path d="M67.4488 111.019C71.5352 111.019 74.8478 106.924 74.8478 101.873C74.8478 96.8219 71.5352 92.7271 67.4488 92.7271C63.3625 92.7271 60.0498 96.8219 60.0498 101.873C60.0498 106.924 63.3625 111.019 67.4488 111.019Z" fill="#702624"/>
<path d="M122.51 88.6911C134.206 88.3951 136.427 102.46 132.429 108.826C130.43 112.009 127.931 114.221 122.51 114.221C117.263 114.221 114.589 112.009 112.591 108.826C108.593 102.46 110.813 88.3951 122.51 88.6911Z" fill="#FFC42F"/>
<path d="M119.465 111.019C123.552 111.019 126.864 106.924 126.864 101.873C126.864 96.8219 123.552 92.7271 119.465 92.7271C115.379 92.7271 112.066 96.8219 112.066 101.873C112.066 106.924 115.379 111.019 119.465 111.019Z" fill="#702624"/>
<path d="M37.1059 76.8311C33.9669 72.2731 31.5569 67.2111 30.1469 61.8521C29.0889 57.8271 28.6149 53.6521 28.8579 49.4931C29.1259 44.8971 30.2839 37.4371 33.3579 33.7901C36.4529 30.1191 43.5909 30.4971 48.0009 30.8331C52.3249 31.1611 56.5789 32.2841 60.5359 34.0511C65.4549 36.2481 69.8999 39.3991 73.7349 43.1691C73.9089 43.3391 74.2239 43.4611 74.4649 43.3621C86.3579 38.4781 100.688 39.5221 112.628 43.3621C112.881 43.4441 113.173 43.3511 113.358 43.1691C117.193 39.3991 121.638 36.2481 126.557 34.0521C130.514 32.2851 134.767 31.1621 139.092 30.8341C143.503 30.4991 150.641 30.12 153.735 33.791C156.809 37.437 157.967 44.8981 158.235 49.4941C158.478 53.6531 158.004 57.8281 156.945 61.8531C155.536 67.2121 153.125 72.2741 149.986 76.8321C149.437 77.6291 150.737 78.3801 151.281 77.5891C160.167 64.6851 162.656 48.1481 155.452 33.8711C153.51 30.0221 151.091 30.0861 146.767 29.5471C142.283 28.9881 137.727 29.1961 133.32 30.2061C126.552 31.7581 120.275 35.1571 114.997 39.6311C113.872 40.5851 113.309 41.3591 111.954 41.4891C109.623 41.7141 106.33 40.0121 103.927 39.5931C98.9399 38.7231 93.8499 38.468 88.8019 38.847C85.5149 39.093 82.2359 39.5871 79.0349 40.3791C77.8779 40.6651 75.2379 42.1231 74.1119 41.8981C73.6719 41.8101 70.1629 38.0501 69.0279 37.2341C66.2159 35.2131 63.1829 33.5111 59.9809 32.1921C52.9319 29.2891 41.5119 27.1441 34.3119 30.7701C30.9069 32.4851 29.3739 38.7071 28.4769 42.2581C27.2729 47.0301 27.0099 51.9841 27.6469 56.8631C28.6159 64.2941 31.5739 71.4341 35.8139 77.5891C36.3549 78.3781 37.6559 77.6291 37.1059 76.8311Z" fill="#702624"/>
<path d="M33.853 32.4539C45.655 30.7719 58.073 36.6009 65.127 46.1789C65.693 46.9479 66.996 46.2009 66.422 45.4219C58.942 35.2649 46.169 29.1959 33.454 31.0079C32.503 31.1429 32.907 32.5889 33.853 32.4539Z" fill="#702624"/>
<path d="M153.636 31.0079C140.921 29.1959 128.149 35.2649 120.668 45.4219C120.095 46.1999 121.396 46.9489 121.963 46.1789C129.016 36.6009 141.435 30.7719 153.237 32.4539C154.182 32.5889 154.59 31.1429 153.636 31.0079Z" fill="#702624"/>
<path d="M143.256 66.801C149.45 76.201 154.464 86.572 157.729 97.36C158.075 98.504 158.714 99.9421 158.725 101.156C158.745 103.352 156.658 104.234 156.257 106.085C155.799 108.206 157.027 108.35 158.251 109.81C160.688 112.714 159.246 114.758 157.543 117.659C155.425 121.268 152.735 124.514 149.703 127.391C140.416 136.204 128.256 141.4 115.938 144.342C103.631 147.281 91.8485 147.937 79.4165 145.961C67.5675 144.077 55.8045 140.377 45.6865 133.811C38.9555 129.443 30.9395 122.637 28.1025 114.749C27.3445 112.643 27.3945 111.615 28.9385 109.811C29.6525 108.977 30.8995 108.629 31.1085 107.391C31.2525 106.54 30.8115 105.953 30.4455 105.247C29.3435 103.118 28.3645 102.189 28.8155 99.624C29.5565 95.405 31.5225 91.1421 33.1515 87.2091C36.1055 80.0781 39.6875 73.2471 43.9345 66.8021C44.1405 66.4891 44.0215 65.9371 43.6655 65.7761C42.6525 65.3191 40.3605 64.559 39.8065 63.615C39.0755 62.37 39.5815 62.4561 41.0815 62.0441C41.5225 61.9231 42.2195 62.072 42.6655 62.107C43.2865 62.155 43.5275 61.4471 43.3135 60.9781C42.6265 59.4741 37.1485 44.7371 38.6535 44.8161C40.0885 44.8921 42.6595 51.0451 43.2145 52.1381C44.1655 54.0121 45.0675 55.9151 45.9165 57.8381C46.2445 58.5801 47.2665 58.1211 47.3145 57.4591C47.3615 56.8161 47.6205 52.2091 48.4805 51.9321C49.9985 51.4431 50.3585 55.624 50.4575 56.473C50.5675 57.42 52.0695 57.432 51.9575 56.473C51.7645 54.817 51.4025 49.5631 48.7455 49.8881C46.1025 50.2121 45.9535 55.5481 45.8145 57.4581C46.2805 57.3321 46.7465 57.2061 47.2125 57.0791C46.2075 54.8011 41.2445 41.545 37.7415 43.245C33.6795 45.216 40.7605 58.9771 42.0195 61.7341C42.2355 61.3581 42.4515 60.9821 42.6675 60.6051C41.0995 60.4831 37.2085 60.0961 37.0455 62.4841C36.9795 63.4461 38.2245 64.323 38.8375 64.801C39.6355 65.425 40.7705 65.7501 41.5225 66.4021C41.6845 66.5421 42.4035 66.6801 42.4815 66.8711C42.4095 66.6941 41.1195 68.4911 40.7155 69.0261C36.5425 74.5381 33.7295 81.7411 31.1695 88.1311C29.6255 91.9851 27.4065 96.554 27.0215 100.757C26.9335 101.719 26.9965 102.539 27.3855 103.461C27.7315 104.28 28.5095 104.845 28.8535 105.618C29.8055 107.758 28.6225 107.912 27.3545 109.15C25.3915 111.067 25.4455 112.425 26.4995 114.84C30.3175 123.584 37.7255 130.551 45.6635 135.568C60.8525 145.167 80.8395 149.922 98.8445 148.525C121.175 146.792 147.576 138.551 159.217 117.759C160.285 115.851 162.171 113.075 161.252 110.848C160.17 108.224 157.112 108.717 158.638 105.254C159.285 103.786 160.288 102.948 160.236 101.189C160.11 96.949 157.564 91.968 156.023 88.132C152.921 80.408 149.132 72.9971 144.55 66.0441C144.021 65.2411 142.723 65.992 143.256 66.801Z" fill="#702624"/>
</svg>
