<svg width="183" height="177" viewBox="0 0 183 177" fill="none" xmlns="http://www.w3.org/2000/svg">
<path d="M53.0441 48.616C43.8351 52.131 29.0111 45.835 33.0691 32.037C37.1271 18.238 79.7831 38.412 53.0441 48.616Z" fill="#ED9A55"/>
<path d="M23.9599 53.4139C14.3249 51.6719 16.2729 39.5409 26.4809 41.7459C36.6889 43.9519 37.4559 55.8549 23.9599 53.4139Z" fill="#ED9A55"/>
<path d="M95.5235 167.939C142.918 167.939 182.27 145.751 182.27 83.552C182.27 15.491 124.066 -13.699 103.457 7.87699C82.8485 29.453 74.8095 55.684 46.8875 54.837C18.9655 53.99 -4.67446 72.413 1.86054 110.813C9.23454 154.136 47.5615 167.939 95.5235 167.939Z" fill="#ED9A55"/>
<path d="M125.429 59.3499C116.202 52.8539 103.859 49.6069 91.5167 49.6069C79.1747 49.6069 66.8317 52.8549 57.6047 59.3499C30.0937 78.7169 29.4057 104.582 33.6877 132.012C36.8447 152.237 38.6327 161.922 38.6327 161.922C38.6327 161.922 57.6937 176.046 91.5177 176.046C125.342 176.046 144.298 161.245 144.298 161.245C144.298 161.245 146.19 152.238 149.347 132.013C153.629 104.582 152.94 78.7169 125.429 59.3499Z" fill="#FFE8D3"/>
<path d="M144.675 114.921C146.924 97.91 143.611 74.25 126.139 65.741C125.829 65.59 125.431 66.009 125.741 66.256C132.767 71.845 138.201 77.687 141.408 86.239C144.837 95.382 145.268 105.268 144.64 114.921C144.638 114.944 144.672 114.943 144.675 114.921Z" fill="white"/>
<path opacity="0.7" d="M144.629 80.3879C149.283 93.4009 148.517 107.775 146.197 122.638C143.212 141.762 129.853 169.111 91.5172 169.111C47.4932 169.111 39.8222 141.762 36.8372 122.638C34.5172 107.775 33.7512 93.4009 38.4052 80.3879C30.1932 95.8969 30.8131 113.6 33.6871 132.012C36.8441 152.237 38.6322 161.922 38.6322 161.922C38.6322 161.922 57.6931 176.046 91.5172 176.046C125.341 176.046 145.325 161.132 145.325 161.132C145.325 161.132 146.189 152.237 149.346 132.012C152.221 113.601 152.841 95.8979 144.629 80.3879Z" fill="#FFE8D3"/>
<path d="M145.02 161.444C148.336 145.563 151.582 129.057 152.013 112.816C152.562 92.129 145.288 73.658 128.665 60.811C110.148 46.501 81.805 44.774 61.362 56.117C43.283 66.149 32.42 84.443 31.147 104.848C29.959 123.888 34.48 143.48 37.909 162.121C38.083 163.069 39.529 162.667 39.356 161.722C33.381 129.239 23.4 89.979 51.706 64.94C70.808 48.043 102.04 45.049 123.712 59.091C141.56 70.655 150.523 89.181 150.548 110.139C150.569 127.111 147.036 144.465 143.574 161.045C143.377 161.988 144.823 162.39 145.02 161.444Z" fill="#702624"/>
<path d="M53.5361 68.3591C49.3261 70.7301 45.5391 75.154 43.6501 79.581C43.4701 80.002 44.0131 80.3481 44.2771 79.9481C45.6891 77.8031 47.0531 75.6431 48.7651 73.7171C50.3461 71.9391 52.1731 70.4621 53.9261 68.8661C54.2021 68.6141 53.8501 68.1821 53.5361 68.3591Z" fill="#702624"/>
<path d="M50.3067 74.2311C46.7947 77.3501 44.1737 81.5401 43.2837 86.1761C43.2067 86.5771 43.7557 86.7291 43.8937 86.3441C45.4727 81.9411 47.6017 78.1671 50.8787 74.8021C51.2447 74.4261 50.6937 73.8871 50.3067 74.2311Z" fill="#702624"/>
<path d="M55.2767 73.5541C52.4307 75.8081 50.2977 79.1041 49.3497 82.5981C49.2737 82.8771 49.7057 83.0811 49.8317 82.8011C51.3337 79.4701 53.2347 76.6741 55.7417 74.0181C56.0377 73.7031 55.6007 73.2981 55.2767 73.5541Z" fill="#702624"/>
<path d="M137.246 160.13C138.835 155.648 140.07 150.924 140.553 146.183C140.609 145.635 139.687 145.507 139.586 146.052C138.715 150.745 137.786 155.321 136.399 159.896C136.233 160.444 137.059 160.658 137.246 160.13Z" fill="#702624"/>
<path d="M133.626 161.753C134.827 158.9 135.625 155.923 135.915 152.838C135.966 152.292 135.033 152.158 134.948 152.707C134.482 155.72 133.836 158.648 132.869 161.544C132.705 162.036 133.437 162.204 133.626 161.753Z" fill="#702624"/>
<path d="M132.7 156.117C133.391 153.447 133.967 150.753 134.272 148.009C134.32 147.572 133.584 147.471 133.501 147.905C132.988 150.575 132.532 153.255 131.966 155.915C131.864 156.39 132.576 156.594 132.7 156.117Z" fill="#702624"/>
<path d="M62.4641 97.7458C50.7681 97.4498 48.5471 111.515 52.5451 117.881C54.5441 121.064 57.0431 123.276 62.4641 123.276C67.7111 123.276 70.3851 121.064 72.3831 117.881C76.3811 111.514 74.1601 97.4488 62.4641 97.7458Z" fill="white"/>
<path d="M74.4025 106.316C71.9915 98.2359 62.4625 93.7539 55.1285 99.1589C49.4625 103.335 48.5176 112.407 51.8976 118.259C52.3806 119.095 53.6765 118.34 53.1925 117.502C50.4755 112.797 50.8545 105.733 54.6095 101.649C60.5685 95.1669 70.6485 98.9809 72.9565 106.714C73.2315 107.637 74.6795 107.244 74.4025 106.316Z" fill="#702624"/>
<path d="M65.5084 120.074C69.5947 120.074 72.9074 115.979 72.9074 110.928C72.9074 105.877 69.5947 101.782 65.5084 101.782C61.422 101.782 58.1094 105.877 58.1094 110.928C58.1094 115.979 61.422 120.074 65.5084 120.074Z" fill="#702624"/>
<path d="M50.9065 131.662C39.6315 129.077 43.2375 121.367 50.9065 123.201C61.5225 125.739 60.1325 133.777 50.9065 131.662Z" fill="#ED9A55"/>
<path d="M132.128 131.662C143.403 129.077 139.797 121.367 132.128 123.201C121.512 125.739 122.903 133.777 132.128 131.662Z" fill="#ED9A55"/>
<path d="M57.3211 92.6009C59.3011 91.7529 62.0091 91.1549 65.1451 92.2819C67.3891 93.0879 68.6321 91.2909 66.9881 90.0049C65.0951 88.5229 60.3461 87.6629 57.0261 89.2929C53.7061 90.9229 53.9341 92.0359 54.1991 92.6689C54.4651 93.3009 55.4601 93.3979 57.3211 92.6009Z" fill="#702624"/>
<path d="M125.713 92.6009C123.733 91.7529 121.025 91.1549 117.889 92.2819C115.645 93.0879 114.402 91.2909 116.046 90.0049C117.939 88.5229 122.688 87.6629 126.008 89.2929C129.328 90.9229 129.1 92.0359 128.835 92.6689C128.569 93.3009 127.574 93.3979 125.713 92.6009Z" fill="#702624"/>
<path d="M120.571 97.7458C132.267 97.4498 134.488 111.515 130.49 117.881C128.491 121.064 125.992 123.276 120.571 123.276C115.324 123.276 112.65 121.064 110.652 117.881C106.655 111.514 108.875 97.4488 120.571 97.7458Z" fill="white"/>
<path d="M110.08 106.715C112.392 98.9649 122.473 95.1759 128.427 101.65C132.18 105.731 132.56 112.8 129.844 117.503C129.36 118.34 130.656 119.097 131.139 118.26C134.519 112.408 133.573 103.335 127.908 99.1599C120.579 93.7579 111.044 98.2389 108.634 106.317C108.357 107.243 109.804 107.639 110.08 106.715Z" fill="#702624"/>
<path d="M117.527 120.074C121.613 120.074 124.926 115.979 124.926 110.928C124.926 105.877 121.613 101.782 117.527 101.782C113.441 101.782 110.128 105.877 110.128 110.928C110.128 115.979 113.441 120.074 117.527 120.074Z" fill="#702624"/>
<path d="M91.517 111.366C91.517 111.366 83.568 110.58 76.79 121.483C76.79 121.483 79.132 143.781 91.517 146.237C103.902 143.781 106.244 121.483 106.244 121.483C99.466 110.58 91.517 111.366 91.517 111.366Z" fill="#ED9A55"/>
<g opacity="0.7">
<path d="M80.1259 120.239C82.9929 117.142 87.1059 114.446 91.5179 114.648C96.1209 114.859 99.3549 118.023 102.318 121.164C102.602 121.465 103.099 121.078 102.889 120.724C97.3479 111.423 86.2279 112.272 79.8939 120.008C79.7629 120.167 79.9799 120.396 80.1259 120.239Z" fill="white"/>
</g>
<path opacity="0.6" d="M91.517 140.363C82.75 138.624 79.018 126.948 77.585 120.272C77.319 120.661 77.054 121.06 76.791 121.483C76.791 121.483 79.133 143.781 91.518 146.237C103.903 143.781 106.245 121.483 106.245 121.483C105.982 121.06 105.717 120.66 105.451 120.272C104.016 126.949 100.285 138.625 91.517 140.363Z" fill="#ED9A55"/>
<path d="M105.494 121.484C104.831 127.528 103.034 134.091 99.6745 139.184C96.6065 143.835 92.0285 147.219 86.9595 143.233C83.2815 140.341 81.1995 135.731 79.7685 131.391C78.8685 128.661 77.9095 125.602 77.7095 122.714C77.5975 121.103 77.9015 120.974 79.5315 119.056C81.8795 116.294 84.8355 113.71 88.3575 112.623C95.8145 110.321 101.65 116.298 105.597 121.863C106.151 122.644 107.452 121.896 106.892 121.106C101.709 113.8 93.9685 107.487 84.9575 112.489C81.9085 114.181 76.4715 118.242 76.1055 122.002C75.8685 124.43 77.1275 127.757 77.7835 130.033C78.9515 134.085 80.5805 138.175 83.1955 141.524C84.9995 143.834 88.3155 146.988 91.5185 146.988C94.6895 146.988 97.9825 143.881 99.7835 141.6C104.149 136.067 106.236 128.403 106.995 121.484C107.099 120.526 105.598 120.533 105.494 121.484Z" fill="#702624"/>
<path d="M104.636 64.175H121.901C121.901 64.175 136.693 51.922 133.376 43.273C130.059 34.624 117.257 42.163 113.858 44.575C110.46 46.988 104.636 64.175 104.636 64.175Z" fill="#FFE8D3"/>
<path d="M128.835 52.041C130.196 50.191 131.143 47.86 130.761 45.523C130.552 44.246 129.804 42.618 128.323 42.626C127.98 42.628 127.916 43.046 128.16 43.227C130.975 45.304 130.276 49.22 128.663 51.941C128.596 52.054 128.76 52.142 128.835 52.041Z" fill="white"/>
<path opacity="0.7" d="M113.858 44.5759C116.016 43.0449 121.96 39.4529 126.865 39.2419C125.378 45.3589 120.038 55.9979 107.115 64.1759H104.637C104.637 64.1759 110.46 46.9879 113.858 44.5759Z" fill="#FFE8D3"/>
<path d="M122.432 64.706C127.772 60.242 135.788 52.277 134.497 44.589C132.667 33.693 118.901 40.165 113.48 43.928C112.692 44.475 113.441 45.775 114.237 45.223C117.148 43.202 120.41 41.414 123.848 40.5C129.614 38.967 134.394 42.234 132.734 48.569C131.179 54.505 125.975 59.797 121.372 63.645C120.63 64.265 121.696 65.321 122.432 64.706Z" fill="#702624"/>
<path d="M125.233 48.227C123.164 51.307 121.12 54.403 118.898 57.377C117.825 58.812 116.554 60.202 115.64 61.751C115.42 62.123 115.962 62.415 116.207 62.082C119.503 57.596 122.995 53.414 125.375 48.31C125.419 48.214 125.293 48.138 125.233 48.227Z" fill="#702624"/>
<path d="M100.132 68.9899C100.132 68.9899 127.961 42.4639 126.454 26.1809C124.946 9.89789 113.789 13.8179 105.648 21.3559L100.132 68.9899Z" fill="#FFCF7D"/>
<path d="M122.18 31.5978C123.909 28.0928 124.875 23.9098 122.353 20.5128C120.486 17.9978 116.898 16.9218 114.313 18.9638C114.11 19.1248 114.33 19.4988 114.57 19.4048C118.045 18.0438 121.506 19.5358 122.712 23.1238C123.654 25.9268 123.09 28.8548 122.01 31.5248C121.969 31.6228 122.133 31.6918 122.18 31.5978Z" fill="white"/>
<path opacity="0.6" d="M100.132 68.99L105.648 21.357C106.832 20.261 108.08 19.246 109.352 18.354C117.078 33.184 109.506 52.015 109.506 52.015C119.467 44.049 124.294 32.794 126.434 26.003C126.44 26.064 126.449 26.12 126.455 26.181C127.962 42.465 100.132 68.99 100.132 68.99Z" fill="#FFCF7D"/>
<path d="M116.89 25.193C112.617 32.019 108.573 39.118 104.913 46.293C104.722 46.667 105.261 46.989 105.48 46.624C109.627 39.716 113.505 32.52 117.032 25.276C117.077 25.181 116.946 25.102 116.89 25.193Z" fill="#702624"/>
<path d="M100.663 69.5209C106.751 63.6949 112.36 57.2169 117.278 50.3809C123.468 41.7769 130.545 30.1039 125.603 19.2689C123.92 15.5799 120.755 13.6149 116.701 14.2219C113.232 14.7419 106.502 17.8179 104.925 21.1579C104.128 22.8459 104.371 25.9119 104.161 27.7189C103.583 32.7119 103.005 37.7049 102.427 42.6969C101.412 51.4609 100.397 60.2259 99.3833 68.9899C99.2723 69.9469 100.773 69.9389 100.883 68.9899C102.515 54.8919 104.148 40.7949 105.78 26.6969C105.971 25.0519 105.868 22.5239 106.699 21.2639C109.29 17.3379 118.379 13.6139 122.304 17.0629C126.782 20.9979 126.215 29.0669 124.528 34.1639C122.739 39.5679 119.599 44.5349 116.322 49.1469C111.41 56.0579 105.734 62.5929 99.6033 68.4589C98.9033 69.1289 99.9653 70.1879 100.663 69.5209Z" fill="#702624"/>
<path d="M78.3622 64.175H61.0962C61.0962 64.175 46.3052 51.922 49.6212 43.273C52.9382 34.624 65.7402 42.163 69.1392 44.575C72.5382 46.988 78.3622 64.175 78.3622 64.175Z" fill="#FFE8D3"/>
<path d="M54.3348 51.941C52.7228 49.22 52.0218 45.305 54.8388 43.227C55.0828 43.047 55.0198 42.628 54.6758 42.626C53.1958 42.619 52.4448 44.245 52.2368 45.523C51.8578 47.861 52.7998 50.19 54.1628 52.041C54.2378 52.142 54.4018 52.054 54.3348 51.941Z" fill="white"/>
<path opacity="0.7" d="M69.1398 44.5759C66.9828 43.0449 61.0378 39.4529 56.1338 39.2419C57.6208 45.3589 62.9608 55.9979 75.8838 64.1759H78.3618C78.3618 64.1759 72.5388 46.9879 69.1398 44.5759Z" fill="#FFE8D3"/>
<path d="M61.6269 63.645C57.0229 59.796 51.8199 54.508 50.2649 48.569C48.6049 42.23 53.3899 38.969 59.1509 40.5C62.5859 41.413 65.8519 43.204 68.7619 45.223C69.5569 45.775 70.3079 44.475 69.5189 43.928C64.0959 40.164 50.3309 33.693 48.5019 44.589C47.2109 52.275 55.2269 60.242 60.5669 64.706C61.3019 65.321 62.3679 64.265 61.6269 63.645Z" fill="#702624"/>
<path d="M57.6224 48.31C60.0004 53.411 63.4954 57.598 66.7904 62.082C67.0344 62.414 67.5764 62.123 67.3574 61.751C66.4434 60.201 65.1724 58.812 64.0994 57.377C61.8764 54.403 59.8334 51.308 57.7644 48.227C57.7054 48.138 57.5784 48.214 57.6224 48.31Z" fill="#702624"/>
<path d="M82.8664 68.9901C82.8664 68.9901 55.0374 42.4641 56.5444 26.1811C58.0524 9.89813 69.2094 13.8181 77.3504 21.3561L82.8664 68.9901Z" fill="#FFCF7D"/>
<path d="M60.9892 31.5251C59.9082 28.8531 59.3442 25.9311 60.2872 23.1241C61.4862 19.5531 64.9632 18.0471 68.4292 19.4051C68.6692 19.4991 68.8892 19.1251 68.6862 18.9641C66.1022 16.9221 62.5132 17.9991 60.6462 20.5131C58.1232 23.9101 59.0902 28.0931 60.8192 31.5981C60.8642 31.6911 61.0292 31.6241 60.9892 31.5251Z" fill="white"/>
<path opacity="0.6" d="M82.8664 68.99L77.3504 21.357C76.1664 20.261 74.9184 19.246 73.6464 18.354C65.9204 33.184 73.4924 52.015 73.4924 52.015C63.5314 44.049 58.7044 32.794 56.5644 26.003C56.5584 26.064 56.5494 26.12 56.5434 26.181C55.0364 42.465 82.8664 68.99 82.8664 68.99Z" fill="#FFCF7D"/>
<path d="M65.9666 25.2761C69.4936 32.5201 73.3716 39.7161 77.5186 46.6241C77.7376 46.9881 78.2766 46.6681 78.0856 46.2931C74.4256 39.1191 70.3816 32.0191 66.1086 25.1931C66.0516 25.1031 65.9206 25.1811 65.9666 25.2761Z" fill="#702624"/>
<path d="M83.3961 68.4601C78.5901 63.8611 74.1311 58.8281 70.0201 53.6061C63.3241 45.1001 54.7701 33.5551 57.9961 22.0851C60.1341 14.4831 66.4981 14.6361 72.2671 18.3301C75.6401 20.4911 76.5401 20.8391 76.9471 24.3521C77.8841 32.4461 78.8211 40.5401 79.7591 48.6351C80.5451 55.4201 81.3301 62.2051 82.1161 68.9901C82.2261 69.9381 83.7271 69.9491 83.6161 68.9901C82.7731 61.7121 81.9311 54.4341 81.0881 47.1561C80.4701 41.8201 79.8521 36.4851 79.2351 31.1491C78.9031 28.2801 79.1081 24.5261 78.1501 21.7811C77.1521 18.9201 72.6211 16.5341 69.9301 15.3491C66.5551 13.8631 62.5771 13.3661 59.6351 16.0031C55.9791 19.2801 55.2861 25.7791 55.9801 30.3401C56.8381 35.9811 59.7441 41.2941 62.7721 46.0401C68.2241 54.5851 75.0151 62.5141 82.3371 69.5201C83.0331 70.1881 84.0951 69.1291 83.3961 68.4601Z" fill="#702624"/>
<path d="M108.82 25.5789C105.021 5.67693 95.1922 4.16992 91.5172 4.16992C87.8422 4.16992 78.0132 5.67793 74.2142 25.5789C70.4152 45.4809 82.8662 71.7139 82.8662 71.7139H91.5172H100.169C100.169 71.7139 112.619 45.4799 108.82 25.5789Z" fill="#FFE8D3"/>
<path d="M79.0516 20.291C80.9856 15.071 84.3316 9.51095 90.4466 8.87695C96.8616 8.21195 100.048 13.478 103.409 17.875C103.606 18.133 104.012 17.918 103.854 17.615C101.209 12.533 96.7306 6.94595 90.3056 7.79995C83.8866 8.65295 80.4606 14.586 78.8486 20.235C78.8106 20.367 79.0056 20.416 79.0516 20.291Z" fill="white"/>
<path opacity="0.7" d="M103.421 34.569C103.421 18.256 94.4345 14.833 91.4755 14.833C88.5165 14.833 80.5215 18.257 80.5215 34.569C80.5215 50.552 91.4755 69.497 91.4755 69.497C91.4755 69.497 103.421 51.698 103.421 34.569Z" fill="#FFE8D3"/>
<path d="M100.816 72.092C105.145 62.896 108.222 52.767 109.621 42.713C111.243 31.064 110.335 14.292 100.054 6.40002C95.7693 3.11002 90.0143 2.47602 85.1943 4.97702C74.6323 10.458 72.2493 26.318 72.8313 36.866C73.4943 48.898 77.0913 61.201 82.2183 72.092C82.6293 72.965 83.9223 72.204 83.5133 71.335C79.9483 63.762 77.3653 55.534 75.7193 47.343C73.2643 35.123 72.8823 18.251 82.5453 8.76602C86.7133 4.67502 92.9203 3.67902 97.9573 6.76302C108.568 13.26 109.634 30.239 108.32 41.183C107.085 51.473 103.938 61.949 99.5203 71.335C99.1123 72.204 100.405 72.966 100.816 72.092Z" fill="#702624"/>
<path d="M91.4704 10.7291C90.8634 30.5401 91.0524 50.3941 91.2594 70.2111C91.2624 70.5431 91.7714 70.5431 91.7754 70.2111C91.9824 50.3941 92.1714 30.5401 91.5644 10.7291C91.5624 10.6681 91.4724 10.6681 91.4704 10.7291Z" fill="#702624"/>
</svg>
