<svg width="183" height="178" viewBox="0 0 183 178" fill="none" xmlns="http://www.w3.org/2000/svg">
<path d="M87.5107 171.08C40.1166 171.08 0.764648 144.892 0.764648 82.6931C0.764648 14.6321 58.9687 -14.5579 79.5777 7.0181C100.186 28.5951 108.225 54.8251 136.147 53.9791C164.069 53.1331 187.709 71.5551 181.174 109.955C173.799 153.277 135.472 171.08 87.5107 171.08Z" fill="#B0EAED"/>
<path d="M106.633 33.9232C90.369 21.6542 95.235 7.03519 106.633 8.8502C118.031 10.6652 133.051 53.8532 106.633 33.9232Z" fill="#B0EAED"/>
<path d="M124.651 28.7081C125.275 37.0681 142.082 25.2071 139.001 16.9911C135.92 8.77511 123.654 15.3371 124.651 28.7081Z" fill="#B0EAED"/>
<path d="M113.36 135.519L91.517 136.788L69.674 135.519C47.831 137.529 37.709 162.172 37.709 162.172C54.843 177.402 91.517 177.085 91.517 177.085C91.517 177.085 128.191 177.402 145.325 162.172C145.325 162.172 135.204 137.529 113.36 135.519Z" fill="#FFE8D3"/>
<path d="M104.234 155.805C117.059 153.566 128.304 148.318 130.31 142.843C130.346 142.745 130.369 142.65 130.402 142.553C125.825 138.966 120.162 136.145 113.36 135.519L91.5171 136.788L69.6741 135.519C62.9061 136.142 57.2671 138.939 52.7021 142.501C52.7401 142.615 52.7681 142.728 52.8101 142.843C54.8121 148.306 66.0101 153.543 78.7971 155.79C79.5771 162.122 84.9781 167.043 91.5171 167.043C98.0511 167.043 103.448 162.129 104.234 155.805Z" fill="#FFE8D3"/>
<path d="M146.048 161.973C143.134 154.977 138.279 148.35 132.583 143.392C128.045 139.441 122.675 136.467 116.744 135.268C112.812 134.473 108.877 135.03 104.901 135.261C97.126 135.713 89.838 135.941 82.08 135.491C78.023 135.255 73.798 134.644 69.732 134.774C64.046 134.954 58.235 137.602 53.668 140.847C46.437 145.985 40.402 153.77 36.985 161.975C36.614 162.865 38.065 163.253 38.431 162.374C41.136 155.878 46.043 149.213 51.51 144.455C56.427 140.175 63.034 136.529 69.702 136.274C73.118 136.143 76.688 136.68 80.098 136.878C86.545 137.253 92.586 137.479 99.015 137.106C109.264 136.511 118.006 135.257 127.187 141.186C134.75 146.069 141.232 154.286 144.601 162.375C144.968 163.25 146.42 162.865 146.048 161.973Z" fill="#702624"/>
<path d="M131.311 148.901C132.719 150.176 133.793 151.697 134.844 153.267C135.031 153.546 135.556 153.379 135.422 153.023C134.716 151.14 133.416 149.609 131.883 148.329C131.489 148.001 130.921 148.547 131.311 148.901Z" fill="#702624"/>
<path d="M131.178 152.611C132.711 154.656 133.796 156.918 134.922 159.2C135.078 159.516 135.538 159.287 135.468 158.97C134.9 156.388 133.489 154.135 131.822 152.115C131.529 151.759 130.898 152.237 131.178 152.611Z" fill="#702624"/>
<path d="M127.841 152.62C128.95 154.122 129.582 155.771 130.26 157.492C130.4 157.847 131.051 157.849 130.997 157.392C130.762 155.412 129.738 153.641 128.513 152.102C128.214 151.725 127.553 152.228 127.841 152.62Z" fill="#702624"/>
<path d="M50.7603 149.879C48.5103 152.289 46.4293 155.107 45.4473 158.289C45.3153 158.717 45.9633 158.998 46.1753 158.596C47.7043 155.7 49.1373 152.914 51.2993 150.418C51.6173 150.051 51.0983 149.517 50.7603 149.879Z" fill="#702624"/>
<path d="M48.8326 156.97C47.7236 159.145 46.7216 161.46 46.3206 163.88C46.2346 164.401 46.9546 164.62 47.1226 164.101C47.8616 161.817 48.5196 159.571 49.5616 157.396C49.7926 156.911 49.0806 156.483 48.8326 156.97Z" fill="#702624"/>
<path d="M52.5747 155.819C51.3307 157.381 50.4547 159.103 50.2187 161.098C50.1647 161.556 50.8787 161.62 51.0017 161.204C51.5157 159.466 52.1937 157.825 53.2927 156.373C53.6027 155.963 52.8987 155.413 52.5747 155.819Z" fill="#702624"/>
<path d="M127.061 134.01H56.0575C56.0575 134.01 53.8145 137.67 55.3665 141.906C57.2485 147.042 73.6975 154.217 91.5595 154.217C109.421 154.217 125.87 147.041 127.752 141.906C129.304 137.67 127.061 134.01 127.061 134.01Z" fill="#B0EAED"/>
<path d="M127.062 133.26C103.394 133.26 79.7258 133.26 56.0578 133.26C55.7968 133.26 55.5398 133.402 55.4098 133.631C45.8098 150.658 82.6828 154.957 91.5598 154.967C100.431 154.977 137.302 150.645 127.71 133.631C127.236 132.79 125.94 133.545 126.415 134.388C135.746 150.938 93.9238 153.892 86.0768 153.246C77.4008 152.532 67.8068 150.513 60.3528 145.78C56.3518 143.239 55.4998 140.926 56.0038 136.079C56.0928 135.226 56.9928 134.348 56.1768 134.759C56.3528 134.671 56.7398 134.795 56.9298 134.759C59.2648 134.314 62.1198 134.759 64.4898 134.759C68.8198 134.759 73.1498 134.759 77.4808 134.759C87.7738 134.759 98.0658 134.759 108.359 134.759C114.594 134.759 120.828 134.759 127.063 134.759C128.028 134.76 128.029 133.26 127.062 133.26Z" fill="#702624"/>
<path opacity="0.5" d="M56.0582 134.01C56.0582 134.01 55.6992 134.604 55.3672 135.581V135.582C57.2492 140.718 73.6982 147.893 91.5602 147.893C109.422 147.893 125.871 140.717 127.753 135.582V135.581C127.422 134.605 127.062 134.011 127.062 134.011L56.0582 134.01Z" fill="#B0EAED"/>
<path d="M98.5759 161.437C102.57 157.541 102.649 151.145 98.7527 147.151C94.8564 143.157 88.4601 143.078 84.4661 146.974C80.4721 150.87 80.393 157.267 84.2893 161.261C88.1856 165.255 94.582 165.334 98.5759 161.437Z" fill="#FFC42F"/>
<path d="M100.869 154.217C100.224 166.188 82.1632 166.301 82.1632 154.217C82.1632 142.133 100.224 142.234 100.869 154.217C100.921 155.177 102.421 155.183 102.369 154.217C102.052 148.325 97.6652 143.364 91.5162 143.364C85.6292 143.364 80.6362 148.311 80.6632 154.217C80.6892 159.924 85.2572 164.755 90.9662 165.04C97.3272 165.358 102.04 160.331 102.369 154.217C102.421 153.252 100.921 153.255 100.869 154.217Z" fill="#702624"/>
<path d="M97.8404 154.217C97.8404 157.71 95.0094 160.541 91.5164 160.541C88.0234 160.541 85.1924 157.709 85.1924 154.217C85.1924 150.724 88.0244 147.893 91.5164 147.893C95.0094 147.892 97.8404 150.724 97.8404 154.217Z" fill="#ED9A55"/>
<path d="M97.0905 154.217C96.7065 161.353 85.9415 161.419 85.9415 154.217C85.9425 147.014 96.7065 147.075 97.0905 154.217C97.1425 155.177 98.6425 155.183 98.5905 154.217C98.3835 150.378 95.5225 147.143 91.5165 147.143C87.6815 147.143 84.4245 150.37 84.4425 154.217C84.4595 157.94 87.4465 161.095 91.1725 161.273C95.3115 161.471 98.3765 158.196 98.5905 154.217C98.6415 153.252 97.1425 153.255 97.0905 154.217Z" fill="#702624"/>
<path d="M125.428 43.262C106.973 30.271 76.0592 30.271 57.6042 43.262C30.0932 62.629 27.4002 100.247 35.5922 116.631C47.8732 141.193 91.5162 141.905 91.5162 141.905C91.5162 141.905 135.159 141.193 147.439 116.631C155.632 100.247 152.939 62.629 125.428 43.262Z" fill="#FFE8D3"/>
<path d="M125.428 43.262C116.813 37.198 105.484 33.967 93.9741 33.564C93.9011 35.406 90.1891 135.827 146.441 118.45C146.791 117.858 147.128 117.254 147.439 116.632C155.632 100.247 152.939 62.629 125.428 43.262Z" fill="#ED9A55"/>
<path d="M128.558 45.648L128.555 45.645C125.631 77.658 136.881 99.351 146.024 111.345C132.134 133.448 91.5158 134.114 91.5158 134.114C91.5158 134.114 50.8988 133.448 37.0078 111.345C46.1508 99.351 57.4008 77.659 54.4768 45.645C54.4708 45.65 54.4658 45.654 54.4608 45.659C53.9418 46.08 53.4258 46.502 52.9268 46.936C52.8258 47.022 52.7258 47.111 52.6248 47.198C29.7958 67.361 27.9248 101.296 35.5928 116.632C47.8738 141.194 91.5168 141.906 91.5168 141.906C91.5168 141.906 135.16 141.194 147.44 116.632C155.309 100.894 153.121 65.575 128.558 45.648Z" fill="#FFE8D3"/>
<path d="M62.3244 81.5C50.6284 81.204 48.4074 95.269 52.4054 101.635C54.4044 104.818 56.9034 107.03 62.3244 107.03C67.5714 107.03 70.2455 104.818 72.2435 101.635C76.2415 95.269 74.0204 81.204 62.3244 81.5Z" fill="white"/>
<path d="M74.2619 90.0701C71.8509 81.9901 62.3219 77.508 54.9879 82.913C49.3219 87.089 48.3769 96.1611 51.7569 102.013C52.2399 102.849 53.5359 102.094 53.0519 101.256C50.3339 96.5511 50.7139 89.4871 54.4679 85.4031C60.4269 78.9211 70.5069 82.735 72.8149 90.468C73.0909 91.392 74.5399 90.9991 74.2619 90.0701Z" fill="#702624"/>
<path d="M65.3687 103.828C69.4551 103.828 72.7677 99.7333 72.7677 94.6821C72.7677 89.6309 69.4551 85.5361 65.3687 85.5361C61.2824 85.5361 57.9697 89.6309 57.9697 94.6821C57.9697 99.7333 61.2824 103.828 65.3687 103.828Z" fill="#702624"/>
<path d="M48.2861 101.315C48.2861 101.315 59.2401 101.18 67.8951 109.429C67.8951 109.429 52.2081 110.916 48.2861 101.315Z" fill="#FFE8D3"/>
<path d="M48.2859 102.065C55.2879 102.045 62.2789 105.334 67.3649 109.96C68.0779 110.608 69.1419 109.551 68.4259 108.899C63.0449 104.006 55.6919 100.545 48.2869 100.565C47.3209 100.567 47.3189 102.067 48.2859 102.065Z" fill="#702624"/>
<path d="M50.9055 115.574C39.6305 112.989 43.2365 105.279 50.9055 107.113C61.5215 109.651 60.1315 117.689 50.9055 115.574Z" fill="#FF8285"/>
<path d="M132.127 115.574C143.402 112.989 139.796 105.279 132.127 107.113C121.511 109.651 122.902 117.689 132.127 115.574Z" fill="#FF8285"/>
<path d="M57.3201 76.5131C59.3001 75.6651 62.0081 75.0671 65.1441 76.1941C67.3881 77.0001 68.6311 75.2031 66.9871 73.9171C65.0941 72.4351 60.3451 71.5751 57.0251 73.2051C53.7051 74.8351 53.9331 75.9481 54.1981 76.5811C54.4641 77.2131 55.4601 77.3101 57.3201 76.5131Z" fill="#702624"/>
<path d="M125.712 76.5131C123.732 75.6651 121.024 75.0671 117.888 76.1941C115.644 77.0001 114.401 75.2031 116.045 73.9171C117.938 72.4351 122.688 71.5751 126.007 73.2051C129.327 74.8351 129.099 75.9481 128.834 76.5811C128.568 77.2131 127.573 77.3101 125.712 76.5131Z" fill="#702624"/>
<path d="M86.8517 121.598C86.8517 121.598 85.7987 131.708 91.5167 131.708C97.2347 131.708 96.2857 121.598 96.2857 121.598C96.2857 121.598 93.4367 121.598 91.5167 119.761C91.5167 119.761 90.2567 121.593 86.8517 121.598Z" fill="#FF8285"/>
<path d="M103.391 100.815C101.244 95.2 81.7896 95.2 79.6426 100.815C77.4956 106.43 91.5166 112.955 91.5166 112.955C91.5166 112.955 105.538 106.431 103.391 100.815Z" fill="#702624"/>
<g opacity="0.5">
<path d="M82.3754 101.391C87.5134 97.7359 94.3894 99.0189 100.075 100.119C100.407 100.183 100.657 99.7159 100.319 99.5409C94.9984 96.7759 86.8584 97.2169 82.2974 101.29C82.2434 101.338 82.3154 101.434 82.3754 101.391Z" fill="white"/>
</g>
<path d="M90.7666 112.955C90.7666 118.515 90.7666 124.076 90.7666 129.636C90.7666 130.601 92.2666 130.603 92.2666 129.636C92.2666 124.075 92.2666 118.515 92.2666 112.955C92.2666 111.99 90.7666 111.988 90.7666 112.955Z" fill="#702624"/>
<path d="M90.9863 119.23C86.7993 123.496 80.5743 118.647 79.5913 113.923C79.3943 112.979 77.9483 113.378 78.1453 114.322C79.3613 120.166 87.0573 125.376 92.0473 120.291C92.7233 119.601 91.6633 118.54 90.9863 119.23Z" fill="#702624"/>
<path d="M90.9859 120.291C95.9769 125.376 103.672 120.165 104.888 114.322C105.084 113.38 103.639 112.977 103.442 113.923C102.459 118.645 96.2339 123.497 92.0469 119.23C91.3689 118.54 90.3089 119.601 90.9859 120.291Z" fill="#702624"/>
<path d="M120.43 81.5C132.126 81.204 134.347 95.269 130.349 101.635C128.35 104.818 125.851 107.03 120.43 107.03C115.183 107.03 112.509 104.818 110.511 101.635C106.513 95.269 108.734 81.204 120.43 81.5Z" fill="white"/>
<path d="M109.939 90.469C112.251 82.719 122.332 78.93 128.286 85.404C132.039 89.485 132.419 96.554 129.703 101.257C129.219 102.094 130.515 102.851 130.998 102.014C134.378 96.162 133.432 87.089 127.767 82.914C120.438 77.512 110.903 81.993 108.493 90.071C108.216 90.997 109.663 91.393 109.939 90.469Z" fill="#702624"/>
<path d="M117.386 103.828C121.473 103.828 124.785 99.7333 124.785 94.6821C124.785 89.6309 121.473 85.5361 117.386 85.5361C113.3 85.5361 109.987 89.6309 109.987 94.6821C109.987 99.7333 113.3 103.828 117.386 103.828Z" fill="#702624"/>
<path d="M134.747 101.315C134.747 101.315 123.793 101.18 115.138 109.429C115.138 109.429 130.825 110.916 134.747 101.315Z" fill="#ED9A55"/>
<path d="M134.747 100.565C127.342 100.544 119.988 104.006 114.608 108.899C113.892 109.55 114.955 110.608 115.669 109.96C120.757 105.333 127.745 102.046 134.748 102.065C135.713 102.067 135.714 100.567 134.747 100.565Z" fill="#702624"/>
<path d="M57.6047 43.2621C61.5077 40.5151 65.9717 38.3551 70.7537 36.7691L70.7587 36.7641C70.7587 36.7641 60.9847 30.0141 42.7617 25.7271V58.4961C46.5817 52.8041 51.4737 47.5781 57.6047 43.2621Z" fill="#ED9A55"/>
<path d="M45.0365 26.5461C55.3595 32.4691 52.9845 58.2481 48.8305 74.7021C43.1075 97.3701 31.7315 119.227 19.0395 114.122C6.3475 109.016 12.0585 60.9981 19.0395 44.9211C26.0205 28.8441 38.8965 23.0231 45.0365 26.5461Z" fill="#ED9A55"/>
<path d="M15.1917 86.272C15.5787 67.239 19.2237 37.79 40.1947 30.718C40.5587 30.595 40.4067 30.0971 40.0387 30.1531C30.3487 31.6381 24.4347 40.843 21.1647 49.285C16.6257 61.003 14.7397 73.749 15.0167 86.272C15.0177 86.384 15.1887 86.385 15.1917 86.272Z" fill="#FFE8D3"/>
<path opacity="0.5" d="M52.1096 42.165C52.5146 61.452 37.4966 100.554 24.2746 102.428C18.9156 103.187 14.6706 97.284 11.5156 89.99C11.5646 101.966 13.6286 111.945 19.0396 114.122C31.7316 119.228 43.1076 97.37 48.8306 74.702C51.2546 65.098 53.0686 52.321 52.1096 42.165Z" fill="#ED9A55"/>
<path d="M125.428 43.2621C121.525 40.5151 117.061 38.3551 112.279 36.7691L112.274 36.7641C112.274 36.7641 122.049 30.0141 140.271 25.7271V58.4961C136.451 52.8041 131.56 47.5781 125.428 43.2621Z" fill="#FFE8D3"/>
<path d="M137.997 26.546C127.674 32.469 130.049 58.248 134.203 74.702C139.926 97.37 151.302 119.227 163.994 114.122C176.686 109.016 170.975 60.998 163.994 44.921C157.013 28.845 144.136 23.023 137.997 26.546Z" fill="#FFE8D3"/>
<path d="M168.018 86.272C168.295 73.746 166.405 61.007 161.87 49.285C158.602 40.84 152.686 31.6381 142.996 30.1531C142.629 30.0971 142.475 30.595 142.84 30.718C163.81 37.79 167.456 67.239 167.843 86.272C167.844 86.385 168.015 86.385 168.018 86.272Z" fill="white"/>
<path d="M130.924 42.165C130.519 61.452 145.537 100.554 158.759 102.428C164.118 103.187 168.363 97.284 171.518 89.99C171.469 101.966 169.405 111.945 163.994 114.122C151.302 119.228 139.926 97.37 134.204 74.702C131.778 65.098 129.965 52.321 130.924 42.165Z" fill="#FFE8D3"/>
<path d="M130.827 46.5641C109.102 27.9861 73.7693 28.0411 52.0933 46.6651C51.3603 47.2951 52.4253 48.3521 53.1543 47.7261C74.1733 29.6671 108.7 29.6101 129.767 47.6251C130.496 48.2491 131.562 47.1931 130.827 46.5641Z" fill="#702624"/>
<path d="M32.336 109.768C38.447 132.451 63.624 139.968 84.506 142.16C97.743 143.549 111.705 141.092 124.05 136.339C136.573 131.517 146.956 123.368 150.632 110.033C150.889 109.101 149.442 108.703 149.186 109.634C143.063 131.845 117.633 138.882 97.23 140.789C85.726 141.864 73.787 139.745 62.889 136.141C49.426 131.689 37.636 123.671 33.783 109.369C33.531 108.439 32.084 108.834 32.336 109.768Z" fill="#702624"/>
<path d="M51.6229 41.0719C51.6479 57.0279 49.4749 73.1319 43.9089 88.1249C40.8819 96.2779 36.8609 105.803 29.7949 111.313C24.7299 115.263 18.1509 115.02 15.2359 108.964C10.2979 98.7079 11.9859 84.4589 13.2519 73.5699C14.6979 61.1289 16.9229 47.3409 24.3409 36.9109C28.7679 30.6869 35.4649 25.7149 43.4259 26.6209C52.9879 27.7079 62.2139 32.6519 70.3799 37.4129C71.2159 37.8999 71.9709 36.6039 71.1369 36.1179C59.3239 29.2299 42.1749 19.5089 29.3949 29.3839C17.3849 38.6629 14.1889 55.6989 12.2279 69.8409C10.5449 81.9719 8.51692 97.4389 13.6429 109.063C15.5279 113.338 18.9569 116.049 23.8469 115.564C30.4239 114.911 35.1909 108.564 38.3679 103.381C49.5859 85.0779 53.1559 62.2429 53.1229 41.0739C53.1209 40.1069 51.6209 40.1049 51.6229 41.0719Z" fill="#702624"/>
<path d="M129.911 41.072C129.882 60.009 132.906 79.277 141.003 96.51C144.16 103.23 148.7 111.744 156.009 114.734C160.15 116.428 164.95 115.634 167.729 112.011C170.785 108.026 171.49 102.324 171.937 97.485C172.634 89.937 172.233 82.276 171.416 74.755C169.899 60.792 167.465 44.901 158.158 33.773C153.525 28.234 147.004 24.324 139.608 25.12C129.806 26.175 120.255 31.244 111.897 36.117C111.064 36.603 111.818 37.9 112.654 37.412C124.743 30.363 142.019 20.594 154.418 32.001C164.192 40.993 167.097 55.341 169.021 67.914C170.85 79.87 172.427 93.688 169.048 105.523C167.584 110.649 164.54 115.119 158.445 113.936C150.435 112.381 145.406 102.388 142.298 95.753C134.33 78.745 131.382 59.748 131.411 41.072C131.413 40.106 129.913 40.105 129.911 41.072Z" fill="#702624"/>
</svg>
