<svg width="459" height="161" viewBox="0 0 459 161" fill="none" xmlns="http://www.w3.org/2000/svg">
<path d="M75.53 50.482V114H62.79V72.686L45.773 114H36.127L19.019 72.686V114H6.279V50.482H20.748L40.95 97.711L61.152 50.482H75.53ZM136.356 63.586L105.143 137.842H91.5837L102.504 112.726L82.3017 63.586H96.5887L109.602 98.803L122.797 63.586H136.356ZM157.73 131.982C154.508 131.982 151.575 131.209 148.933 129.662C146.354 128.115 144.131 125.988 142.262 123.281C140.457 120.574 139.071 117.416 138.104 113.807C137.202 110.133 136.815 106.233 136.944 102.108C137.073 98.2412 137.557 94.0518 138.395 89.54C139.297 85.0283 140.554 80.5166 142.165 76.0049C143.776 71.4287 145.71 67.0459 147.966 62.8564C150.286 58.6025 152.929 54.8643 155.894 51.6416C158.858 48.4189 162.146 45.8408 165.755 43.9072C169.364 41.9092 173.328 40.9102 177.646 40.9102C180.289 40.9102 182.513 41.458 184.317 42.5537C186.187 43.585 187.669 44.9707 188.765 46.7109C189.925 48.4512 190.73 50.417 191.182 52.6084C191.633 54.7998 191.826 57.0234 191.762 59.2793C191.633 61.4062 191.311 63.4688 190.795 65.4668C190.344 67.4648 189.667 69.2695 188.765 70.8809C187.927 72.4277 186.863 73.6846 185.574 74.6514C184.35 75.5537 182.932 76.0049 181.32 76.0049C180.547 75.9404 179.806 75.6826 179.097 75.2314C178.452 74.8447 177.775 74.2646 177.066 73.4912C176.422 72.7178 175.81 71.5898 175.229 70.1074C176.97 69.3984 178.323 68.1738 179.29 66.4336C180.321 64.6289 181.095 62.7598 181.61 60.8262C182.19 58.6348 182.577 56.1855 182.771 53.4785C182.899 50.8359 182.352 48.9023 181.127 47.6777C179.902 46.4531 178.517 45.8408 176.97 45.8408C173.94 45.8408 170.75 47.4199 167.398 50.5781C164.047 53.7363 160.921 58.0225 158.021 63.4365C155.185 68.7861 152.768 75.0381 150.77 82.1924C148.836 89.3467 147.708 96.9199 147.386 104.912C147.257 108.521 147.482 111.583 148.062 114.097C148.707 116.61 149.577 118.673 150.673 120.284C151.833 121.896 153.122 123.056 154.54 123.765C155.958 124.474 157.376 124.828 158.794 124.828C161.05 124.828 163.177 124.345 165.175 123.378C167.173 122.411 168.978 121.219 170.589 119.801C172.265 118.383 173.683 116.9 174.843 115.354C176.067 113.871 177.002 112.55 177.646 111.39C178.098 110.552 178.581 110.036 179.097 109.843C179.612 109.649 180.063 109.714 180.45 110.036C180.837 110.294 181.095 110.745 181.224 111.39C181.353 111.97 181.224 112.679 180.837 113.517C179.741 115.708 178.388 117.899 176.776 120.091C175.229 122.282 173.457 124.248 171.459 125.988C169.525 127.793 167.398 129.243 165.078 130.339C162.758 131.435 160.309 131.982 157.73 131.982ZM187.604 113.517C187.153 114.226 186.67 114.677 186.154 114.87C185.574 115.128 185.091 115.16 184.704 114.967C184.253 114.838 183.963 114.516 183.834 114C183.705 113.484 183.834 112.84 184.221 112.066C184.414 111.68 184.865 110.81 185.574 109.456C186.219 108.103 187.024 106.491 187.991 104.622C188.894 102.688 189.893 100.626 190.988 98.4346C192.084 96.1787 193.115 94.0518 194.082 92.0537C195.113 90.0557 196.048 88.2832 196.886 86.7363C197.724 85.125 198.336 83.9648 198.723 83.2559C198.014 82.6113 197.53 82.1602 197.272 81.9023C197.015 81.5801 196.821 80.9355 196.692 79.9688C196.563 79.1309 196.757 78.0352 197.272 76.6816C197.788 75.3281 198.465 74.0391 199.303 72.8145C200.141 71.5254 201.075 70.4297 202.106 69.5273C203.138 68.625 204.137 68.1738 205.104 68.1738C206.908 68.1738 208.165 68.7539 208.874 69.9141C209.647 71.0742 210.099 72.2666 210.228 73.4912C210.356 74.3291 210.292 75.3926 210.034 76.6816C209.776 77.9707 209.293 79.1309 208.584 80.1621C208.777 80.291 209.035 80.4521 209.357 80.6455C209.68 80.7744 210.195 80.8389 210.904 80.8389C211.936 80.8389 212.645 80.7744 213.031 80.6455C213.482 80.5166 214.159 80.4521 215.062 80.4521C216.157 80.4521 217.06 80.7422 217.769 81.3223C218.478 81.8379 219.058 82.5146 219.509 83.3525C219.96 84.126 220.282 84.9961 220.476 85.9629C220.733 86.8652 220.895 87.7031 220.959 88.4766C221.152 90.0879 220.733 91.7637 219.702 93.5039C218.671 95.2441 217.414 97.1455 215.932 99.208C215.029 100.497 214.127 101.947 213.225 103.559C212.322 105.17 211.936 106.62 212.064 107.909C212.193 108.747 212.419 109.424 212.741 109.939C213.063 110.455 213.966 110.713 215.448 110.713C216.544 110.713 217.736 110.326 219.025 109.553C220.379 108.715 221.732 107.684 223.086 106.459C224.504 105.17 225.89 103.784 227.243 102.302C228.597 100.755 229.854 99.2725 231.014 97.8545C232.174 96.3721 233.141 95.0508 233.914 93.8906C234.752 92.7305 235.364 91.8926 235.751 91.377C236.073 90.8613 236.492 90.5068 237.008 90.3135C237.523 90.1201 237.975 90.1201 238.361 90.3135C238.748 90.5068 238.974 90.8936 239.038 91.4736C239.167 92.0537 238.941 92.8271 238.361 93.7939C237.975 94.4385 237.298 95.4697 236.331 96.8877C235.429 98.3057 234.301 99.8848 232.947 101.625C231.658 103.365 230.208 105.17 228.597 107.039C226.985 108.844 225.277 110.52 223.473 112.066C221.732 113.549 219.96 114.773 218.155 115.74C216.415 116.707 214.739 117.19 213.128 117.19C211.452 117.19 210.066 116.868 208.971 116.224C207.875 115.579 206.973 114.806 206.264 113.903C205.619 112.937 205.136 111.905 204.813 110.81C204.556 109.649 204.459 108.586 204.523 107.619C204.588 106.846 204.781 106.04 205.104 105.202C205.49 104.3 205.909 103.397 206.36 102.495C206.876 101.528 207.392 100.594 207.907 99.6914C208.487 98.7246 209.003 97.79 209.454 96.8877C210.55 95.0186 211.42 93.4395 212.064 92.1504C212.773 90.7969 213.128 89.6689 213.128 88.7666C213.128 88.1865 212.999 87.6709 212.741 87.2197C212.483 86.7686 212.064 86.543 211.484 86.543C211.098 86.543 210.808 86.5752 210.614 86.6396C210.485 86.6396 210.324 86.6396 210.131 86.6396C210.002 86.6396 209.776 86.6719 209.454 86.7363C209.196 86.7363 208.777 86.7363 208.197 86.7363C207.359 86.7363 206.65 86.6074 206.07 86.3496C205.49 86.0918 204.942 85.8984 204.427 85.7695C204.169 86.2207 203.589 87.1875 202.687 88.6699C201.784 90.1523 200.721 91.8926 199.496 93.8906C198.336 95.8887 197.079 97.9834 195.726 100.175C194.437 102.366 193.212 104.429 192.052 106.362C190.892 108.231 189.925 109.843 189.151 111.196C188.313 112.485 187.798 113.259 187.604 113.517ZM281.094 94.7607C280.191 96.0498 279.031 97.6611 277.613 99.5947C276.195 101.464 274.713 103.365 273.166 105.299C271.684 107.168 270.201 108.908 268.719 110.52C267.301 112.066 266.108 113.162 265.142 113.807C264.497 114.193 263.756 114.516 262.918 114.773C262.08 115.031 261.21 115.192 260.308 115.257C259.47 115.321 258.664 115.257 257.891 115.063C257.117 114.935 256.44 114.677 255.86 114.29C255.28 113.839 254.797 113.194 254.41 112.356C254.088 111.647 253.766 110.713 253.443 109.553C253.186 108.393 253.089 106.942 253.153 105.202C251.606 107.78 249.898 109.778 248.029 111.196C246.16 112.55 244.388 113.549 242.712 114.193C240.778 114.902 238.845 115.321 236.911 115.45C236.009 115.45 235.042 115.128 234.011 114.483C232.979 113.903 232.109 112.969 231.4 111.68C230.691 110.326 230.24 108.618 230.047 106.556C229.854 104.429 230.111 101.915 230.82 99.0146C231.723 95.083 233.141 91.5059 235.074 88.2832C237.072 85.0605 239.231 82.3213 241.552 80.0654C243.872 77.7451 246.16 76.0049 248.416 74.8447C250.672 73.6846 252.541 73.1689 254.023 73.2979C255.764 73.6201 257.182 74.1357 258.277 74.8447C259.18 75.4893 259.76 76.4561 260.018 77.7451C260.34 78.9697 259.824 80.6133 258.471 82.6758C259.373 82.4824 260.114 82.3535 260.694 82.2891C261.339 82.2246 261.822 82.1924 262.145 82.1924C262.531 82.1924 262.789 82.2246 262.918 82.2891C262.982 82.418 263.015 82.708 263.015 83.1592C263.015 83.5459 262.918 84.2871 262.725 85.3828C262.531 86.4785 262.241 87.9609 261.854 89.8301C261.468 91.6992 260.952 94.1162 260.308 97.0811C260.179 97.6611 260.05 98.209 259.921 98.7246C259.856 99.1758 259.76 99.6592 259.631 100.175C259.566 100.626 259.47 101.174 259.341 101.818C259.212 102.463 259.051 103.269 258.857 104.235C258.793 104.815 258.761 105.46 258.761 106.169C258.825 106.813 258.954 107.426 259.147 108.006C259.341 108.586 259.631 109.069 260.018 109.456C260.469 109.778 261.081 109.939 261.854 109.939C262.499 109.939 263.337 109.553 264.368 108.779C265.399 107.941 266.495 106.91 267.655 105.686C268.815 104.396 270.008 103.011 271.232 101.528C272.521 99.9814 273.714 98.499 274.81 97.0811C275.905 95.6631 276.872 94.4062 277.71 93.3105C278.612 92.2148 279.257 91.4092 279.644 90.8936C280.159 90.3135 280.675 89.9912 281.19 89.9268C281.706 89.7979 282.093 89.9268 282.351 90.3135C282.608 90.7002 282.641 91.2803 282.447 92.0537C282.318 92.8271 281.867 93.7295 281.094 94.7607ZM252.767 99.0146C253.089 97.7256 253.476 96.2109 253.927 94.4707C254.378 92.7305 254.765 91.0547 255.087 89.4434C255.409 87.832 255.635 86.5107 255.764 85.4795C255.957 84.3838 255.925 83.8682 255.667 83.9326C255.345 83.9971 254.99 84.0938 254.604 84.2227C254.281 84.3516 253.862 84.4482 253.347 84.5127C252.831 84.5771 252.315 84.6738 251.8 84.8027C252.315 83.7715 252.605 82.9336 252.67 82.2891C252.799 81.5801 252.831 81.0322 252.767 80.6455C252.702 80.1943 252.573 79.8398 252.38 79.582C251.671 79.002 250.414 79.4854 248.609 81.0322C246.869 82.5146 244.839 85.2861 242.519 89.3467C241.552 91.0225 240.778 92.8271 240.198 94.7607C239.618 96.6299 239.199 98.4023 238.941 100.078C238.748 101.754 238.716 103.236 238.845 104.525C238.974 105.75 239.231 106.556 239.618 106.942C240.327 107.651 241.133 108.006 242.035 108.006C242.938 107.941 243.84 107.684 244.742 107.232C245.709 106.717 246.644 106.072 247.546 105.299C248.513 104.525 249.351 103.72 250.06 102.882C250.833 102.044 251.445 101.271 251.896 100.562C252.412 99.8525 252.702 99.3369 252.767 99.0146ZM276.55 103.945C275.841 103.236 275.325 102.56 275.003 101.915C274.745 101.206 274.552 100.529 274.423 99.8848C274.294 99.1758 274.294 98.4668 274.423 97.7578C274.681 96.8555 275.067 96.0176 275.583 95.2441C276.034 94.5352 276.646 93.8262 277.42 93.1172C278.193 92.3438 279.225 91.6348 280.514 90.9902C281.352 88.9277 282.093 86.7686 282.737 84.5127C283.446 82.1924 284.059 80.0977 284.574 78.2285C285.154 76.0371 285.67 73.8457 286.121 71.6543C287.732 66.1758 288.57 61.7285 288.635 58.3125C288.699 54.832 288.635 52.5439 288.441 51.4482C288.377 50.9971 288.312 50.5459 288.248 50.0947C288.119 49.708 287.99 49.2891 287.861 48.8379C287.797 48.3223 287.7 47.8389 287.571 47.3877C288.28 47.001 288.893 46.6787 289.408 46.4209C289.988 46.1631 290.472 45.9697 290.858 45.8408C291.31 45.6475 291.729 45.5186 292.115 45.4541C293.598 45.1318 294.983 44.9707 296.272 44.9707C297.626 44.9063 298.367 45.1318 298.496 45.6475C298.561 45.9697 298.625 46.5498 298.689 47.3877C298.818 48.2256 298.883 49.2568 298.883 50.4814C298.883 51.7061 298.786 53.0918 298.593 54.6387C298.399 56.1211 298.045 57.7002 297.529 59.376C297.078 60.8584 296.466 62.9209 295.692 65.5635C294.983 67.8193 294.049 70.8486 292.889 74.6514C291.729 78.3896 290.214 83.1914 288.345 89.0566C290.278 88.4121 292.405 87.7998 294.726 87.2197C297.046 86.6396 299.398 86.1562 301.783 85.7695C304.232 85.3828 306.649 85.0928 309.034 84.8994C311.483 84.7061 313.739 84.6738 315.802 84.8027C316.188 84.8027 316.446 84.9961 316.575 85.3828C316.769 85.7051 316.769 86.0596 316.575 86.4463C316.446 86.833 316.092 87.2197 315.512 87.6064C314.996 87.9287 314.223 88.1221 313.191 88.1865C311.902 88.3154 310.484 88.4766 308.938 88.6699C307.391 88.7988 305.779 89.0244 304.104 89.3467C302.492 89.6045 300.881 89.959 299.27 90.4102C297.658 90.7969 296.144 91.2803 294.726 91.8604C293.63 92.2471 292.534 92.6338 291.438 93.0205C290.536 93.3428 289.569 93.7295 288.538 94.1807C287.571 94.5674 286.766 94.9219 286.121 95.2441L283.897 102.302C287.636 104.944 290.504 107.651 292.502 110.423C294.564 113.194 296.047 115.74 296.949 118.061C298.045 120.768 298.657 123.41 298.786 125.988C298.786 128.824 298.367 131.66 297.529 134.496C296.691 137.396 295.563 140.136 294.146 142.714C292.792 145.356 291.181 147.806 289.312 150.062C287.507 152.317 285.573 154.251 283.511 155.862C281.513 157.474 279.45 158.698 277.323 159.536C275.261 160.374 273.295 160.696 271.426 160.503C270.072 160.374 268.944 159.923 268.042 159.149C267.14 158.44 266.463 157.506 266.012 156.346C265.561 155.25 265.303 153.993 265.238 152.575C265.174 151.222 265.303 149.868 265.625 148.515C265.883 147.161 266.431 144.647 267.269 140.974C267.978 137.88 269.073 133.368 270.556 127.438C272.038 121.573 274.036 113.742 276.55 103.945ZM282.254 108.489C281.352 111.712 280.546 114.677 279.837 117.384C279.192 120.091 278.645 122.476 278.193 124.538C277.613 126.923 277.162 129.082 276.84 131.016C276.26 133.465 275.647 135.882 275.003 138.267C274.423 140.651 273.972 142.778 273.649 144.647C273.263 146.581 273.102 148.128 273.166 149.288C273.23 150.448 273.649 151.028 274.423 151.028C276.292 151.157 278.226 150.416 280.224 148.805C282.286 147.258 284.155 145.26 285.831 142.811C287.507 140.426 288.893 137.815 289.988 134.979C291.084 132.208 291.632 129.63 291.632 127.245C291.632 124.603 291.213 121.992 290.375 119.414C289.795 118.061 289.118 116.739 288.345 115.45C287.636 114.354 286.766 113.194 285.734 111.97C284.768 110.681 283.607 109.521 282.254 108.489ZM342.485 89.54C342.743 89.1533 343.065 88.9277 343.452 88.8633C343.903 88.7344 344.258 88.7666 344.516 88.96C344.773 89.1533 344.902 89.4756 344.902 89.9268C344.967 90.3779 344.806 90.9902 344.419 91.7637C343.13 94.2129 341.422 96.8555 339.295 99.6914C337.232 102.527 335.041 105.202 332.721 107.716C330.4 110.165 328.145 112.195 325.953 113.807C323.762 115.418 321.925 116.224 320.442 116.224C318.315 116.224 316.543 115.805 315.125 114.967C313.707 114.129 312.579 113.098 311.741 111.873C310.968 110.648 310.42 109.327 310.098 107.909C309.775 106.427 309.679 105.073 309.808 103.849C309.872 102.817 310.098 100.98 310.484 98.3379C310.871 95.6309 311.387 92.5371 312.031 89.0566C312.676 85.5117 313.385 81.7412 314.158 77.7451C314.996 73.6846 315.866 69.7852 316.769 66.0469C315.673 66.1758 314.577 66.3047 313.481 66.4336C312.386 66.5625 311.387 66.627 310.484 66.627C308.422 66.627 306.488 66.4014 304.684 65.9502C302.814 65.4346 301.429 64.9512 300.526 64.5C300.011 64.2422 299.785 63.8877 299.85 63.4365C299.914 62.9209 300.107 62.4375 300.43 61.9863C300.752 61.4707 301.171 61.0518 301.687 60.7295C302.138 60.3428 302.557 60.1494 302.943 60.1494C304.168 60.2783 305.489 60.4072 306.907 60.5361C308.325 60.6006 309.872 60.6006 311.548 60.5361C312.772 60.4717 313.933 60.375 315.028 60.2461C316.188 60.1172 317.316 59.9561 318.412 59.7627C319.25 56.6689 320.056 53.9941 320.829 51.7383C321.667 49.418 322.408 47.8066 323.053 46.9043C323.246 46.582 323.665 46.3242 324.31 46.1309C325.019 45.873 325.76 45.7119 326.533 45.6475C327.307 45.5186 328.048 45.5186 328.757 45.6475C329.466 45.7119 329.981 45.9375 330.304 46.3242C330.626 46.8398 330.755 48.1611 330.69 50.2881C330.626 52.415 330.271 55.1221 329.627 58.4092C332.334 58.4092 334.719 58.5703 336.781 58.8926C338.908 59.1504 340.713 59.4727 342.195 59.8594C343.678 60.1816 344.87 60.5361 345.772 60.9229C346.675 61.2451 347.352 61.4707 347.803 61.5996C348.254 61.7285 348.479 62.0508 348.479 62.5664C348.544 63.082 348.447 63.6299 348.189 64.21C347.996 64.7256 347.642 65.1768 347.126 65.5635C346.61 65.9502 346.03 66.0791 345.386 65.9502C344.741 65.8857 344 65.7568 343.162 65.5635C342.389 65.3701 341.422 65.209 340.262 65.0801C339.166 64.9512 337.845 64.8223 336.298 64.6934C334.751 64.5645 332.946 64.5 330.884 64.5C330.497 64.5 330.046 64.5322 329.53 64.5967C329.079 64.5967 328.596 64.5967 328.08 64.5967C327.822 65.6279 327.564 66.6592 327.307 67.6904C327.113 68.6572 326.823 69.6885 326.437 70.7842C325.599 73.3623 324.632 76.166 323.536 79.1953C322.569 81.8379 321.409 84.8672 320.056 88.2832C318.702 91.6992 317.188 95.3408 315.512 99.208C315.125 101.979 315.157 104.106 315.608 105.589C316.124 107.007 316.736 108.038 317.445 108.683C318.283 109.392 319.314 109.778 320.539 109.843C321.506 109.972 322.666 109.649 324.02 108.876C325.438 108.038 326.888 106.942 328.37 105.589C329.853 104.235 331.335 102.753 332.817 101.142C334.364 99.5303 335.782 97.9512 337.071 96.4043C338.36 94.8574 339.488 93.4717 340.455 92.2471C341.422 90.958 342.099 90.0557 342.485 89.54ZM409.477 100.833H381.955L377.401 114H362.848L387.697 44.799H403.834L428.683 114H414.031L409.477 100.833ZM405.715 89.745L395.716 60.837L385.717 89.745H405.715ZM451.832 44.898V114H437.972V44.898H451.832Z" fill="white"/>
<path d="M267.8 28.349H266.75V24.149C266.746 20.0916 263.458 16.8036 259.4 16.799H241.55V10.3939C244.191 9.85484 245.994 7.40387 245.723 4.7223C245.453 2.04074 243.195 0 240.5 0C237.805 0 235.548 2.04086 235.277 4.7223C235.006 7.40387 236.809 9.85484 239.45 10.3939V16.7989H221.6C217.543 16.8036 214.255 20.0915 214.25 24.1489V28.3488H213.2C210.88 28.3489 209 30.2294 209 32.5489V38.8489C209 41.1685 210.88 43.0489 213.2 43.0489H214.25V47.2489C214.255 51.3062 217.543 54.5943 221.6 54.5988V61.9488C221.6 62.3362 221.813 62.692 222.155 62.8747C222.496 63.0575 222.91 63.0373 223.233 62.8223L235.308 54.7741C235.479 54.6604 235.68 54.5993 235.885 54.5987H259.4C263.457 54.594 266.746 51.3061 266.75 47.2487V43.0488H267.8C270.12 43.0488 272 41.1684 272 38.8488V32.5488C272 30.2294 270.12 28.349 267.8 28.349ZM237.35 5.24894C237.35 3.5093 238.76 2.09894 240.5 2.09894C242.24 2.09894 243.65 3.5093 243.65 5.24894C243.65 6.98858 242.24 8.39895 240.5 8.39895C238.76 8.39895 237.35 6.98858 237.35 5.24894ZM213.2 40.949C212.04 40.949 211.1 40.0088 211.1 38.8489V32.5489C211.1 31.3891 212.04 30.4489 213.2 30.4489H214.25V40.9489H213.2V40.949ZM264.65 47.249C264.647 50.147 262.298 52.4955 259.4 52.499H235.885C235.264 52.4968 234.656 52.6795 234.138 53.0241L223.7 59.9867V54.5991C223.7 53.4392 222.76 52.499 221.6 52.499C218.702 52.4956 216.354 50.1471 216.35 47.249V24.149C216.353 21.251 218.702 18.9025 221.6 18.8989H259.4C262.298 18.9024 264.647 21.2509 264.65 24.149V47.249ZM269.9 38.8489C269.9 40.0088 268.96 40.949 267.8 40.949H266.75V30.449H267.8C268.96 30.449 269.9 31.3892 269.9 32.549V38.8489Z" fill="white"/>
<path d="M227.9 27.299C225.001 27.299 222.65 29.6495 222.65 32.549C222.65 35.4485 225.001 37.7991 227.9 37.7991C230.8 37.7991 233.15 35.4485 233.15 32.549C233.147 29.6509 230.798 27.3024 227.9 27.299ZM227.9 35.6989C226.161 35.6989 224.75 34.2885 224.75 32.5489C224.75 30.8092 226.161 29.3989 227.9 29.3989C229.64 29.3989 231.05 30.8092 231.05 32.5489C231.05 34.2885 229.64 35.6989 227.9 35.6989Z" fill="white"/>
<path d="M253.1 27.299C250.2 27.299 247.85 29.6495 247.85 32.549C247.85 35.4485 250.2 37.7991 253.1 37.7991C255.999 37.7991 258.35 35.4485 258.35 32.549C258.346 29.6509 255.998 27.3024 253.1 27.299ZM253.1 35.6989C251.36 35.6989 249.95 34.2885 249.95 32.5489C249.95 30.8092 251.36 29.3989 253.1 29.3989C254.839 29.3989 256.25 30.8092 256.25 32.5489C256.25 34.2885 254.839 35.6989 253.1 35.6989Z" fill="white"/>
<path d="M246.318 40.0764C245.833 39.7677 245.191 39.9013 244.87 40.3778C244.826 40.444 243.736 41.9989 240.501 41.9989C237.294 41.9989 236.196 40.4701 236.133 40.3799C235.817 39.9029 235.177 39.7666 234.694 40.0734C234.211 40.38 234.063 41.0169 234.36 41.5055C234.426 41.6105 236.033 44.099 240.501 44.099C244.968 44.099 246.575 41.6116 246.641 41.5055C246.942 41.0208 246.798 40.3839 246.318 40.0764Z" fill="white"/>
</svg>
