<svg width="153" height="166" viewBox="0 0 153 166" fill="none" xmlns="http://www.w3.org/2000/svg">
<path d="M121.382 89.0376C121.381 89.0349 121.381 89.0323 121.38 89.0296C121.372 89.0216 121.37 89.0136 121.362 89.0069L121.382 89.0376Z" fill="#372F2F"/>
<path d="M22.1795 130.558C22.4415 130.831 22.8962 130.527 23.1337 130.875C23.8769 131.238 24.5055 131.828 25.3503 131.987C25.6858 132.206 26.1274 131.995 26.4519 132.259C27.0217 132.514 27.5921 132.768 28.1623 133.024C28.5045 133.267 28.9566 133.064 29.2993 133.306C29.6457 133.76 30.2091 133.447 30.6181 133.679C31.0321 134.078 31.6421 133.66 32.0639 134.026C32.4014 134.136 32.7383 134.248 33.0758 134.359C33.6295 134.83 34.3639 134.347 34.9383 134.711L35.0826 134.69L35.2019 134.774C35.5686 135.019 36.0274 134.863 36.4077 135.05C36.605 134.971 36.7899 134.99 36.9602 135.122C37.6087 135.442 39.1118 134.924 38.3935 136.584C37.667 137.88 37.3087 139.304 36.9487 140.727C36.6602 141.086 36.8405 141.559 36.653 141.943L36.6977 142.04L36.6331 142.126C36.1363 142.8 36.679 143.642 36.2795 144.332C36.3681 144.658 36.3597 144.98 36.2525 145.3C35.9905 145.646 36.0274 145.998 36.2285 146.352C36.2315 146.59 36.2342 146.826 36.2373 147.063C36.0102 147.412 36.0123 147.763 36.2363 148.114C36.3186 148.192 36.3331 148.282 36.2801 148.382C36.6697 149.196 36.1727 150.119 36.5915 150.93C36.7706 152.348 37.3509 153.65 37.7514 155.004C38.6998 158.211 41.1113 160.275 43.4306 162.314C45.4181 164.06 47.9774 164.872 50.679 165.006C51.2607 165.294 51.8473 165.255 52.4358 165.028C54.8071 164.508 57.0143 163.467 59.3577 162.856C59.7175 162.631 60.1951 162.854 60.5331 162.546C61.2571 162.076 62.0129 161.71 62.9134 161.814C63.3691 161.543 63.8941 161.751 64.3675 161.604C64.5774 161.439 64.7867 161.275 64.9967 161.11C65.2129 160.843 65.3525 160.556 65.4373 160.254C65.079 159.935 65.4982 159.36 65.1134 159.05C63.8181 157.928 62.3421 158.027 60.8254 158.418C59.0102 158.886 57.3258 159.71 55.5722 160.343C53.9347 160.934 52.2842 161.514 50.4806 161.491C49.5706 161.48 48.7055 161.335 47.9389 160.936C44.2055 158.995 41.4899 156.156 40.2941 152.022C39.8977 150.651 39.9217 149.236 39.891 147.843C39.8186 144.579 40.1462 141.346 40.9967 138.179C41.0269 138.066 41.031 137.946 41.067 137.835C41.2973 137.136 40.6473 136.016 41.431 135.764C42.3102 135.483 43.3853 135.807 44.3738 135.883C44.7337 135.91 44.7853 136.247 44.917 136.498C47.1493 140.719 49.555 144.842 52.0473 148.914C52.4087 149.504 52.8353 149.995 52.6686 150.818C52.5451 151.426 52.9815 151.918 53.7055 151.939C54.0555 151.95 54.4154 151.979 54.7566 151.919C57.8061 151.383 60.855 150.846 63.8987 150.278C65.7686 149.928 67.631 149.806 69.4815 150.336C71.2758 150.85 71.8331 151.883 71.4514 153.766C71.1697 155.158 71.1519 156.519 72.2405 157.643C73.1238 157.7 73.9867 157.695 74.6055 156.908C75.7227 153.456 75.0785 150.416 72.4826 147.834C70.7801 146.967 69.003 146.466 67.0686 146.711C66.8367 146.74 66.5815 146.682 66.3691 146.756C63.1967 147.871 59.7249 147.038 56.5697 148.27C56.1675 148.427 55.853 148.351 55.5597 147.891C53.2039 144.198 51.2801 140.243 48.7749 136.64C48.7191 136.56 48.7525 136.419 48.7353 136.175C50.0993 136.043 51.4686 135.836 52.8421 135.803C53.7222 135.782 54.5941 135.807 55.4566 135.602C56.1143 135.444 56.5217 135.562 56.729 136.343C57.4577 139.087 58.8629 141.531 60.3201 143.935C61.4399 145.782 62.8446 146.296 64.9519 145.883C68.5326 145.18 71.8129 143.548 75.3159 142.592C78.0697 141.842 80.7946 140.975 83.4217 139.808C84.8717 139.164 86.2243 138.364 87.6107 137.619C88.8003 136.979 89.0894 135.872 88.9691 134.614C88.8285 133.142 88.4222 131.735 87.8665 130.374C87.6435 129.828 87.5977 129.363 88.0769 128.946C88.2082 128.83 88.3493 128.582 88.4509 128.598C90.2607 128.91 91.5821 127.6 93.1691 127.178C93.9467 126.97 94.2894 127.1 94.3254 127.886C94.5487 132.746 100.756 137.182 105.401 136.892C108.828 136.679 112.147 136.27 115.337 135.011C117.038 134.339 118.535 133.31 119.979 132.2C120.119 132.094 120.252 131.975 120.407 131.894C121.364 131.388 122.2 130.106 123.231 130.427C124.654 130.872 125.748 132.075 126.551 133.403C127.767 135.42 128.571 137.616 129.272 139.852C129.36 140.131 129.411 140.424 129.52 140.694C130.159 142.274 130.174 142.287 128.847 143.219C125.967 145.243 123.352 147.599 120.586 149.764C119.95 150.262 119.348 150.815 118.435 151.01C117.995 149.556 117.492 148.196 117.269 146.754C117.196 146.286 117.081 145.834 116.742 145.475C116.013 144.704 114.747 144.823 114.176 145.716C113.809 146.291 113.695 146.967 113.86 147.576C114.516 149.991 114.973 152.464 116.301 154.671C117.228 156.21 118.428 157.278 120.139 157.787C120.407 157.867 120.707 157.91 120.836 158.343C120.232 158.795 119.458 158.88 118.752 159.08C116.969 159.587 115.072 159.654 113.419 160.69C112.731 161.122 111.802 160.662 110.995 160.823C106.66 161.686 102.257 161.572 97.8738 161.738C93.6415 161.898 89.4738 161.208 85.2889 160.73C82.1534 160.372 79.041 159.798 75.8654 159.792C74.7602 159.791 73.6555 159.555 72.5503 159.426L72.5399 159.436C72.2925 159.891 71.9066 159.763 71.531 159.675C71.2915 159.836 71.0525 159.995 70.8134 160.155C70.7003 160.182 70.6315 160.294 70.5353 160.352C70.5758 160.73 70.4987 161.122 70.6867 161.478C71.1315 162.65 72.1071 162.884 73.2045 162.906C73.6383 163.26 74.2181 162.908 74.6634 163.207L74.6217 163.184C75.7539 163.779 77.0285 163.115 78.1749 163.584L78.3405 163.57L78.4899 163.642C79.5097 164.038 80.6254 163.483 81.6367 163.96L81.6462 163.962C82.0774 164.315 82.6607 163.956 83.0993 164.272L83.0654 164.256C83.881 164.779 84.8399 164.248 85.6779 164.612C86.1134 164.488 86.5326 164.551 86.943 164.72C87.6467 165.011 88.429 164.634 89.1258 164.98C89.4649 164.87 89.7899 164.924 90.1066 165.067C90.9363 165.378 91.8383 164.976 92.6639 165.327C92.9883 165.243 93.3087 165.239 93.6197 165.383C98.3227 165.834 103.003 165.403 107.686 165.032L107.817 164.955L107.967 164.983C108.776 164.574 109.716 165.124 110.513 164.631L110.62 164.57L110.733 164.616C111.44 164.264 112.273 164.738 112.964 164.276L112.943 164.286C113.349 163.92 113.977 164.37 114.356 163.907C114.348 163.911 114.338 163.912 114.33 163.916L114.366 163.898C114.363 163.902 114.36 163.903 114.356 163.907C115.37 163.451 116.497 163.54 117.544 163.248C117.951 162.867 118.546 163.272 118.956 162.907L118.964 162.903C119.327 162.468 120.019 163.019 120.335 162.444C120.476 162.151 120.744 162.167 121.007 162.172C121.328 161.895 121.803 162.154 122.118 161.852C122.348 161.724 122.512 161.47 122.818 161.487C123.227 161.116 123.795 161.483 124.22 161.188C125.61 160.75 127.055 160.47 128.318 159.686C128.839 159.494 129.326 159.219 129.858 159.055C130.523 158.859 131.195 158.872 131.87 158.991C132.812 158.607 133.846 159.103 134.786 158.691C135.468 158.547 136.1 158.143 136.839 158.3C137.523 157.919 138.319 158.366 139.006 158.003L139.139 157.92L139.295 157.946C139.626 157.69 140.076 157.904 140.412 157.662C140.755 157.526 141.096 157.388 141.439 157.252C141.748 156.958 142.228 157.228 142.534 156.922L142.54 156.919C142.819 156.588 143.282 156.867 143.58 156.603C144.48 155.851 145.41 155.183 146.688 155.482C147.131 155.155 147.722 155.516 148.16 155.17C150.03 153.971 151.794 152.666 152.771 150.572C152.995 149.994 152.976 149.412 152.783 148.83C151.243 145.746 148.691 143.97 145.415 143.123C145.14 143.052 144.891 142.888 144.63 142.767C144.275 142.578 143.843 142.742 143.495 142.519C143.279 142.576 143.067 142.582 142.874 142.443C141.447 142.075 139.966 142.552 138.539 142.168L138.442 142.176C138.074 142.379 137.618 142.206 137.259 142.452C136.836 142.608 136.384 142.563 135.947 142.802C135.575 143.006 135.036 142.875 134.914 142.236C136.835 140.959 138.191 139.187 139.275 137.183C139.662 136.736 139.79 136.164 140.02 135.642C139.974 135.555 139.995 135.488 140.084 135.443C140.447 135.042 140.027 134.446 140.428 134.054L140.434 134.043C140.714 132.874 140.664 131.702 140.46 130.528C140.372 130.444 140.351 130.346 140.398 130.234C140.127 129.907 140.379 129.434 140.08 129.115C139.486 128.5 139.096 127.744 138.651 127.027C138.419 126.555 138.042 126.222 137.607 125.944C137.414 125.951 137.272 125.883 137.227 125.679C136.727 125.107 136.13 124.699 135.362 124.58C134.871 124.627 134.431 124.519 134.079 124.152C133.642 123.834 133.064 124.191 132.632 123.85C132.524 123.895 132.42 123.884 132.323 123.819C131.034 123.802 129.743 123.451 128.455 123.834C126.97 124.376 125.474 124.903 124.519 126.295C124.174 126.607 123.816 126.479 123.458 126.323C123.283 126.355 123.187 126.271 123.144 126.11C122.951 125.539 122.346 125.912 122.03 125.623C121.922 125.672 121.834 125.648 121.77 125.547C121.476 125.178 120.29 124.952 121.574 124.323C121.66 124.28 121.686 124.136 121.714 124.027C121.738 123.752 121.784 123.495 122.144 123.49C122.403 123.284 122.647 123.064 122.827 122.784C123.699 121.572 124.776 120.558 125.894 119.579C126.288 119.322 126.432 118.879 126.68 118.515C126.983 117.611 127.591 116.951 128.347 116.41C128.756 116.139 128.942 115.715 129.12 115.286C129.592 114.623 129.719 113.732 130.46 113.248C130.951 113.027 130.59 112.462 130.898 112.167C131.611 110.764 132.22 109.308 133.083 107.984C133.32 107.672 133.075 107.226 133.375 106.93L133.371 106.939C133.775 106.538 133.347 105.926 133.728 105.519C133.864 105.168 134.002 104.816 134.138 104.466C134.47 103.376 134.05 102.227 134.398 101.139L134.399 101.123C134.07 100.523 134.515 99.7817 134.047 99.2071L134.06 99.2364C133.763 98.9431 134.112 98.3911 133.632 98.1724C132.72 96.6817 131.334 95.7417 129.85 94.9164C129.252 94.6471 128.578 94.955 127.983 94.6644C125.71 94.5617 123.576 95.0897 121.548 96.0924C121.155 96.1697 120.846 96.1551 121.03 95.6097C120.984 95.5031 121.002 95.407 121.082 95.323C121.514 93.915 120.976 92.4364 121.388 91.0257C121.399 90.7004 121.41 90.3737 121.422 90.0484C121.632 89.6951 121.704 89.3511 121.38 89.0297C121.382 89.0324 121.382 89.0351 121.383 89.0377L121.363 89.0071C121.371 89.0137 121.372 89.0217 121.38 89.0297C121.006 88.3524 121.506 87.5431 121.054 86.8791C120.971 86.8151 120.962 86.7417 121.024 86.659C120.812 86.2937 121.003 85.8297 120.735 85.4777C120.654 85.3937 120.638 85.3004 120.686 85.1937C120.323 84.7724 120.816 84.1097 120.276 83.7377C119.947 83.2164 119.712 82.6577 119.624 82.0431C119.382 81.7004 119.602 81.2391 119.328 80.9031C118.408 79.7657 118.027 78.3337 117.289 77.1097C115.117 73.5097 112.418 70.3324 109.207 67.6057C108.329 66.8604 107.462 66.0857 106.508 65.4484C104.697 64.2404 102.827 63.1231 100.982 61.9671C100.694 61.6137 100.292 61.427 99.8993 61.2257L99.9353 61.2471C99.4123 60.8311 98.7269 60.8031 98.1561 60.5004C96.0717 59.9391 94.1446 58.983 92.181 58.119C91.9274 57.643 91.3779 57.9764 91.0487 57.7057C90.9473 57.7604 90.8618 57.7417 90.7935 57.6484C90.4467 57.3817 89.9858 57.5764 89.6269 57.3604C89.5222 57.3964 89.4405 57.3671 89.381 57.2737C89.0639 57.0284 88.6175 57.263 88.3087 56.9857L88.329 56.9924C88.0514 56.6311 87.553 56.9311 87.2545 56.6324L87.2738 56.6404C86.6894 56.2044 85.9587 56.6177 85.3519 56.3097L85.2587 56.3604L85.1758 56.2937C84.7801 55.855 84.155 56.299 83.7421 55.9244L83.7566 55.9284C82.9623 55.4444 82.0274 56.0004 81.2238 55.5857C81.0107 55.5644 80.7977 55.543 80.5847 55.5217C79.8129 55.1417 78.9254 55.6524 78.1618 55.2071C78.9577 52.8031 79.9482 50.4751 80.9785 48.1631C81.2363 47.8284 81.0206 47.3724 81.267 47.0337C81.2301 46.9257 81.253 46.8324 81.3363 46.7537C81.5883 46.4244 81.3629 45.9711 81.6263 45.6444C81.5815 45.5311 81.603 45.4311 81.6899 45.3457C81.9342 45.0071 81.7269 44.5551 81.9727 44.2164C81.9165 44.1164 81.929 44.0257 82.0102 43.9444C82.353 43.4817 82.0353 42.8897 82.3102 42.4137C82.2675 42.3204 82.2883 42.2431 82.3722 42.1831C82.7482 41.6271 82.3113 40.9297 82.6858 40.3737C82.6977 40.1551 82.7091 39.9377 82.7211 39.7204C83.1337 38.9164 82.6315 38.0004 83.0331 37.1951C82.9946 37.0804 83.0191 36.9817 83.1066 36.8977C83.4675 35.4764 82.9815 34.003 83.3779 32.5857C83.2421 31.9057 83.3367 31.2351 83.453 30.5657C83.6321 30.2177 83.6353 29.871 83.4503 29.5257C83.443 29.4057 83.4358 29.2857 83.4285 29.1671C82.8847 26.5324 82.9321 23.8311 82.4451 21.1831C81.6571 16.8978 80.4987 12.7497 78.3441 8.9404C76.6201 5.89374 74.4639 3.26842 71.1602 1.74442C68.4837 0.508408 65.8649 0.521744 63.2014 1.67374C58.9363 3.51907 56.3181 7.02309 54.2061 10.9151C51.6706 15.5858 50.3034 20.6591 49.6378 25.923C49.5883 26.3137 49.6591 26.7577 49.1421 26.9097C48.3154 25.0377 47.5738 23.1271 46.6498 21.3097C43.9998 16.0951 40.7509 11.3724 35.617 8.23106C31.6806 5.82306 26.6071 5.34573 22.5139 8.6684C20.1493 10.5884 18.7795 13.1084 17.5295 15.7417C16.5191 17.8711 16.2534 20.2057 15.7795 22.4991C14.7675 27.3977 14.9373 32.2884 15.5691 37.1524C16.355 43.203 17.9482 49.0644 20.7077 54.5617C22.3061 57.7457 24.105 60.7844 26.5738 63.3884C27.0899 63.9337 27.5473 64.5324 28.0675 65.1497C27.5337 65.6804 26.8935 65.8071 26.329 66.0711C24.5826 66.8897 22.7389 67.5337 21.1373 68.619C18.7831 70.215 16.4358 71.8031 14.231 73.6391C11.6082 75.8244 9.28994 78.2257 7.243 80.919C4.5946 84.4057 2.8378 88.3524 1.5982 92.5111C0.864334 94.9724 0.320601 97.5564 0.580601 100.128C0.920067 103.492 1.32273 106.872 2.41647 110.11C2.59673 110.651 2.70767 111.228 2.96967 111.727C4.25247 114.168 5.56753 116.587 7.1962 118.828C9.38007 121.835 12.1154 124.323 15.0717 126.454C17.2654 128.035 19.5894 129.576 22.1795 130.558ZM139.683 145.438C141.979 145.795 144.312 146.012 146.46 147.01C146.883 147.206 147.28 147.455 147.695 147.671C148.587 148.135 149.296 149.036 149.143 149.843C148.951 150.843 147.898 151.462 146.866 151.831C146.588 151.931 146.498 151.803 146.327 151.611C144.799 149.895 142.803 148.776 140.959 147.466C140.255 146.966 139.527 146.51 139.087 145.764C139.203 145.434 139.487 145.407 139.683 145.438ZM141.66 152.276C141.844 152.414 142.078 152.494 142.194 152.922C141.216 153.748 139.91 154.26 138.699 154.408C134.163 154.967 129.619 155.826 125.015 154.958C124.396 154.84 123.738 154.96 123.1 154.923C122.17 154.867 121.987 154.782 120.634 153.984C124.06 151.662 126.91 148.906 129.923 146.344C130.455 145.892 130.948 145.391 131.436 144.89C131.758 144.56 131.998 144.364 132.432 144.794C135.259 147.594 138.476 149.915 141.66 152.276ZM129.862 127.258C131.607 127.219 133.16 127.591 134.704 128.431C136.359 129.331 137.279 131.695 136.768 133.532C136.139 135.8 135.126 137.723 132.923 139.058C131.195 135.328 130.4 131.226 126.912 128.587C127.751 127.663 128.663 127.284 129.862 127.258ZM121.456 99.7697C122.058 99.6311 122.852 99.3497 123.104 98.887C123.623 97.931 124.162 98.6124 124.852 98.6457C124.062 99.4791 123.147 100.082 122.679 101.064C122.394 101.667 122.103 102.274 122.714 102.823C123.294 103.344 123.91 103.164 124.483 102.768C125.935 101.763 127.194 100.55 128.283 99.1604C128.64 98.703 129.003 98.399 129.572 98.9311C130.067 99.3911 130.17 99.7377 129.531 100.16C128.4 100.91 127.41 101.832 126.68 102.975C126.364 103.471 125.848 104.088 126.439 104.707C127.003 105.296 127.672 105.152 128.387 104.875C129.176 104.57 129.646 103.832 130.482 103.478C130.4 105.632 129.384 107.403 128.519 109.216C126.916 112.571 124.579 115.391 122.156 118.184C120.04 120.626 117.536 122.628 115.248 124.87C114.857 125.252 114.574 125.66 114.328 126.126C113.951 126.836 114.039 127.492 114.592 128.055C115.111 128.582 116.199 128.694 116.831 128.319C117.031 128.2 117.246 128.072 117.386 127.895C118.16 126.915 118.743 127.446 119.435 128.138C116.786 130.415 113.933 132.086 110.52 132.708C109.547 132.886 108.57 133.11 107.643 133.447C106.619 133.819 105.706 133.312 104.744 133.246C102.499 133.091 100.658 132.188 99.1227 130.418C97.9577 129.075 97.0758 127.622 96.2623 125.994C97.2973 124.872 98.6623 124.547 99.8159 123.882C104.563 121.144 108.74 117.774 112.363 113.647C115.399 110.188 117.796 106.398 119.31 102.056C119.694 100.954 120.183 100.062 121.456 99.7697ZM7.37167 112.704C5.2274 109.116 4.25767 105.04 4.2066 100.784C4.1326 94.6577 6.04207 89.1564 9.48473 84.1964C12.1883 80.3017 15.4675 76.911 19.291 74.0604C22.717 71.507 26.4285 69.4364 30.1602 67.387C30.7102 67.0844 31.1326 67.1057 31.6331 67.327C32.3102 67.6244 32.7639 67.2057 33.1758 66.7937C33.7107 66.259 33.1915 65.7257 32.9342 65.3951C32.2582 64.527 31.5066 63.6804 30.6493 62.995C28.3003 61.1151 26.8717 58.5311 25.3457 56.0604C23.2847 52.7231 21.9977 48.9951 20.817 45.2817C20.1733 43.2591 19.8306 41.1004 19.3977 38.9937C18.679 35.4977 18.6577 31.9857 18.6941 28.4577C18.7331 24.6831 19.4055 21.0364 20.729 17.4857C21.6315 15.0657 23.0363 12.9871 24.9143 11.3084C26.7826 9.63907 29.1154 9.3844 31.5186 10.0391C33.8509 10.6724 35.7077 12.1004 37.3738 13.7644C40.9525 17.3391 43.2831 21.6817 45.1337 26.3484C47.9321 33.4057 49.1659 40.7311 49.0087 48.2831C48.9295 52.0897 48.093 55.7977 46.7649 59.3791C46.5571 59.9391 46.2754 60.3977 45.6446 60.6324C45.2233 60.7897 44.8754 61.1551 44.5066 61.4431C44.0061 61.8337 43.6639 62.3564 43.9643 62.9644C44.2337 63.5111 44.8003 63.7977 45.4306 63.7124C46.241 63.6004 47.1577 63.6084 47.8217 63.2151C49.393 62.2844 51.1795 62.419 52.8383 61.959C56.2269 61.0191 59.7659 60.9604 63.2321 60.4604C63.9337 60.3577 64.6066 60.2524 65.2582 59.9657C66.0399 59.6217 66.2925 58.9297 66.1191 58.2431C65.9806 57.6937 65.5837 57.1537 64.8415 57.0337C63.2107 56.7671 61.5941 56.8377 59.9837 57.1271C58.1738 57.4524 58.0837 57.5177 57.2722 55.8364C55.4659 52.0911 54.1977 48.1804 53.5197 44.0457C53.0727 41.3177 52.7363 38.607 52.7477 36.3244C52.5473 31.1457 53.1285 26.5351 54.1686 21.9457C55.0415 18.0938 56.3258 14.4217 58.2555 10.9911C59.4675 8.83905 61.0123 6.94707 63.0858 5.50574C65.3754 3.91374 67.805 3.73106 70.1987 4.93106C71.8525 5.76039 73.1493 7.20039 74.1727 8.75639C76.1738 11.7991 77.5883 15.0964 78.3795 18.6804C78.9602 21.3124 79.5003 23.9337 79.679 26.6284C79.9577 30.8364 79.9482 35.0337 79.3998 39.2217C78.9353 42.767 78.0571 46.2044 76.8233 49.563C76.5394 50.3351 76.2555 51.1097 75.8477 51.8031C74.9754 53.2831 74.8129 55.1017 73.5785 56.4071C73.0602 56.9551 73.2935 57.4751 73.8342 57.8991C74.3175 58.2777 74.8801 58.3831 75.4743 58.4431C81.9014 59.0817 88.2045 60.3417 94.2254 62.6977C97.8061 64.1004 101.151 65.9857 104.292 68.2724C107.488 70.5977 110.257 73.2844 112.585 76.4631C114.326 78.8404 115.624 81.4204 116.489 84.2391C118.84 91.9057 117.687 99.0937 113.673 105.939C110.849 110.755 107.027 114.606 102.537 117.864C98.0727 121.104 93.2258 123.588 88.0091 125.344C85.9102 126.05 83.7571 126.596 81.6295 127.219C81.0701 127.383 80.5306 127.546 80.0623 127.959C79.5363 128.422 79.1733 128.886 79.429 129.606C79.7055 130.383 80.1754 130.883 81.0982 130.872C82.0503 130.862 82.9331 130.54 83.8493 130.375C84.2607 130.3 84.5982 130.372 84.6274 130.808C84.6957 131.824 85.1754 132.712 85.4274 133.671C85.6342 134.455 85.5227 134.975 84.7249 135.39C82.3394 136.631 79.8951 137.702 77.3274 138.519C73.4935 139.738 69.5238 140.552 65.867 142.302C65.2946 142.575 64.7315 142.498 64.1503 142.496C63.705 142.495 63.4763 142.36 63.2337 141.911C62.0987 139.81 60.881 137.752 59.6749 135.691C59.4306 135.274 59.2795 134.938 59.4722 134.404C60.0998 132.662 59.0899 131.488 57.2399 131.718C54.5129 132.055 51.779 132.299 49.0279 132.308C40.8801 132.339 33.0082 130.996 25.4618 127.808C17.879 124.603 11.6082 119.794 7.37167 112.704Z" fill="#372F2F"/>
<path d="M105.568 52.9444C107.135 54.2071 108.917 55.1551 110.385 56.5631C111.125 57.2738 112.237 57.0764 113.151 56.5618C113.908 56.1364 114.631 55.6511 115.369 55.1924C115.615 54.9418 115.855 54.6844 116.126 54.4591C116.597 53.9471 117.047 53.4151 117.541 52.9271C119.117 51.3751 120.524 49.6858 121.864 47.9271C123.905 45.2484 125.006 42.1471 126.03 39.0031C126.218 38.4164 126.28 37.8351 125.992 37.2604V37.2591C125.536 36.7524 126.132 35.9924 125.572 35.5111C124.829 33.8191 123.686 32.6058 121.764 32.3244C121.188 32.0538 120.606 32.0978 120.022 32.2978C118.626 32.6431 117.35 33.2404 116.203 34.1084C115.959 34.3351 115.761 34.6151 115.443 34.7564C115.009 35.7031 113.911 36.1791 113.669 37.2618C113.41 37.5498 113.241 38.0938 112.704 37.6058C111.567 35.9804 110.32 34.4764 108.391 33.7338C107.95 33.3751 107.356 33.7364 106.908 33.4164C105.756 33.6871 104.521 33.7644 103.693 34.7924C103.469 35.1364 102.988 34.8244 102.76 35.1591C101.411 36.4004 100.764 38.0244 100.277 39.7338C99.9871 41.0044 100.115 42.2818 100.212 43.5578C100.758 47.3938 102.505 50.4764 105.568 52.9444Z" fill="#F06066"/>
<path d="M71.176 159.376C71.589 159.216 72.012 159.083 72.4349 158.945C72.4776 158.935 72.5218 158.931 72.565 158.921C72.5932 158.636 72.6256 158.349 72.5396 158.084C72.4276 158.069 72.3202 158.069 72.2057 158.045C70.7474 157.289 70.6994 155.936 70.7745 154.559C70.9365 151.576 69.7822 150.504 66.7625 150.699C63.2984 150.923 59.9177 151.64 56.5297 152.305C53.3948 152.921 53.1224 152.648 51.6964 149.881C49.4698 145.56 46.8729 141.437 44.4057 137.245C44.0218 136.593 43.4166 136.479 42.7328 136.555C41.9557 136.64 41.9136 137.269 41.7745 137.839C40.7218 142.14 40.2584 146.477 40.8276 150.905C41.3333 154.84 45.327 159.595 49.1312 160.591C51.6224 161.243 53.8812 160.26 56.1016 159.369C58.013 158.604 59.9084 157.815 61.9641 157.58C63.4276 157.412 64.801 157.617 65.5202 159.188C65.5578 159.561 65.5322 159.916 65.4374 160.253C65.4672 160.28 65.4917 160.308 65.5328 160.331C67.1478 160.057 68.7609 159.991 70.3688 160.384C70.438 160.4 70.489 160.381 70.5354 160.352C70.5292 160.295 70.5281 160.237 70.5145 160.181C70.6016 159.803 70.8536 159.561 71.176 159.376ZM68.9104 158.656C68.2218 158.812 67.7953 158.445 67.4922 157.9C67.2953 157.545 67.1489 157.163 66.9922 156.788C66.7089 156.112 66.3229 155.599 65.512 155.473C64.7578 155.356 63.9593 155.135 63.826 154.219C63.738 153.612 64.7937 153.024 65.8906 152.993C66.065 152.988 66.2401 153.009 66.4145 153.019C68.8656 153.049 70.3994 154.641 70.3328 157.085C70.3156 157.717 69.6125 158.496 68.9104 158.656Z" fill="white"/>
<path d="M65.5197 159.188C64.8005 157.618 63.427 157.412 61.9635 157.58C59.9078 157.815 58.0125 158.604 56.101 159.37C53.8806 160.26 51.6218 161.243 49.1306 160.591C45.3265 159.595 41.3327 154.84 40.827 150.906C40.2578 146.478 40.7213 142.14 41.7739 137.839C41.913 137.27 41.9551 136.64 42.7322 136.555C43.4161 136.479 44.0213 136.594 44.4051 137.246C46.8723 141.438 49.4693 145.56 51.6958 149.882C53.1218 152.648 53.3942 152.922 56.5291 152.306C59.9171 151.64 63.2978 150.923 66.7619 150.699C69.7817 150.504 70.9359 151.576 70.7739 154.559C70.6989 155.936 70.7469 157.29 72.2051 158.046C72.3197 158.07 72.427 158.07 72.539 158.084C72.4885 157.928 72.3994 157.78 72.2395 157.643H72.2401C71.1515 156.519 71.1693 155.158 71.451 153.766C71.8327 151.883 71.2754 150.85 69.4811 150.336C67.6306 149.806 65.7682 149.928 63.8983 150.278C60.8546 150.846 57.8057 151.383 54.7562 151.919C54.415 151.979 54.0551 151.95 53.7051 151.939C52.9811 151.918 52.5447 151.426 52.6682 150.818C52.8349 149.995 52.4083 149.504 52.0469 148.914C49.5546 144.842 47.1489 140.719 44.9166 136.498C44.7849 136.247 44.7333 135.91 44.3734 135.883C43.3849 135.807 42.3098 135.483 41.4306 135.764C40.6469 136.016 41.2969 137.136 41.0666 137.835C41.0306 137.946 41.0265 138.066 40.9963 138.179C40.1458 141.346 39.8182 144.579 39.8906 147.843C39.9213 149.236 39.8973 150.651 40.2937 152.022C41.4895 156.156 44.2051 158.995 47.9385 160.936C48.7051 161.335 49.5702 161.48 50.4802 161.491C52.2838 161.514 53.9343 160.934 55.5718 160.343C57.3254 159.71 59.0098 158.886 60.825 158.418C62.3417 158.027 63.8177 157.928 65.113 159.05C65.4978 159.36 65.0786 159.935 65.4369 160.254C65.5317 159.916 65.5573 159.562 65.5197 159.188Z" fill="white"/>
<path d="M122.141 54.8083C121.237 55.095 120.44 55.5043 119.888 56.3443C118.796 58.0057 118.545 59.639 119.442 61.5297C120.362 63.467 121.886 64.9003 123.154 66.5443C124.065 67.7257 124.834 69.083 126.352 69.6536C126.942 69.8203 127.538 70.043 128.088 69.5403C131.74 66.3643 134.773 62.751 136.216 58.015C136.417 57.3083 136.562 56.603 136.125 55.9216C134.674 53.419 132.386 53.3816 130.012 54.9243C129.13 55.4963 128.466 56.311 127.528 56.9457C126.716 55.9337 125.688 55.287 124.557 54.7936C123.75 54.623 122.945 54.599 122.141 54.8083Z" fill="#F05F66"/>
<path d="M49.0275 132.308C51.7786 132.299 54.5124 132.055 57.2395 131.718C59.0895 131.488 60.0994 132.662 59.4718 134.404C59.2791 134.938 59.4302 135.274 59.6744 135.691C60.8806 137.752 62.0983 139.81 63.2332 141.911C63.4759 142.36 63.7046 142.495 64.1499 142.496C64.7311 142.498 65.2942 142.575 65.8666 142.302C69.5234 140.552 73.4931 139.738 77.327 138.519C79.8947 137.702 82.339 136.631 84.7244 135.39C85.5223 134.975 85.6338 134.455 85.427 133.671C85.175 132.712 84.6952 131.824 84.627 130.808C84.5978 130.372 84.2603 130.3 83.8488 130.375C82.9327 130.54 82.0499 130.862 81.0978 130.872C80.175 130.883 79.7051 130.383 79.4286 129.606C79.1728 128.886 79.5359 128.422 80.0619 127.959C80.5302 127.546 81.0696 127.383 81.6291 127.219C83.7567 126.596 85.9098 126.05 88.0087 125.344C93.2254 123.588 98.0723 121.104 102.537 117.864C107.026 114.606 110.849 110.755 113.673 105.939C117.687 99.0936 118.84 91.9056 116.488 84.2389C115.623 81.4202 114.326 78.8402 112.584 76.4629C110.256 73.2842 107.487 70.5976 104.291 68.2722C101.151 65.9856 97.8056 64.1002 94.225 62.6976C88.204 60.3416 81.901 59.0816 75.4739 58.4429C74.8796 58.3829 74.3171 58.2776 73.8338 57.8989C73.2931 57.4749 73.0598 56.9549 73.578 56.4069C74.8124 55.1016 74.975 53.2829 75.8472 51.8029C76.2551 51.1096 76.539 50.3349 76.8228 49.5629C78.0567 46.2042 78.9348 42.7669 79.3994 39.2216C79.9478 35.0336 79.9572 30.8362 79.6786 26.6282C79.4999 23.9336 78.9598 21.3123 78.3791 18.6803C77.5879 15.0963 76.1734 11.7989 74.1723 8.75624C73.1488 7.20024 71.852 5.76025 70.1983 4.93092C67.8046 3.73091 65.375 3.91359 63.0854 5.50558C61.0119 6.94693 59.4671 8.8389 58.2551 10.9909C56.3254 14.4216 55.0411 18.0936 54.1682 21.9456C53.128 26.5349 52.5468 31.1456 52.7472 36.3242C52.7359 38.6069 53.0723 41.3176 53.5192 44.0456C54.1972 48.1803 55.4655 52.0909 57.2718 55.8362C58.0832 57.5176 58.1734 57.4522 59.9832 57.1269C61.5936 56.8376 63.2103 56.7669 64.8411 57.0336C65.5832 57.1536 65.9802 57.6936 66.1187 58.2429C66.292 58.9296 66.0395 59.6216 65.2578 59.9656C64.6062 60.2522 63.9332 60.3576 63.2316 60.4602C59.7655 60.9602 56.2264 61.0189 52.8379 61.9589C51.1791 62.4189 49.3926 62.2843 47.8212 63.2149C47.1572 63.6083 46.2406 63.6003 45.4302 63.7122C44.7999 63.7976 44.2332 63.5109 43.9639 62.9642C43.6635 62.3562 44.0056 61.8336 44.5062 61.4429C44.875 61.1549 45.2228 60.7896 45.6442 60.6322C46.275 60.3976 46.5567 59.9389 46.7644 59.3789C48.0926 55.7976 48.9291 52.0896 49.0083 48.2829C49.1655 40.7309 47.9316 33.4056 45.1332 26.3483C43.2827 21.6816 40.952 17.3389 37.3734 13.7642C35.7072 12.1002 33.8504 10.6723 31.5182 10.0389C29.115 9.38425 26.7822 9.63892 24.9139 11.3083C23.0359 12.9869 21.6311 15.0656 20.7286 17.4856C19.4051 21.0362 18.7327 24.6829 18.6936 28.4576C18.6572 31.9856 18.6786 35.4976 19.3972 38.9936C19.8302 41.1002 20.1728 43.2589 20.8166 45.2816C21.9972 48.9949 23.2843 52.7229 25.3452 56.0602C26.8712 58.5309 28.2999 61.1149 30.6488 62.9949C31.5062 63.6802 32.2578 64.5269 32.9338 65.3949C33.1911 65.7256 33.7103 66.2589 33.1754 66.7936C32.7635 67.2056 32.3098 67.6242 31.6327 67.3269C31.1322 67.1056 30.7098 67.0842 30.1598 67.3869C26.428 69.4362 22.7166 71.5069 19.2906 74.0602C15.4671 76.9109 12.1879 80.3016 9.48431 84.1962C6.04164 89.1562 4.13218 94.6576 4.20618 100.784C4.25724 105.04 5.22698 109.116 7.37124 112.704C11.6078 119.794 17.8786 124.603 25.4614 127.808C33.0078 130.996 40.8796 132.339 49.0275 132.308ZM66.9004 112.434C65.203 114.115 63.0406 114.512 60.7644 114.728C60.4468 114.68 60.0806 114.684 59.7624 114.563C58.2764 113.998 58.0087 112.403 59.2275 111.367C61.1578 109.724 63.4234 109.195 65.8994 109.45C66.6671 109.528 67.1802 109.994 67.4379 110.712C67.6884 111.411 67.3999 111.939 66.9004 112.434ZM96.4936 82.9336C96.6655 82.9642 96.8472 83.0216 97.0139 82.9962C101.082 82.3936 103.937 84.6469 106.461 87.2789C108.732 89.6483 109.841 92.6149 110.237 95.9483C110.886 101.407 109.185 106.147 106.011 110.35C103.331 113.899 99.8968 116.652 95.4306 117.78C94.2546 118.076 93.1374 118.51 91.8827 118.634C88.263 118.988 84.8488 118.374 81.8488 116.415C77.2171 113.388 74.4067 109.214 74.7004 103.407C74.7062 103.292 74.701 103.176 74.701 103.06C74.5384 98.4909 76.0139 94.5016 78.7515 90.8602C79.715 89.5789 80.7734 88.4429 81.954 87.4056C86.1234 83.7429 90.8754 81.9162 96.4936 82.9336ZM75.3811 81.8336C76.3322 81.4389 76.6504 80.9469 76.4275 79.9882C76.2816 79.3616 76.1879 78.7216 76.1015 78.0829C76.0015 77.3389 76.3936 76.8522 77.0212 76.5389C77.6972 76.2029 78.277 76.4202 78.7655 76.9322C79.2682 77.4589 79.4931 78.0882 79.6026 78.8202C79.6614 79.2149 79.5551 80.0123 80.4472 79.8149C81.1087 79.6696 81.2863 79.2989 81.0598 78.6616C80.9879 78.4602 81.0734 78.2016 81.0911 77.8962C80.8983 77.5162 81.0332 77.0362 81.0936 76.5909C81.1999 75.8096 81.7207 75.4176 82.5264 75.3496C83.2988 75.2843 83.7603 75.6629 84.0212 76.3096C84.1936 76.7389 84.2802 77.2069 84.3666 77.6642C84.5078 78.4149 84.9083 78.7029 85.6963 78.7202C86.4895 78.7389 86.4832 78.2189 86.6458 77.7269C86.8838 77.0069 87.1275 76.2842 87.4374 75.5936C87.8035 74.7762 88.7098 74.3509 89.4483 74.5723C90.153 74.7842 90.4952 75.4163 90.3306 76.4416C90.1635 77.4789 89.9494 78.5162 89.6655 79.5282C89.2556 80.9896 87.7259 82.1616 86.1578 82.2656C82.8291 82.4856 79.802 83.6736 76.8087 85.0429C74.2275 86.2256 71.9004 87.7269 69.9171 89.7696C69.4791 90.2216 68.8791 90.5269 68.3275 90.8536C67.9098 91.1029 67.4598 91.2042 67.0254 90.8269C66.6202 90.4749 66.552 90.0216 66.651 89.5469C66.7843 88.9069 67.0958 88.3496 67.5223 87.8443C69.7046 85.2669 72.2436 83.1336 75.3811 81.8336ZM66.1488 55.0642C64.677 55.5362 63.2578 55.0443 62.0306 54.1123C60.6895 53.0936 59.7952 51.7189 59.103 50.2202C57.8639 47.5362 57.2718 44.6976 56.9468 41.7602C56.7087 39.6082 56.8176 37.4376 56.4196 35.2962C56.1155 33.6602 56.5931 32.0309 56.7608 30.4109C57.0431 27.6829 57.5488 24.9736 58.3879 22.3562C59.3035 19.5002 60.5192 16.7976 62.7874 14.6922C65.6234 12.0589 69.5348 12.4496 71.704 15.6629C73.578 18.4389 74.4619 21.5776 74.915 24.8549C75.2348 27.1736 75.4744 29.5002 75.3416 31.6669C75.515 36.8802 74.6827 41.7842 73.054 46.5096C72.2244 48.9163 71.1035 51.2576 69.2478 53.1642C68.3458 54.0922 67.2859 54.6976 66.1488 55.0642ZM56.3192 104.746C56.9207 104.97 57.5098 105.738 58.1832 104.956C58.7983 104.242 59.2244 103.404 59.0056 102.415C58.8171 101.564 58.5535 100.731 58.3218 99.8909C58.101 99.0882 57.8046 98.4762 56.8535 98.1589C55.6384 97.7549 55.5811 96.4443 56.6702 95.7496C57.9906 94.9083 59.4926 94.6722 61.0259 94.7269C61.553 94.7456 62.0296 95.0482 62.2228 95.6189C62.4139 96.1816 62.3108 96.7349 61.8072 97.0163C60.9114 97.5149 61.065 98.1856 61.3108 98.9416C61.5639 99.7189 61.8348 100.495 62.0035 101.292C62.1619 102.043 62.6322 102.346 63.3046 102.524C64.6374 102.875 64.8083 102.758 65.3124 101.386C65.4863 100.915 65.3578 100.322 65.8843 99.9696C66.6348 99.4696 67.7051 99.8256 68.2202 100.784C68.9374 102.119 68.2296 104.531 66.792 105.399C65.253 106.328 63.665 106.615 62.0384 105.276C61.602 105.97 61.2827 106.452 60.9884 106.95C59.5682 109.352 56.6463 109.08 54.9983 107.971C54.2587 107.472 54.0874 106.739 54.0671 106.01C54.0338 104.831 55.0963 104.29 56.3192 104.746ZM27.6322 51.1456C25.7895 46.7696 24.6458 42.2136 24.1614 37.4429C23.8035 33.9163 24.0078 30.4549 24.3259 26.9762C24.525 24.8016 25.3311 22.7763 26.3546 20.8469C27.854 18.0189 32.727 17.2082 35.1754 20.2002C37.9947 23.6442 39.6911 27.5442 40.8942 31.7269C42.1472 36.0816 42.792 40.5256 42.6139 44.8096C42.6583 47.7629 42.6442 50.4496 41.8832 53.0709C41.3572 54.8829 40.6734 56.6083 39.313 57.9762C37.64 59.6576 35.4192 59.8842 33.4087 58.6096C30.5827 56.8176 28.8802 54.1096 27.6322 51.1456ZM17.7692 116.524C17.0316 111.927 17.9442 107.546 20.9447 103.775C21.313 103.312 22.0692 103.032 21.8259 102.214C21.8259 102.214 21.8254 102.214 21.825 102.215C21.0259 102.347 20.278 102.727 19.4212 102.612C18.6972 102.516 18.2228 102.212 18.0739 101.482C17.9244 100.75 18.2212 100.239 18.8666 99.8962C19.7046 99.4522 20.6083 99.2163 21.5259 99.0109C21.9816 98.9083 22.4171 98.7082 22.8754 98.6282C23.5728 98.5069 23.6972 98.1416 23.5359 97.5069C22.527 93.5376 22.4416 89.5309 23.1838 85.5163C24.0103 81.0456 25.8363 77.0656 29.2051 73.9109C30.7182 72.4936 32.4494 71.5829 34.5436 71.1309C36.1244 70.7909 37.6426 71.0362 39.1488 70.9002C41.6926 70.6709 43.3796 72.0003 45.0416 73.3763C48.4816 76.2256 50.4952 80.0162 51.7744 84.2549C52.5775 86.9176 52.9202 89.6429 52.9286 92.3909C52.9458 98.0256 51.6488 103.278 47.9671 107.736C47.7436 108.007 47.4859 108.254 47.4239 108.622C47.665 110.964 47.6775 113.331 47.3816 115.644C46.8759 119.6 44.6306 122.412 41.242 124.535C35.4368 128.172 29.6488 127.682 23.9083 124.675C20.6619 122.974 18.353 120.163 17.7692 116.524Z" fill="white"/>
<path d="M99.8153 123.882C98.6617 124.547 97.2967 124.872 96.2617 125.994C97.0752 127.622 97.9571 129.075 99.1221 130.418C100.658 132.188 102.498 133.091 104.743 133.246C105.705 133.312 106.618 133.819 107.642 133.447C108.569 133.11 109.547 132.886 110.519 132.708C113.933 132.086 116.785 130.415 119.434 128.138C118.742 127.446 118.16 126.915 117.385 127.895C117.246 128.072 117.03 128.2 116.83 128.319C116.199 128.694 115.11 128.582 114.592 128.055C114.038 127.492 113.951 126.836 114.327 126.126C114.573 125.66 114.857 125.252 115.248 124.87C117.536 122.628 120.04 120.625 122.156 118.184C124.578 115.391 126.916 112.571 128.518 109.216C129.384 107.403 130.4 105.632 130.481 103.478C129.645 103.832 129.176 104.57 128.386 104.875C127.672 105.152 127.002 105.296 126.438 104.707C125.848 104.088 126.364 103.471 126.68 102.975C127.409 101.832 128.4 100.91 129.53 100.16C130.169 99.7375 130.066 99.3908 129.572 98.9308C129.002 98.3988 128.64 98.7028 128.282 99.1602C127.193 100.55 125.934 101.763 124.482 102.768C123.909 103.164 123.293 103.344 122.713 102.823C122.102 102.274 122.393 101.667 122.678 101.064C123.146 100.082 124.061 99.4789 124.852 98.6455C124.161 98.6122 123.622 97.9308 123.104 98.8868C122.852 99.3495 122.057 99.6309 121.456 99.7695C120.182 100.062 119.693 100.954 119.309 102.056C117.796 106.398 115.399 110.188 112.362 113.647C108.739 117.774 104.562 121.144 99.8153 123.882Z" fill="white"/>
<path d="M87.5795 150.622C88.9779 148.099 89.3659 145.446 88.6565 142.654C88.3248 141.347 87.7503 141.076 86.2363 141.684C83.2476 142.884 80.2825 144.143 77.4503 145.695C76.0331 146.472 74.6377 147.32 73.042 147.695C75.6065 150.148 76.4409 153.602 75.2315 156.55C75.9159 156.255 76.6633 156.216 77.4315 156.159C81.6357 155.847 85.3639 154.616 87.5795 150.622Z" fill="#5487A9"/>
<path d="M131.436 144.889C130.948 145.391 130.455 145.892 129.923 146.344C126.91 148.905 124.06 151.661 120.634 153.984C121.987 154.781 122.17 154.867 123.1 154.923C123.738 154.96 124.396 154.84 125.015 154.957C129.619 155.825 134.163 154.967 138.699 154.408C139.91 154.26 141.216 153.748 142.194 152.921C142.078 152.493 141.844 152.413 141.66 152.276C138.476 149.915 135.259 147.593 132.432 144.793C131.998 144.364 131.758 144.56 131.436 144.889Z" fill="white"/>
<path d="M132.923 139.058C135.125 137.723 136.139 135.8 136.768 133.532C137.279 131.695 136.359 129.331 134.704 128.431C133.16 127.591 131.607 127.219 129.861 127.258C128.663 127.284 127.751 127.663 126.912 128.587C130.4 131.226 131.195 135.328 132.923 139.058Z" fill="white"/>
<path d="M129.52 140.694C129.411 140.424 129.36 140.131 129.272 139.852C128.571 137.616 127.767 135.42 126.551 133.403C125.748 132.075 124.654 130.872 123.231 130.427C122.2 130.106 121.364 131.388 120.407 131.894C120.252 131.975 120.119 132.094 119.979 132.2C118.535 133.31 117.038 134.339 115.337 135.011C112.147 136.27 108.828 136.679 105.401 136.892C100.756 137.182 94.5488 132.746 94.3255 127.886C94.2895 127.1 93.9468 126.97 93.1692 127.178C91.5822 127.6 90.2608 128.91 88.451 128.598C88.3494 128.582 88.2083 128.83 88.077 128.946C87.5978 129.363 87.6436 129.828 87.8666 130.374C88.4223 131.735 88.8286 133.142 88.9692 134.614C89.0895 135.872 88.8004 136.979 87.6108 137.619C86.2244 138.364 84.8717 139.164 83.4217 139.808C80.7947 140.975 78.0698 141.842 75.316 142.592C71.813 143.548 68.5327 145.18 64.952 145.883C62.8447 146.296 61.44 145.782 60.3202 143.935C58.863 141.531 57.4578 139.087 56.7291 136.343C56.5218 135.562 56.1144 135.444 55.4567 135.602C54.5942 135.807 53.7223 135.782 52.8422 135.803C51.4687 135.836 50.0994 136.043 48.7354 136.175C48.7526 136.419 48.7192 136.56 48.775 136.64C51.2802 140.243 53.204 144.198 55.5598 147.891C55.8531 148.351 56.1676 148.427 56.5698 148.27C59.725 147.038 63.1968 147.871 66.3692 146.756C66.5816 146.682 66.8368 146.74 67.0687 146.711C69.0031 146.466 70.7802 146.967 72.4827 147.834C75.0786 150.416 75.7228 153.456 74.6056 156.908C73.9868 157.695 73.1239 157.7 72.2406 157.643H72.24C72.3999 157.78 72.489 157.928 72.5395 158.084C72.6255 158.35 72.5931 158.636 72.565 158.922C72.5483 159.091 72.5343 159.26 72.5504 159.426C73.6556 159.555 74.7603 159.791 75.8655 159.792C79.0411 159.798 82.1535 160.372 85.289 160.73C89.4739 161.208 93.6416 161.898 97.8739 161.738C102.257 161.572 106.66 161.686 110.995 160.823C111.803 160.662 112.731 161.122 113.419 160.69C115.072 159.654 116.969 159.587 118.752 159.08C119.458 158.88 120.232 158.795 120.836 158.343C120.707 157.91 120.407 157.867 120.139 157.787C118.428 157.278 117.228 156.21 116.301 154.671C114.973 152.464 114.516 149.991 113.86 147.576C113.695 146.967 113.809 146.291 114.176 145.716C114.747 144.823 116.013 144.704 116.742 145.475C117.081 145.834 117.196 146.286 117.269 146.754C117.492 148.196 117.995 149.556 118.435 151.01C119.348 150.815 119.95 150.262 120.586 149.764C123.352 147.599 125.967 145.243 128.847 143.219C130.174 142.287 130.159 142.274 129.52 140.694ZM97.9212 139.338C96.6422 142.12 92.4974 142.916 90.625 140.642C88.7974 138.42 90.2422 134.3 93.0442 133.77C93.5026 133.682 93.9764 133.679 94.4431 133.638C97.416 133.371 99.1316 136.704 97.9212 139.338ZM73.0422 147.695C74.6379 147.32 76.0332 146.472 77.4504 145.695C80.2827 144.143 83.2478 142.884 86.2364 141.684C87.7504 141.076 88.325 141.347 88.6567 142.654C89.366 145.446 88.978 148.099 87.5796 150.622C85.364 154.616 81.6359 155.847 77.4316 156.159C76.6635 156.216 75.916 156.255 75.2316 156.55C76.4411 153.602 75.6067 150.148 73.0422 147.695Z" fill="#75A8CB"/>
<path d="M78.7517 90.86C76.0141 94.5014 74.5387 98.4907 74.7012 103.06C74.7012 103.176 74.7064 103.292 74.7007 103.407C74.4069 109.213 77.2173 113.388 81.8491 116.415C84.8491 118.373 88.2632 118.988 91.8829 118.633C93.1376 118.509 94.2548 118.076 95.4308 117.78C99.8971 116.652 103.331 113.899 106.012 110.349C109.186 106.147 110.887 101.407 110.237 95.948C109.841 92.6147 108.732 89.648 106.461 87.2787C103.937 84.6467 101.082 82.3934 97.0141 82.996C96.8475 83.0214 96.6657 82.964 96.4939 82.9334C90.8756 81.916 86.1236 83.7427 81.9543 87.4054C80.7736 88.4427 79.7152 89.5787 78.7517 90.86ZM89.7089 100.551C90.6413 100.521 91.3007 101.308 91.2799 102.425C91.2616 103.421 90.6772 104.181 89.96 104.144C89.1616 104.101 88.4413 103.24 88.4345 102.32C88.4272 101.317 88.9621 100.575 89.7089 100.551ZM85.1652 101.769C85.7403 100.976 86.5231 101.017 87.0709 101.84C87.4799 102.455 87.5329 103.127 87.4933 103.824C87.4657 104.312 87.3007 104.712 86.8095 104.933C86.2835 105.172 85.9023 104.911 85.5695 104.585C85.1121 104.139 84.6252 103.673 84.9157 102.977C84.8261 102.5 84.9137 102.116 85.1652 101.769Z" fill="#F7B69B"/>
<path d="M73.0538 46.5095C74.6825 41.7842 75.5147 36.8802 75.3414 31.6669C75.4742 29.5002 75.2346 27.1735 74.9147 24.8548C74.4617 21.5775 73.5778 18.4388 71.7038 15.6628C69.5346 12.4495 65.6231 12.0588 62.7871 14.6922C60.519 16.7975 59.3033 19.5002 58.3877 22.3562C57.5486 24.9735 57.0429 27.6829 56.7606 30.4109C56.5929 32.0309 56.1153 33.6602 56.4194 35.2962C56.8174 37.4375 56.7085 39.6082 56.9466 41.7602C57.2715 44.6975 57.8637 47.5362 59.1027 50.2202C59.795 51.7188 60.6893 53.0935 62.0303 54.1122C63.2575 55.0442 64.6767 55.5362 66.1486 55.0642C67.2857 54.6975 68.3455 54.0922 69.2475 53.1642C71.1033 51.2575 72.2242 48.9162 73.0538 46.5095Z" fill="#F7B69B"/>
<path d="M39.3133 57.9762C40.6737 56.6082 41.3576 54.8829 41.8836 53.0709C42.6445 50.4495 42.6587 47.7629 42.6143 44.8095C42.7924 40.5255 42.1476 36.0815 40.8945 31.7269C39.6915 27.5442 37.9951 23.6442 35.1757 20.2002C32.7273 17.2082 27.8544 18.0189 26.3549 20.8469C25.3315 22.7762 24.5253 24.8015 24.3263 26.9762C24.0081 30.4549 23.8039 33.9162 24.1617 37.4429C24.6461 42.2135 25.7899 46.7695 27.6325 51.1455C28.8805 54.1095 30.5831 56.8175 33.4091 58.6095C35.4196 59.8842 37.6404 59.6575 39.3133 57.9762Z" fill="#F7B69B"/>
<path d="M41.2418 124.535C44.6303 122.412 46.8756 119.6 47.3814 115.644C47.6772 113.331 47.6647 110.964 47.4236 108.622C46.1996 109.203 45.5002 110.418 44.2808 111.064C40.3294 113.158 36.4414 113.508 32.51 111.088C31.8674 110.694 31.208 110.324 30.5518 109.939C29.683 110.743 29.4636 111.976 28.384 112.639C27.6027 113.119 27.01 113.195 26.3184 112.694C25.5439 112.13 25.6851 111.4 25.9882 110.642C26.4674 109.443 27.6527 108.86 28.3866 107.888C27.8163 107.064 27.2564 106.258 26.6158 105.334C25.6584 106.056 24.6898 106.759 23.7554 107.506C23.1944 107.952 22.5527 108.243 21.9084 108.504C21.1564 108.811 20.5127 108.506 20.0934 107.844C19.6914 107.211 19.872 106.631 20.3756 106.102C21.3684 105.058 22.659 104.484 23.9007 103.836C24.3611 103.596 24.8647 103.439 25.3392 103.248C25.3455 103.104 25.3898 102.972 25.3496 102.879C24.5674 101.063 24.5622 101.056 22.7762 101.824C22.4611 101.96 22.0684 101.908 21.8256 102.214C22.069 103.032 21.3127 103.312 20.9444 103.775C17.9439 107.546 17.0314 111.927 17.769 116.524C18.3527 120.163 20.6616 122.974 23.908 124.675C29.6486 127.682 35.4366 128.172 41.2418 124.535ZM39.486 119.387C40.1512 119.291 40.6898 119.852 40.8819 120.843C41.0548 121.735 40.721 122.466 40.0288 122.71C39.0158 123.068 38.2527 122.328 38.2799 121.016C38.3002 120.043 38.7018 119.5 39.486 119.387ZM35.8127 119.815C36.3928 119.74 36.8783 120.48 36.9152 121.519C36.9106 121.895 36.9251 122.468 36.1914 122.514C35.5914 122.551 35.0486 121.811 35.06 120.994C35.0679 120.46 35.1679 119.898 35.8127 119.815Z" fill="#F7B69B"/>
<path d="M25.2741 101.484C25.934 102.543 25.7288 103.476 24.61 104.139C23.5543 104.764 22.4314 105.283 21.4762 106.064C21.0283 106.431 20.5012 106.888 20.9991 107.531C21.4195 108.075 21.9559 107.744 22.4304 107.52C23.3928 107.064 24.1523 106.316 25.0095 105.708C25.809 105.142 26.583 104.686 27.4871 105.612C28.6914 106.846 28.9362 107.895 28.1398 109.007C27.7324 109.575 27.145 110.016 26.8538 110.663C26.6419 111.135 26.4111 111.687 26.9971 112.079C27.4756 112.398 27.8876 112.079 28.2835 111.83C28.4314 111.738 28.5299 111.583 28.6491 111.455C30.595 109.37 30.5955 109.37 33.0455 110.672C37.2122 112.887 41.8299 112.407 45.4731 109.402C46.0288 108.943 46.5001 108.192 47.4241 108.622C47.4861 108.254 47.7439 108.007 47.9673 107.736C51.6491 103.278 52.946 98.0257 52.9288 92.3911C52.9204 89.6431 52.5777 86.9177 51.7747 84.2551C50.4955 80.0164 48.4819 76.2258 45.0419 73.3764C43.3799 72.0004 41.6928 70.6711 39.1491 70.9004C37.6428 71.0364 36.1247 70.7911 34.5439 71.1311C32.4496 71.5831 30.7184 72.4938 29.2054 73.9111C25.8366 77.0658 24.0106 81.0458 23.184 85.5164C22.4419 89.5311 22.5272 93.5378 23.5361 97.5071C23.6975 98.1418 23.5731 98.5071 22.8756 98.6284C22.4174 98.7084 21.9819 98.9084 21.5262 99.0111C20.6086 99.2164 19.7048 99.4524 18.8668 99.8964C18.2215 100.239 17.9247 100.75 18.0742 101.482C18.2231 102.212 18.6975 102.516 19.4215 102.612C20.2783 102.727 21.0261 102.347 21.8252 102.215C21.8256 102.214 21.8262 102.214 21.8262 102.214C23.0414 100.516 24.4819 100.212 25.2741 101.484ZM27.4195 82.8111C28.1147 80.5058 29.2168 78.5191 30.7043 76.7044C31.4346 75.8124 32.2283 74.9338 33.2736 74.4018C36.6564 72.6818 38.4777 72.8484 41.8679 75.0764C44.6075 76.8778 46.3351 79.4524 47.5819 82.4177C48.8398 85.4097 49.4788 88.5258 49.5543 91.0698C49.4512 95.6444 49.0616 99.4751 47.1439 102.963C45.9772 105.084 44.6095 106.978 42.3351 108.14C39.2991 109.694 36.4611 109.364 33.7122 107.596C30.5799 105.583 28.8158 102.53 27.5991 99.1231C26.7543 96.7551 26.0752 94.3084 26.134 91.7911C26.2048 88.7644 26.5283 85.7671 27.4195 82.8111Z" fill="#372F2F"/>
<path d="M25.3504 102.879C25.3906 102.972 25.3463 103.104 25.34 103.248C24.8655 103.439 24.3619 103.596 23.9015 103.836C22.6598 104.484 21.3692 105.057 20.3764 106.101C19.8728 106.631 19.6922 107.211 20.0942 107.844C20.5135 108.505 21.1572 108.811 21.9092 108.504C22.5535 108.243 23.1952 107.952 23.7562 107.505C24.6906 106.759 25.6592 106.056 26.6166 105.333C27.2572 106.257 27.8171 107.064 28.3874 107.888C27.6535 108.86 26.4682 109.443 25.989 110.641C25.6859 111.4 25.5447 112.129 26.3192 112.693C27.0108 113.195 27.6035 113.119 28.3848 112.639C29.4644 111.976 29.6838 110.743 30.5526 109.939C31.2088 110.324 31.8682 110.693 32.5108 111.088C36.4422 113.508 40.3302 113.157 44.2816 111.064C45.501 110.417 46.2004 109.203 47.4244 108.621C46.5004 108.192 46.0291 108.943 45.4734 109.401C41.8302 112.407 37.2124 112.887 33.0458 110.672C30.5958 109.369 30.5952 109.369 28.6494 111.455C28.5302 111.583 28.4316 111.737 28.2838 111.829C27.8879 112.079 27.4759 112.397 26.9974 112.079C26.4114 111.687 26.6422 111.135 26.854 110.663C27.1452 110.016 27.7327 109.575 28.14 109.007C28.9364 107.895 28.6916 106.845 27.4874 105.612C26.5832 104.685 25.8092 105.141 25.0098 105.708C24.1526 106.316 23.3931 107.064 22.4307 107.52C21.9562 107.744 21.4198 108.075 20.9994 107.531C20.5015 106.888 21.0286 106.431 21.4764 106.064C22.4316 105.283 23.5546 104.764 24.6103 104.139C25.7291 103.476 25.9343 102.543 25.2744 101.484C24.4822 100.212 23.0416 100.516 21.8264 102.213C22.0692 101.908 22.4619 101.96 22.777 101.824C24.563 101.056 24.5682 101.063 25.3504 102.879Z" fill="#372F2F"/>
<path d="M67.522 87.8444C67.0955 88.3497 66.784 88.907 66.6507 89.547C66.5517 90.0217 66.6198 90.475 67.025 90.827C67.4594 91.2043 67.9094 91.103 68.3272 90.8537C68.8788 90.527 69.4788 90.2217 69.9168 89.7697C71.9001 87.727 74.2272 86.2257 76.8084 85.043C79.8017 83.6737 82.8288 82.4857 86.1575 82.2657C87.7256 82.1617 89.2553 80.9897 89.6652 79.5284C89.9491 78.5164 90.1632 77.479 90.3302 76.4417C90.4949 75.4164 90.1526 74.7844 89.448 74.5724C88.7094 74.351 87.8032 74.7764 87.4371 75.5937C87.1272 76.2844 86.8834 77.007 86.6455 77.727C86.4829 78.219 86.4892 78.739 85.696 78.7203C84.908 78.703 84.5075 78.415 84.3663 77.6644C84.2799 77.207 84.1933 76.739 84.0209 76.3097C83.76 75.663 83.2985 75.2844 82.5261 75.3497C81.7204 75.4177 81.1996 75.8097 81.0933 76.591C81.0329 77.0363 80.898 77.5164 81.0908 77.8964C81.0731 78.2017 80.9876 78.4604 81.0594 78.6617C81.286 79.299 81.1084 79.6697 80.4469 79.815C79.5548 80.0124 79.6611 79.215 79.6023 78.8203C79.4928 78.0883 79.2679 77.459 78.7652 76.9324C78.2767 76.4204 77.6969 76.203 77.0209 76.539C76.3933 76.8524 76.0012 77.339 76.1012 78.083C76.1876 78.7217 76.2813 79.3617 76.4272 79.9883C76.6501 80.947 76.3319 81.439 75.3808 81.8337C72.2433 83.1337 69.7043 85.267 67.522 87.8444Z" fill="#372F2F"/>
<path d="M54.9984 107.971C56.6464 109.08 59.5682 109.352 60.9885 106.95C61.2828 106.452 61.6021 105.97 62.0385 105.276C63.665 106.615 65.253 106.328 66.7921 105.399C68.2297 104.531 68.9374 102.119 68.2202 100.784C67.7052 99.8255 66.6349 99.4695 65.8844 99.9695C65.3578 100.322 65.4864 100.915 65.3125 101.386C64.8084 102.758 64.6374 102.875 63.3046 102.524C62.6322 102.346 62.162 102.043 62.0036 101.292C61.8349 100.495 61.564 99.7189 61.3109 98.9415C61.065 98.1855 60.9114 97.5149 61.8073 97.0162C62.3109 96.7349 62.414 96.1815 62.2229 95.6188C62.0297 95.0482 61.553 94.7455 61.026 94.7269C59.4926 94.6722 57.9906 94.9082 56.6702 95.7495C55.5812 96.4442 55.6385 97.7549 56.8536 98.1589C57.8046 98.4762 58.101 99.0882 58.3218 99.8908C58.5536 100.731 58.8172 101.564 59.0057 102.415C59.2245 103.404 58.7984 104.242 58.1833 104.956C57.5098 105.738 56.9208 104.97 56.3193 104.746C55.0964 104.29 54.0338 104.831 54.0672 106.01C54.0874 106.739 54.2588 107.472 54.9984 107.971Z" fill="#373030"/>
<path d="M65.8999 109.449C63.4239 109.195 61.1583 109.724 59.228 111.367C58.0092 112.403 58.277 113.997 59.763 114.563C60.0811 114.684 60.4474 114.68 60.765 114.728C63.0411 114.512 65.2035 114.115 66.901 112.433C67.4004 111.939 67.689 111.411 67.4384 110.712C67.1807 109.993 66.6676 109.528 65.8999 109.449Z" fill="#F8B79D"/>
<path d="M97.9212 139.338C99.1316 136.704 97.416 133.371 94.443 133.638C93.9764 133.679 93.5025 133.682 93.0441 133.77C90.2421 134.3 88.7973 138.42 90.6249 140.642C92.4973 142.916 96.6421 142.12 97.9212 139.338Z" fill="#FADE3D"/>
<path d="M85.5695 104.585C85.9023 104.911 86.2835 105.172 86.8095 104.933C87.3007 104.712 87.4658 104.312 87.4934 103.824C87.533 103.127 87.4799 102.455 87.071 101.84C86.5231 101.017 85.7403 100.976 85.1652 101.769C84.9138 102.116 84.8262 102.5 84.9158 102.977C84.6252 103.673 85.1122 104.139 85.5695 104.585Z" fill="#443836"/>
<path d="M89.9601 104.144C90.6773 104.182 91.2617 103.422 91.28 102.426C91.3008 101.308 90.6414 100.521 89.709 100.551C88.9622 100.575 88.4273 101.317 88.4346 102.32C88.4414 103.24 89.1617 104.102 89.9601 104.144Z" fill="#473A37"/>
<path d="M40.0289 122.71C40.7211 122.466 41.0549 121.735 40.882 120.843C40.6899 119.852 40.1513 119.291 39.4861 119.387C38.7019 119.5 38.3003 120.043 38.28 121.016C38.2528 122.328 39.0159 123.068 40.0289 122.71Z" fill="#4E3F3B"/>
<path d="M36.1921 122.514C36.9258 122.468 36.9113 121.895 36.9159 121.519C36.879 120.48 36.3935 119.74 35.8134 119.815C35.1686 119.898 35.0686 120.46 35.0607 120.994C35.0493 121.811 35.5921 122.551 36.1921 122.514Z" fill="#5E4A43"/>
<path d="M33.7116 107.596C36.4605 109.364 39.2985 109.694 42.3345 108.14C44.6089 106.978 45.9766 105.084 47.1433 102.963C49.061 99.475 49.4506 95.6444 49.5537 91.0697C49.4782 88.5257 48.8392 85.4097 47.5813 82.4177C46.3345 79.4523 44.6069 76.8777 41.8673 75.0764C38.4772 72.8484 36.6558 72.6817 33.273 74.4017C32.2277 74.9337 31.434 75.8124 30.7037 76.7044C29.2162 78.519 28.1141 80.5057 27.4189 82.811C26.5277 85.767 26.2042 88.7643 26.1334 91.791C26.0746 94.3083 26.7537 96.755 27.5985 99.123C28.8152 102.53 30.5793 105.583 33.7116 107.596ZM27.8001 88.795C27.9824 85.911 28.4777 83.1364 29.7621 80.5377C30.485 79.0764 31.3381 77.6163 32.7522 76.7883C36.7444 74.4497 41.1684 75.3724 43.8042 79.635C46.1308 83.3977 47.2198 87.5323 47.1736 92.855C47.1053 94.959 46.7881 97.907 45.4345 100.647C44.834 101.862 44.0693 102.96 43.136 103.948C40.8042 106.415 37.6241 106.839 34.6808 105.166C32.6605 104.018 31.2698 102.276 30.2766 100.306C28.4657 96.7137 27.5413 92.8883 27.8001 88.795Z" fill="white"/>
<path d="M34.6813 105.166C37.6247 106.839 40.8048 106.415 43.1365 103.948C44.0699 102.96 44.8345 101.862 45.4351 100.647C46.7887 97.907 47.1059 94.9589 47.1741 92.8549C47.2204 87.5323 46.1313 83.3976 43.8048 79.635C41.1689 75.3723 36.7449 74.4496 32.7528 76.7883C31.3387 77.6163 30.4856 79.0763 29.7627 80.5376C28.4783 83.1363 27.9829 85.9109 27.8007 88.7949C27.5419 92.8883 28.4663 96.7136 30.2772 100.306C31.2704 102.276 32.6611 104.018 34.6813 105.166Z" fill="#342D2D"/>
</svg>
