<svg width="169" height="171" viewBox="0 0 169 171" fill="none" xmlns="http://www.w3.org/2000/svg">
<path d="M109.144 160.775C109.005 159.385 108.673 158.016 108.44 156.636C108.344 156.068 108.177 155.583 107.466 155.683C105.96 155.894 104.441 155.685 102.924 155.896C100.386 156.247 97.8637 156.752 95.2851 156.785C94.6611 156.793 93.9957 156.815 93.4224 157.167C93.3424 157.533 93.4504 157.861 93.6211 158.167C94.9544 160.555 96.5184 162.824 97.3771 165.457C97.5131 165.875 97.8131 165.911 98.2051 165.871C101.904 165.493 105.621 165.276 109.286 164.639C109.778 164.553 110.41 164.585 110.982 164.063C109.665 163.265 109.278 162.12 109.144 160.775Z" fill="white"/>
<path d="M64.1977 157.05C62.3671 156.455 62.3964 156.352 61.9177 158.182C61.8151 158.576 61.7524 158.983 61.6551 159.382C61.3484 160.628 61.1884 161.911 60.7004 163.114C60.3364 164.012 59.9257 164.815 58.7871 164.912C58.3924 164.946 57.9791 165.104 57.8164 165.711C58.6751 166.27 59.6137 166.391 60.5204 166.615C62.6364 167.135 64.8137 166.744 66.9364 167.048C67.9484 167.194 68.6111 166.844 69.2071 166.111C70.7244 164.244 71.8431 162.119 73.1177 160.095C73.4737 159.529 73.9951 158.978 73.9164 158.138C72.4337 157.818 70.9177 157.81 69.4071 157.702C67.6604 157.576 65.8684 157.592 64.1977 157.05Z" fill="white"/>
<path d="M103.23 128.01C103.228 128.012 103.226 128.016 103.224 128.019C103.226 128.022 103.23 128.024 103.234 128.028C103.233 128.022 103.232 128.016 103.23 128.01Z" fill="#75A8CB"/>
<path d="M103.24 128.034C103.238 128.031 103.236 128.031 103.234 128.028C103.234 128.031 103.236 128.032 103.236 128.034C103.237 128.034 103.238 128.035 103.24 128.034C103.242 128.028 103.24 128.023 103.241 128.016C103.238 128.015 103.234 128.012 103.23 128.01L103.24 128.034Z" fill="#75A8CB"/>
<path d="M103.548 152.295C104.729 152.006 106.039 151.938 107.204 152.506C107.521 151.995 107.347 151.592 107.256 151.214C106.817 149.395 106.235 147.602 105.931 145.762C105.723 144.5 104.872 143.406 105.071 142.063C105.533 138.934 105.388 135.794 105.301 132.647C105.251 130.755 105.049 129.063 103.241 128.016C103.24 128.023 103.243 128.028 103.24 128.034C103.239 128.035 103.237 128.034 103.236 128.034C103.324 128.6 103.456 129.166 103.485 129.735C103.561 131.25 102.528 132.61 100.855 133.268C99.2159 133.915 97.8453 133.639 96.8866 132.472C95.4079 130.672 96.0519 128.247 98.3146 127.086C100.197 126.12 101.788 126.667 103.224 128.019C103.227 128.016 103.228 128.012 103.231 128.01C103.235 128.012 103.239 128.015 103.241 128.016C103.441 127.063 102.929 126.206 102.864 125.279C102.736 123.482 102.06 121.762 102.043 119.932C102.039 119.412 101.757 118.887 101.019 119.095C99.4679 119.53 97.8599 119.686 96.2933 119.946C96.4653 121.508 96.6586 122.955 96.7759 124.407C96.9359 126.398 96.3106 127.274 94.5106 128.087C92.7786 128.87 90.9333 129.082 89.108 129.464C84.9253 130.344 80.7239 131.004 76.4493 131.143C76.7266 131.918 76.924 132.699 76.8906 133.54C76.828 135.112 75.8039 136.47 74.2919 136.904C73.0893 137.25 71.3266 136.615 70.5333 135.538C70.3973 135.352 70.2306 135.14 70.2066 134.927C70.04 133.395 70.4066 132.008 71.5226 130.908C72.5213 129.923 73.6906 129.564 75.0359 130.208C74.8053 129.544 74.7186 128.858 74.6013 128.167C74.3506 126.69 74.5599 125.247 74.6786 123.795C74.7306 123.167 74.5039 122.936 73.9186 122.939C72.7639 122.943 71.6093 122.94 70.3853 122.94C70.5026 124.996 70.6426 126.911 70.7133 128.828C70.7906 130.895 70.4373 132.79 68.4533 133.983C67.5599 134.522 66.6133 134.655 65.6066 134.58C64.8066 134.522 64.2426 134.774 64.0839 135.651C63.5199 138.746 62.8559 141.815 63.6759 144.991C64.0359 146.386 64.1839 147.82 63.6453 149.3C63.2333 150.431 63.1959 151.699 62.9973 152.907C62.8666 153.703 63.1999 154.143 64.0146 154.188C64.8866 154.239 65.7573 154.287 66.6293 154.328C69.0813 154.442 71.5399 154.486 73.9866 154.684C75.9666 154.846 75.9733 154.935 76.94 153.243C77.1933 152.798 77.5706 152.4 77.5546 151.816C77.5346 151.072 78.0826 150.854 78.6786 150.692C79.3639 150.506 80.0719 150.39 80.7653 150.51C81.9426 150.715 83.1066 150.586 84.2653 150.462C85.6119 150.316 86.9519 150.314 88.2973 150.403C90.3853 150.54 90.4319 150.602 90.8786 152.65C90.9973 153.196 91.1093 153.903 91.9253 153.802C94.4399 153.488 96.9893 153.368 99.4479 152.722C100.803 152.364 102.179 152.63 103.548 152.295ZM94.84 138.69C94.3519 140.699 93.3613 142.278 91.6999 143.346C89.9373 144.48 88.0586 145.482 85.7546 145.479C82.6999 145.19 79.7879 144.334 78.0306 141.488C77.0319 139.872 76.6799 137.922 77.4986 136.12C78.2146 134.547 79.8879 134.067 81.4519 133.899C84.5266 133.567 87.5786 132.951 90.6999 133.09C91.3866 133.12 92.0813 132.867 92.7786 132.811C93.8853 132.722 94.5293 133.11 94.6613 134.184C94.8439 135.668 95.2239 137.108 94.84 138.69Z" fill="#75A8CB"/>
<path d="M101.252 127.525C99.6477 127.004 97.6584 127.896 97.021 129.429C96.3304 131.096 97.4904 132.816 99.3304 132.853C101.14 132.889 102.662 131.485 102.816 129.616C102.861 129.063 102.672 128.459 103.208 128.036C102.465 128.221 101.894 127.733 101.252 127.525Z" fill="#FADE3D"/>
<path d="M103.224 128.019C103.216 128.024 103.215 128.031 103.208 128.036C103.217 128.033 103.227 128.036 103.236 128.033C103.236 128.032 103.235 128.031 103.235 128.028C103.231 128.024 103.227 128.021 103.224 128.019Z" fill="#FADE3D"/>
<path d="M103.24 128.034L103.23 128.01C103.232 128.016 103.233 128.022 103.234 128.028C103.236 128.031 103.238 128.031 103.24 128.034Z" fill="#FADE3D"/>
<path d="M102.816 129.616C102.663 131.485 101.14 132.889 99.3311 132.853C97.4911 132.816 96.3311 131.096 97.0217 129.429C97.6591 127.896 99.6484 127.004 101.252 127.525C101.895 127.733 102.466 128.221 103.208 128.036C103.215 128.031 103.216 128.024 103.224 128.019C101.788 126.667 100.198 126.12 98.3151 127.085C96.0524 128.247 95.4084 130.672 96.8871 132.472C97.8457 133.639 99.2164 133.915 100.855 133.268C102.528 132.609 103.562 131.249 103.486 129.735C103.456 129.165 103.324 128.6 103.236 128.033C103.227 128.036 103.218 128.033 103.208 128.036C102.672 128.459 102.862 129.063 102.816 129.616Z" fill="#FADE3D"/>
<path d="M73.2656 130.724C71.9282 131.1 71.3149 132.095 70.9696 133.346C70.7242 134.228 70.9416 134.948 71.6256 135.544C72.3842 136.206 73.2509 136.508 74.2109 136.14C75.3202 135.715 76.0109 134.931 76.1269 133.67C76.2056 132.827 75.7922 131.912 76.4496 131.143C75.9776 130.831 75.5069 130.519 75.0362 130.208C74.5776 130.83 73.8576 130.558 73.2656 130.724Z" fill="#FADE3D"/>
<path d="M71.5222 130.908C70.4062 132.008 70.0396 133.395 70.2062 134.927C70.2302 135.14 70.3969 135.352 70.5329 135.537C71.3262 136.615 73.0889 137.249 74.2916 136.904C75.8036 136.469 76.8276 135.112 76.8902 133.54C76.9236 132.699 76.7262 131.917 76.4489 131.143C75.7916 131.912 76.2049 132.827 76.1262 133.669C76.0102 134.931 75.3196 135.715 74.2102 136.14C73.2502 136.508 72.3836 136.205 71.6249 135.544C70.9409 134.948 70.7236 134.228 70.9689 133.345C71.3142 132.095 71.9276 131.1 73.2649 130.724C73.8569 130.557 74.5769 130.829 75.0356 130.208C73.6902 129.564 72.5209 129.923 71.5222 130.908Z" fill="#FADE3D"/>
<path d="M92.7789 132.811C92.0815 132.867 91.3869 133.12 90.7002 133.09C87.5789 132.951 84.5269 133.567 81.4522 133.899C79.8882 134.067 78.2149 134.547 77.4989 136.12C76.6802 137.922 77.0322 139.872 78.0309 141.488C79.7882 144.334 82.7002 145.19 85.7549 145.479C88.0589 145.482 89.9375 144.48 91.7002 143.346C93.3615 142.278 94.3522 140.699 94.8402 138.69C95.2242 137.108 94.8442 135.668 94.6615 134.184C94.5295 133.11 93.8855 132.722 92.7789 132.811Z" fill="#5487A9"/>
<path d="M23.924 60.0534C20.8187 58.1947 17.6734 56.3987 14.6254 54.4507C10.9787 52.1214 7.28004 49.8841 3.48537 47.8054C3.12937 47.6108 2.73071 47.4814 2.33738 47.3734C1.69738 47.2001 1.00803 47.0948 0.609365 47.7814C0.224032 48.4468 0.592032 48.9787 1.06003 49.4947C1.67337 50.1721 2.50805 50.4761 3.25738 50.9161C9.01338 54.2881 14.576 57.9667 20.2387 61.4867C21.324 62.1614 22.4587 62.7761 23.4187 63.0494C24.3694 63.1454 24.872 62.8907 25.2214 62.3587C25.632 61.7374 25.2254 61.2454 24.916 60.7547C24.6854 60.3907 24.2734 60.2627 23.924 60.0534Z" fill="#FADE3D"/>
<path d="M167.065 72.9735C166.445 72.8095 165.802 72.7241 165.166 72.6428C161.677 72.1908 158.168 72.2588 154.661 72.2735C152.733 72.2735 150.805 72.2855 148.876 72.2695C147.528 72.2601 146.19 72.3241 144.857 72.5588C143.686 72.7641 143.309 73.0388 143.329 73.8428C143.354 74.8481 144.064 74.9628 144.866 75.1574C146.101 75.4574 147.336 75.0961 148.504 75.2441C150.904 75.5508 153.282 75.2335 155.67 75.3428C159.292 75.5081 162.913 75.5894 166.517 76.0188C167.381 76.1228 168.33 75.5615 168.494 74.9028C168.673 74.1881 167.989 73.2188 167.065 72.9735Z" fill="#FADE3D"/>
<path d="M156.817 49.6284C157.476 49.1084 157.572 48.4363 157.239 47.7523C156.885 47.0283 156.212 46.7857 155.46 47.075C154.7 47.3684 153.971 47.7484 153.24 48.115C151.004 49.2417 148.891 50.575 146.74 51.8537C144.236 53.3443 141.653 54.7017 139.348 56.5044C138.983 56.7897 138.636 57.111 138.331 57.459C137.992 57.843 137.948 58.3057 138.205 58.7604C138.436 59.1644 138.833 59.2483 139.415 59.2563C140.273 59.1617 141.172 58.7497 142.015 58.215C145.455 56.031 148.999 54.0284 152.56 52.0497C153.984 51.2577 155.52 50.6524 156.817 49.6284Z" fill="#FADE3D"/>
<path d="M17.9582 70.1536C14.5089 68.4536 10.9849 66.9309 7.30489 65.7869C6.85289 65.6456 6.40621 65.5469 5.89554 65.5283C5.47688 65.5549 4.95021 65.4856 4.75821 66.0536C4.58754 66.5549 4.83688 66.9696 5.18488 67.3083C5.64355 67.7536 6.11688 68.1576 6.73288 68.4203C9.41021 69.5589 12.0742 70.7309 14.7275 71.9243C15.4715 72.2603 16.1875 72.6403 17.0009 72.7976C18.0689 73.003 18.7582 72.7163 18.9995 71.9296C19.2142 71.2269 18.8875 70.6109 17.9582 70.1536Z" fill="#FADE3D"/>
<path d="M20.857 44.6308C20.3184 44.0801 19.7144 43.6415 19.009 43.3268C18.4277 43.0668 17.9957 43.2601 17.6104 43.6908C17.245 44.0988 17.2384 44.5748 17.5144 44.9855C17.9357 45.6121 18.3144 46.2668 18.8504 46.8215C20.9944 49.0495 23.101 51.3135 25.2397 53.5468C25.7157 54.0428 26.1597 54.6041 26.9637 54.6415C27.921 54.6855 28.257 54.4188 28.285 53.3601C28.3317 52.7868 28.0944 52.2215 27.5864 51.7535C25.173 49.5401 23.1397 46.9681 20.857 44.6308Z" fill="#FADE3D"/>
<path d="M145.4 66.2337C147.86 65.719 150.339 65.275 152.764 64.6337C153.71 64.3843 154.755 64.487 155.61 63.915C156.15 63.5537 156.714 63.1443 156.596 62.3883C156.495 61.7376 155.849 61.5283 155.384 61.2003C155.068 60.979 154.707 61.1657 154.367 61.2483C151.019 62.0577 147.598 62.5763 144.358 63.815C143.327 64.2083 142.891 64.6683 143.039 65.379C143.231 66.315 143.988 66.2683 144.742 66.2856C144.934 66.2723 145.174 66.2817 145.4 66.2337Z" fill="#FADE3D"/>
<path d="M127.123 62.6415C124.458 59.7415 121.203 57.3788 117.71 55.4241C116.404 54.6935 115.218 53.6401 113.803 55.1935C113.672 55.3361 113.368 55.3548 113.14 55.3721C111.98 55.4575 111.04 54.2895 111.583 53.2828C112.074 52.3735 112.484 51.4028 113.288 50.6508C115.14 48.9161 116.41 46.7428 117.543 44.5055C119.43 40.7761 120.44 36.7628 121.243 32.6855C121.891 29.3921 122.068 26.1028 121.546 22.7708C120.738 17.6361 116.688 14.2295 111.854 13.9535C108.91 13.7841 106.106 14.3868 103.511 16.0108C100.31 18.0148 97.915 20.7495 95.863 23.8268C95.259 24.7348 94.7204 25.6962 94.3044 26.7482C93.0764 29.8482 92.7857 33.0921 92.5577 36.3548C92.2497 40.7455 92.303 45.1135 93.5564 49.3855C93.791 50.1895 93.779 51.0068 93.7577 51.8268C93.7444 52.3695 93.6764 52.9548 93.051 53.0881C92.4844 53.2095 92.0164 52.8375 91.739 52.3762C91.1697 51.4282 90.567 50.5028 90.287 49.3921C89.7764 47.3681 89.051 45.3948 89.0737 43.2521C88.939 43.2455 88.8017 43.2388 88.6657 43.2308C88.115 44.7535 87.5324 46.2668 87.0244 47.8041C86.6697 48.8748 86.1737 49.8415 85.455 50.7122C84.903 51.3815 84.2617 51.3575 83.5817 51.0241C82.5497 50.5161 82.3617 49.8401 82.9524 48.3241C84.0137 45.6068 84.9604 42.8535 85.8564 40.0775C86.3644 38.5068 86.5604 36.8815 86.9697 35.2975C87.7857 32.1308 88.419 28.9268 88.2604 25.6428C88.0857 22.0241 87.7844 18.4161 87.1284 14.8388C86.6284 12.1068 85.8884 9.49748 84.227 7.24281C81.711 3.82815 78.7764 2.44282 74.4977 4.10815C72.9617 4.70548 71.495 5.45216 70.123 6.31482C68.3484 7.43082 66.6097 8.74014 65.555 10.5961C62.6204 15.7575 61.2724 21.4455 60.6337 27.2735C60.2977 30.3388 60.5097 33.4442 60.915 36.5468C61.5497 41.4055 62.9097 45.9975 65.071 50.3708C65.3084 50.8535 65.431 51.3522 65.5937 51.8495C65.795 52.4628 65.8337 53.0601 65.2751 53.4335C64.6511 53.8495 64.0417 53.5908 63.535 53.1001C62.727 52.3215 62.035 51.4455 61.5657 50.4268C61.247 49.7335 60.891 49.7095 60.195 49.9442C57.3004 50.9175 54.6657 52.4282 51.951 53.7762C49.543 54.9708 47.219 56.4001 45.1697 58.0521C42.7417 60.0095 40.395 62.1335 38.2804 64.5028C34.6124 68.6095 31.6324 73.0615 30.031 78.3668C28.203 84.4268 28.1257 90.4881 30.4937 96.3975C32.7884 102.119 36.6444 106.712 41.659 110.267C47.6004 114.48 54.2404 117.081 61.3777 118.464C67.1497 119.581 72.9817 119.735 78.831 119.585C79.783 119.561 80.6964 119.615 81.5751 120.004C82.0191 120.2 82.447 120.417 82.4364 120.984C82.4257 121.481 82.0097 121.668 81.631 121.808C80.919 122.075 80.1884 122.292 79.463 122.521C78.8737 122.707 78.0004 122.223 77.7057 122.932C77.487 123.461 77.7017 124.181 77.763 124.813C77.8324 125.511 77.963 126.203 78.035 126.9C78.095 127.473 78.2897 127.745 78.939 127.583C79.6724 127.401 80.4297 127.228 81.1817 127.207C84.583 127.109 87.879 126.263 91.2284 125.803C94.0137 125.419 93.9977 125.301 93.5244 122.523C93.2564 120.955 93.251 120.977 91.791 120.625C91.1724 120.476 90.4604 120.301 90.351 119.527C90.2484 118.791 90.7897 118.356 91.343 117.999C91.5844 117.843 91.8777 117.765 92.1417 117.643C93.431 117.04 94.831 116.744 96.2057 116.597C99.195 116.28 102.008 115.3 104.836 114.436C108.807 113.223 112.498 111.324 116.084 109.216C120.77 106.464 124.927 103.091 128.243 98.7908C132.99 92.6348 135.384 85.7028 134.542 77.8508C133.904 71.9041 131.048 66.9108 127.123 62.6415ZM97.8084 42.3708C98.0377 37.1108 99.6617 32.2775 102.104 27.6628C103.467 25.0855 105.314 22.9215 107.496 21.0308C108.456 20.2001 109.622 19.8202 110.898 19.8108C111.25 19.8082 111.608 19.8588 111.951 19.8068C112.702 19.6908 113.428 19.4708 114.128 20.0268C115.008 20.7255 115.826 21.4402 116.227 22.5495C116.932 24.4948 117.34 26.4828 117.288 28.5615C117.202 32.6495 116.228 36.5295 114.698 40.3122C113.924 42.2202 113.099 44.0815 111.974 45.7975C110.624 47.8588 109.191 49.8495 107.096 51.2535C103.666 53.5535 100.506 52.6388 98.767 48.8721C97.8057 46.7868 97.7124 44.6068 97.8084 42.3708ZM65.1404 37.0215C64.6804 32.7575 65.1737 28.6042 66.3337 24.5468C67.3364 21.0428 68.8817 17.7668 71.6804 15.2348C75.5004 11.7801 80.4817 12.1615 82.8284 17.3561C84.2257 20.4481 84.7484 23.7202 84.5964 26.4495C84.579 32.2722 83.4697 37.1641 80.9764 41.7082C79.955 43.5722 78.6937 45.3348 76.9444 46.5055C73.5044 48.8082 70.2217 48.4468 67.6044 44.6055C66.0644 42.3468 65.4364 39.7615 65.1404 37.0215ZM66.455 103.753C64.571 111.799 55.219 116.196 48.0697 111.672C43.939 109.056 42.0444 105.069 43.423 99.7148C44.1777 96.7855 45.699 94.5228 47.959 92.6482C47.6057 92.6935 47.2577 92.7135 47.015 92.3735C46.271 91.0748 46.3084 90.6761 47.4657 89.9535C48.3004 89.4335 49.1697 88.9961 50.1764 88.7721C51.4204 88.4975 51.795 86.6268 50.8964 85.6975C50.543 85.3335 50.2377 85.6628 49.9617 85.8015C48.7417 86.4148 47.4284 86.6308 46.099 86.8495C45.255 86.9895 44.655 86.6748 44.3764 86.0055C44.0444 85.2068 44.6004 84.6801 45.2964 84.3575C46.7257 83.6948 48.1337 82.9668 49.7284 82.7668C50.4257 82.6788 50.711 82.4428 50.5457 81.6108C49.959 78.6655 50.5897 75.8108 51.3377 72.9655C52.1097 70.0268 53.231 67.2388 54.967 64.7521C57.3497 61.3428 60.3924 58.9321 64.3617 57.2535C68.8684 55.3481 74.235 57.8761 76.8724 61.5975C79.8777 65.8415 80.763 70.6668 80.755 75.7281C80.7497 78.5468 80.3524 81.3575 79.5044 84.0122C77.6124 89.9242 74.591 95.0921 68.8404 98.1308C68.1244 98.5095 67.3257 98.7335 66.5644 99.0281C66.695 100.608 66.8177 102.2 66.455 103.753ZM87.2337 113.932C85.235 116.731 82.483 118.261 79.0377 118.192C77.019 118.151 75.1737 117.315 73.6964 115.885C71.5937 113.851 70.095 111.42 69.6217 108.515C69.2217 106.068 69.0164 103.588 69.8484 101.145C70.2964 99.8282 71.0964 98.9428 72.4177 98.4988C73.963 97.9801 75.5017 97.4655 77.1284 97.2308C79.0124 96.9588 79.0084 96.9188 79.0004 94.9148C78.9977 94.4482 78.9564 93.9815 78.9564 93.5135C78.9564 92.9188 78.8897 92.4988 78.243 92.1041C77.4444 91.6175 77.5924 90.4788 78.4737 90.1281C80.2137 89.4388 82.0097 89.3815 83.7057 90.3135C84.523 90.7628 84.5297 91.8215 83.639 92.0628C82.107 92.4775 82.0337 93.4295 82.1964 94.6628C82.263 95.1695 82.007 95.6935 82.2177 96.2935C82.935 96.2401 83.619 96.1961 84.303 96.1375C87.2044 95.8868 88.6684 96.6708 89.4337 99.4001C90.8724 104.533 90.4217 109.469 87.2337 113.932ZM121.996 100.285C121.151 103.127 119.668 105.397 117.314 107.069C114.76 108.884 111.942 110.153 108.776 110.509C107.422 110.661 106.058 110.641 104.763 110.255C103.319 109.823 101.782 109.684 100.464 108.816C98.0377 107.216 97.0857 104.885 96.9617 102.104C96.3297 101.639 95.523 101.716 94.8337 101.395C91.5777 99.8815 89.2604 97.4121 87.699 94.2508C84.9724 88.7255 84.7124 83.0055 86.2404 77.0535C87.1004 73.7068 88.3257 70.5935 90.4697 67.9215C93.2324 64.4761 96.487 61.6548 101.146 61.2188C106.074 60.7588 110.223 62.0988 113.039 66.5135C116.131 71.3575 117 76.6348 116.352 82.2495C116.286 82.8308 116.231 83.4121 116.17 83.9948C116.17 83.9935 116.17 83.9935 116.17 83.9921C116.307 84.3001 116.331 84.6268 116.718 84.8308C119.795 86.4615 121.363 89.2815 122.055 92.4748C122.606 95.0121 122.788 97.6228 121.996 100.285Z" fill="white"/>
<path d="M65.224 130.483C65.3306 131.145 65.652 131.195 66.2066 130.997C66.7546 130.803 67.084 130.527 67.1666 129.9C67.3106 128.797 67.5013 127.709 67.3493 126.587C67.2306 125.715 67.2533 124.839 67.4413 123.967C67.7173 122.688 67.7 122.677 66.3479 122.529C63.0319 122.165 59.74 121.66 56.5213 120.772C52.8013 119.747 49.1866 118.423 45.6693 116.707C45.2946 117.191 44.8613 117.591 44.8693 118.351C45.984 118.433 46.9253 119.065 47.9746 119.404C48.636 119.617 49.6493 119.74 49.5453 120.495C49.4319 121.316 48.4186 121.211 47.6813 121.204C46.4479 121.191 45.2226 121.132 44.0333 120.755C43.7306 120.657 43.4466 120.667 43.3933 121.077C43.3599 121.341 43.476 121.532 43.74 121.596C44.2506 121.721 44.7773 121.799 45.2773 121.959C46.3186 122.291 47.4026 122.585 47.952 123.724C47.3346 124.333 46.492 124.233 45.6026 124.8C46.216 125.124 46.6426 125.459 47.1226 125.585C49.944 126.333 52.764 127.087 55.6573 127.519C58.0853 127.881 60.5399 128.005 62.9626 128.461C64.2519 128.704 65.02 129.211 65.224 130.483Z" fill="white"/>
<path d="M122.52 113.016C122.107 113.231 121.676 113.42 121.291 113.676C120.797 114.007 120.273 114.264 119.704 114.391C119.32 114.478 118.873 114.571 118.584 114.152C118.313 113.76 118.403 113.284 118.655 113C119.101 112.498 119.443 111.863 120.163 111.62C120.46 111.519 121.151 111.544 120.764 110.898C120.452 110.376 120.057 110.759 119.717 110.955C119.567 111.04 119.435 111.16 119.289 111.258C115.033 114.084 110.412 116.136 105.555 117.664C104.976 117.846 104.805 118.006 104.959 118.614C105.359 120.195 105.68 121.796 106.051 123.387C106.183 123.955 106.361 124.507 106.845 124.907C107.077 125.1 107.291 125.31 107.611 125.17C108.533 124.766 109.593 124.834 110.489 124.47C113.46 123.262 116.393 121.947 119.136 120.267C120.564 119.391 121.981 118.462 123.036 116.84C121.475 116.324 121.34 115.76 122.433 114.731C122.643 114.534 122.885 114.348 123.147 114.235C123.639 114.019 123.464 113.715 123.319 113.392C123.159 113.039 122.948 112.794 122.52 113.016Z" fill="white"/>
<path d="M71.7669 91.1576C75.7883 86.0536 77.5376 80.2616 77.2363 73.7469C77.0896 70.5723 76.3043 67.6456 74.9309 64.8483C74.0683 63.0909 72.7416 61.7229 71.0336 60.7056C69.0896 59.5456 66.9083 60.1296 64.8629 59.7429C64.7656 59.7256 64.6376 59.8016 64.5403 59.8616C63.1536 60.7189 61.6883 61.4429 60.5496 62.6776C55.9203 67.6976 54.0936 73.7549 53.8643 79.5923C53.9109 84.4949 54.5949 87.7763 56.4336 91.2149C58.4029 94.9016 62.7643 96.9309 66.8403 94.9816C68.7763 94.0576 70.4509 92.8269 71.7669 91.1576ZM67.4856 92.1496C64.8483 94.2763 61.7883 93.8763 59.6643 91.2416C57.1523 88.1256 56.6803 84.4669 56.8043 80.6949C56.8963 77.9056 57.0803 75.0949 57.9429 72.3963C58.9549 69.2256 60.0483 66.0949 62.5363 63.7083C63.7789 62.5163 65.1096 61.4989 66.9829 61.6709C67.1549 61.6856 67.3323 61.6456 67.5056 61.6243C68.3003 61.5256 69.1336 60.9763 69.8829 61.4936C70.9803 62.2496 72.0429 63.1163 72.5909 64.3869C73.8523 67.3069 74.5469 70.3456 74.3269 74.0496C74.4923 76.9216 73.8909 80.1869 72.8776 83.3763C71.8096 86.7349 70.3216 89.8616 67.4856 92.1496Z" fill="white"/>
<path d="M105.468 64.7431C104.544 64.4618 103.473 64.3551 102.714 63.6844C102.077 63.1217 101.426 63.2071 100.748 63.3738C97.7304 64.1138 95.257 65.7644 93.4463 68.2391C90.333 72.4964 88.7343 77.3084 88.6943 83.8724C88.8277 86.7231 89.261 90.7698 91.645 94.3058C94.3423 98.3044 98.873 100.478 103.964 97.6871C106.425 96.3377 108.205 94.2831 109.637 91.9151C111.765 88.3938 112.84 84.5164 113.006 80.4551C113.164 76.6257 112.409 72.8751 110.588 69.4764C109.464 67.3764 107.985 65.5098 105.468 64.7431ZM108.264 89.2364C107.384 91.5484 106.088 93.6444 104.28 95.3404C100.857 98.5511 95.9277 97.5817 93.557 93.8911C91.349 90.4551 90.8077 86.6484 90.8943 82.6831C90.993 78.1524 92.0743 73.8871 94.613 70.0978C95.6903 68.4884 97.0877 67.1658 99.0263 66.5071C99.889 66.2151 100.706 66.0911 101.588 66.2404C102.256 66.3524 102.917 66.5991 103.604 66.2951C104.008 66.1164 104.233 66.4764 104.514 66.6577C105.909 67.5497 106.985 68.7591 107.78 70.1844C109.445 73.1724 110.004 76.4338 109.957 79.8071C110.056 83.0724 109.417 86.2111 108.264 89.2364Z" fill="white"/>
<path d="M80.9764 41.7085C83.4698 37.1645 84.5791 32.2725 84.5964 26.4498C84.7484 23.7205 84.2258 20.4485 82.8284 17.3565C80.4818 12.1618 75.5004 11.7805 71.6804 15.2351C68.8818 17.7671 67.3365 21.0431 66.3338 24.5471C65.1738 28.6045 64.6805 32.7578 65.1405 37.0218C65.4365 39.7618 66.0645 42.3471 67.6045 44.6058C70.2218 48.4471 73.5044 48.8085 76.9444 46.5058C78.6938 45.3351 79.9551 43.5725 80.9764 41.7085Z" fill="#F8B69C"/>
<path d="M107.096 51.2536C109.191 49.8496 110.624 47.8589 111.973 45.7976C113.099 44.0816 113.924 42.2203 114.697 40.3123C116.228 36.5296 117.201 32.6496 117.288 28.5616C117.34 26.4829 116.932 24.4949 116.227 22.5496C115.825 21.4403 115.008 20.7256 114.128 20.0269C113.428 19.4709 112.701 19.6909 111.951 19.8069C111.608 19.8589 111.249 19.8083 110.897 19.8109C109.621 19.8203 108.456 20.2002 107.496 21.0309C105.313 22.9216 103.467 25.0856 102.104 27.6629C99.6612 32.2776 98.0372 37.1109 97.8079 42.3709C97.7119 44.6069 97.8052 46.7869 98.7665 48.8722C100.505 52.6389 103.665 53.5536 107.096 51.2536Z" fill="#F8B69C"/>
<path d="M65.3516 99.0896C62.6556 99.7749 60.2969 98.8709 58.0543 97.5309C56.7356 96.7429 56.7756 96.6989 55.5143 97.5696C54.6463 98.1696 53.7023 98.6269 52.6249 98.6509C51.5903 98.6749 51.2636 98.0989 51.7689 97.1869C52.0543 96.6723 52.4649 96.2589 52.9636 95.9349C53.4036 95.6483 53.8356 95.3523 54.2596 95.0429C54.5009 94.8669 54.7263 94.6176 54.5503 94.3123C54.0903 93.5083 53.5849 92.7283 53.0996 91.9389C52.8263 91.4923 52.4596 91.5896 52.0369 91.6963C50.6849 92.0349 49.3223 92.3309 47.9636 92.6443C47.7076 92.3429 47.3836 92.2789 47.0143 92.3736C47.2569 92.7136 47.6049 92.6936 47.9583 92.6483C45.6983 94.5229 44.1769 96.7856 43.4223 99.7149C42.0436 105.07 43.9383 109.056 48.0689 111.672C55.2183 116.196 64.5703 111.799 66.4543 103.754C66.8169 102.2 66.6943 100.608 66.5636 99.0283C66.1596 99.0456 65.7356 98.9923 65.3516 99.0896ZM54.0063 106.376C53.7809 106.91 53.6889 107.634 52.8969 107.43C52.1823 107.244 52.0756 106.479 51.9689 105.883C51.8663 105.314 52.6516 104.566 53.1623 104.588C53.4183 104.586 53.6329 104.707 53.7596 104.9C54.0529 105.348 54.2449 105.812 54.0063 106.376ZM55.9929 107.506C55.2036 107.532 54.4809 106.622 54.5263 105.662C54.5676 104.812 55.0689 104.231 55.7569 104.232C56.5543 104.234 57.0876 104.936 57.0729 105.966C57.0596 106.872 56.6303 107.484 55.9929 107.506Z" fill="#F8B69C"/>
<path d="M122.054 92.4748C121.362 89.2814 119.794 86.4614 116.717 84.8308C116.33 84.6268 116.306 84.3001 116.169 83.9921C116.169 83.9934 116.169 83.9934 116.169 83.9947C115.788 85.6681 115.406 87.3428 115.021 89.0361C116.092 89.2921 116.948 89.8068 117.933 90.0054C118.478 90.1161 119.045 90.4014 119.453 90.8468C120.082 91.5361 119.865 92.1121 118.968 92.4801C117.861 92.9348 116.95 92.5694 115.988 92.0468C113.877 90.9041 113.861 90.9321 112.962 93.1934C112.918 93.3014 112.905 93.4201 112.862 93.5881C114.052 94.0214 115.324 94.3521 116.062 95.5374C116.368 96.0268 116.836 96.4854 116.469 97.1227C116.088 97.7814 115.442 97.5734 114.884 97.4961C113.514 97.3068 112.453 96.4908 111.426 95.5721C111.042 95.9934 110.72 96.3294 110.417 96.6828C109.612 97.6268 109.629 97.6174 110.482 98.5454C110.956 99.0614 111.418 99.5948 111.712 100.248C112.012 100.915 112.236 101.615 111.612 102.188C111.014 102.739 109.937 102.611 109.257 101.957C108.509 101.239 107.88 100.427 107.625 99.2801C104.48 101.679 101.106 102.695 97.3103 102.08C97.1969 102.061 97.0769 102.095 96.9609 102.104C97.0849 104.885 98.0369 107.216 100.464 108.816C101.781 109.684 103.318 109.823 104.762 110.255C106.057 110.641 107.421 110.661 108.776 110.509C111.941 110.153 114.76 108.884 117.313 107.069C119.668 105.397 121.15 103.127 121.996 100.285C122.788 97.6227 122.605 95.0121 122.054 92.4748ZM100.65 107.481C100.016 107.417 99.9743 106.967 100.044 106.449C100.108 105.973 100.34 105.649 100.83 105.711C101.442 105.787 101.48 106.287 101.472 106.713C101.424 107.28 101.13 107.531 100.65 107.481ZM103.605 108.181C102.945 108.199 102.117 107.448 102.054 106.773C101.985 106.021 102.764 105.055 103.456 105.033C104.048 105.017 104.834 105.867 104.877 106.571C104.926 107.376 104.308 108.161 103.605 108.181Z" fill="#F8B69C"/>
<path d="M76.0811 113.021C76.5011 113.361 76.8717 113.744 77.3131 114.003C78.6451 114.783 80.1424 114.912 81.4971 114.337C83.1757 113.625 84.4051 112.327 85.3624 110.704C86.4077 108.936 86.7291 107.048 86.9144 104.719C82.3237 106.431 78.7051 109.028 76.0811 113.021Z" fill="#F8B69C"/>
<path d="M80.7705 101.981C82.3278 101.592 82.7932 101.06 83.0518 99.2401C80.8865 99.2041 78.8212 99.7414 76.4932 99.9521C77.8692 101.935 79.0025 102.424 80.7705 101.981Z" fill="#F6F7F8"/>
<path d="M110.943 128.192C110.94 128.194 110.936 128.195 110.934 128.196L110.943 128.192Z" fill="#342D2D"/>
<path d="M138.004 77.1817C138.004 77.1831 138.004 77.183 138.004 77.1844C138.009 77.1937 138.012 77.2031 138.017 77.2124L138.004 77.1817Z" fill="#342D2D"/>
<path d="M138.004 77.1842C137.651 76.6376 138.139 75.9216 137.65 75.4029L137.586 75.3176L137.648 75.2323C137.47 74.8456 137.603 74.3936 137.384 74.0163C137.296 73.9416 137.272 73.8496 137.31 73.7403C137.044 73.4109 137.328 72.9056 136.95 72.6136C136.711 72.2976 136.94 71.8483 136.648 71.5469C136.54 71.4083 136.398 71.2856 136.331 71.1296C134.796 67.5923 132.939 64.2909 130.315 61.3896C128.579 59.4696 126.704 57.7416 124.699 56.1456C122.618 54.4869 120.276 53.2083 117.951 51.9216C117.534 51.6269 117.84 51.3243 117.943 51.0243C117.942 50.2629 118.64 49.9189 118.951 49.3443C119.335 49.0723 119.5 48.6443 119.72 48.2549C119.742 48.0829 119.7 47.8536 119.795 47.7469C120.707 46.7243 121.118 45.4749 121.607 44.2229C122.131 42.8856 122.284 41.3803 123.252 40.2243C123.579 39.9229 123.347 39.4629 123.56 39.1296C123.96 38.8856 123.639 38.3603 123.958 38.0843C123.979 37.9723 124.002 37.8603 124.024 37.7469C124.282 37.2816 124.002 36.7216 124.287 36.2616C124.2 35.8883 124.202 35.5376 124.526 35.2629C125.106 33.8736 125.042 32.3643 125.328 30.9216C125.207 30.6003 125.294 30.3003 125.428 30.0069C125.638 29.6416 125.488 29.1989 125.684 28.8309C125.328 28.5709 125.288 28.3096 125.684 28.0483C125.355 27.3283 125.774 26.5096 125.387 25.7963C125.274 25.4683 125.278 25.1363 125.352 24.8016C125.087 24.4749 125.319 24.0163 125.055 23.6896C125.06 23.5669 125.064 23.4443 125.068 23.3216C125.234 22.9669 125.278 22.6176 125.034 22.2763C124.952 22.2096 124.936 22.1283 124.984 22.0349C124.738 21.3043 124.539 20.5603 124.34 19.815C124.215 19.5816 124.09 19.3483 123.964 19.1136C123.627 18.8443 123.978 18.3043 123.555 18.0669C123.436 17.9496 123.27 17.8536 123.206 17.711C122.158 15.3909 120.384 13.8136 118.219 12.5389C117.224 11.9536 116.156 11.5349 115.172 10.9456C113.812 10.623 112.454 10.2456 111.047 10.2563C105.946 10.2949 101.62 12.2589 97.9335 15.6989C97.3455 16.2483 96.7375 16.7803 96.2135 17.4296C94.7615 19.2336 93.3335 21.0496 91.9509 23.3083C91.6282 20.9243 91.2642 18.8669 91.0895 16.7936C90.6882 12.0429 89.2482 7.70294 86.2229 3.97095C84.1682 1.43628 81.5455 -0.0263824 78.2015 0.0149536C77.2682 0.0256195 76.3335 0.0522766 75.4002 0.0709381C74.9335 0.204269 74.4669 0.336273 73.9989 0.469604C73.3455 0.493607 72.8256 0.888275 72.2416 1.10561C71.8549 1.34294 71.4975 1.66295 71.0789 1.8056C69.6749 2.28561 68.3989 2.96695 67.3029 3.97495C66.8175 4.29761 66.3962 4.70825 65.9002 5.01892C65.4175 5.49492 64.9335 5.96962 64.4509 6.44295C64.3189 6.76428 64.0482 6.9576 63.7855 7.15627C61.6255 9.72693 60.5882 12.8443 59.5269 15.9483C59.2655 16.2563 59.5215 16.7123 59.2229 17.0109L59.2269 17.0003C58.8869 17.2976 59.1655 17.7896 58.8815 18.1056C58.9109 18.2283 58.8789 18.3309 58.7882 18.4176C58.5882 18.7496 58.8002 19.1829 58.5229 19.4976C58.4922 19.6069 58.4615 19.7163 58.4295 19.8269C58.2469 20.1723 58.4309 20.5989 58.1802 20.9269C57.6909 21.5429 58.0362 22.3216 57.7802 22.983C57.4135 23.535 57.8522 24.2269 57.4669 24.7749C57.5069 24.8963 57.4855 25.0043 57.4002 25.1003C57.0775 25.9283 57.4882 26.8323 57.1362 27.6576C57.1175 28.2096 57.1002 28.7643 57.0815 29.3163C56.8202 30.955 56.8362 32.5949 57.0735 34.2336C57.1589 34.3189 57.1762 34.4149 57.1255 34.5243C57.5095 35.2096 57.0402 36.0163 57.4362 36.7003C57.4522 36.9069 57.4682 37.1149 57.4842 37.3229C57.7269 37.6629 57.5149 38.1189 57.7722 38.4563C57.9069 39.3803 58.0415 40.3029 58.1762 41.2269C58.5055 41.6643 58.1709 42.2336 58.4642 42.6776C58.8095 43.1243 58.4016 43.7669 58.8576 44.1842C59.2029 44.4149 58.8922 44.9003 59.2242 45.1363C59.5736 45.8723 59.4375 46.3549 58.5389 46.4389C58.4282 46.4843 58.3162 46.5296 58.2055 46.5749C57.7135 46.7723 57.1882 46.8936 56.7549 47.2243C55.9455 47.5936 55.1362 47.9629 54.3255 48.3323C53.8415 48.5296 53.3309 48.6669 52.8869 48.9576C50.3842 50.4229 47.8055 51.7763 45.4042 53.3923C43.7109 54.5309 41.9002 55.5616 40.5069 57.1136C40.0576 57.4829 39.6042 57.8469 39.1482 58.2069C37.9269 59.4696 36.4695 60.5109 35.5295 62.0389C35.3295 62.2403 35.1282 62.4389 34.9269 62.6389C34.5655 63.0283 34.2042 63.4163 33.8429 63.8056C33.6975 64.1296 33.4082 64.3229 33.1629 64.5563C33.0402 64.7749 32.9189 64.9936 32.7975 65.2123C32.5855 65.5403 32.3935 65.8803 32.1122 66.1563C31.9815 66.3109 31.8522 66.4669 31.7242 66.6216C31.3509 67.1709 31.1562 67.8256 30.7055 68.3283C28.6282 71.5069 27.2695 75.0069 26.0935 78.5909C25.8562 78.9496 26.0242 79.4003 25.8255 79.7669C25.8642 79.8603 25.8429 79.9363 25.7589 79.9949C25.3669 80.6723 25.8429 81.4749 25.4455 82.1509C25.4189 82.3736 25.3922 82.5963 25.3655 82.8189C25.1122 83.4296 25.3935 84.1123 25.1162 84.7203C25.2455 84.9696 25.2442 85.2189 25.1162 85.4683C25.5135 87.2589 24.9642 89.1056 25.4362 90.8936C25.8015 91.3029 25.4082 91.8923 25.7669 92.3043C25.8495 92.3803 25.8655 92.4669 25.8122 92.5669C26.1055 93.0269 25.8016 93.5976 26.0909 94.0589C26.1736 94.1483 26.1935 94.2496 26.1535 94.3629C26.4269 94.6869 26.1802 95.1589 26.4682 95.4789L26.4749 95.4936C26.8149 95.7629 26.5309 96.2256 26.7909 96.5202C26.8269 96.6336 26.8629 96.7469 26.8989 96.8603C26.9002 97.1416 27.0055 97.3816 27.1935 97.5869C27.6429 98.7523 28.1509 99.8856 28.6989 101.014C29.3735 102.4 30.4815 103.504 31.0535 104.935C31.2935 105.164 31.5949 105.34 31.7175 105.675C32.1735 106.126 32.7122 106.519 33.0695 107.036C35.1202 110.002 38.0376 111.986 40.8736 114.076C41.6616 114.658 42.6962 114.891 43.3375 115.71C42.2695 116.798 41.2429 117.794 40.5389 119.058C40.2522 119.306 40.5442 119.76 40.2042 119.988C39.5882 121.152 39.6122 122.436 40.0802 123.539C40.7029 125.002 41.5149 126.486 42.9189 127.356C44.3575 128.25 45.8976 129.007 47.6082 129.298C47.9562 129.54 48.4082 129.352 48.7629 129.575C49.3149 129.715 49.8682 129.855 50.4215 129.995C50.8575 130.316 51.4362 129.958 51.8682 130.299L52.0282 130.274L52.1789 130.336C52.6135 130.676 53.2002 130.31 53.6362 130.648C54.2509 131.158 55.0429 130.738 55.6975 131.039C56.2909 131.388 56.9922 131.027 57.5922 131.328C58.0189 131.239 58.4429 131.235 58.8615 131.375C59.5389 131.802 60.3549 131.303 61.0362 131.702C61.4309 131.822 61.4015 132.115 61.3282 132.426C60.9962 132.723 61.2869 133.215 60.9882 133.523C60.5575 134.402 60.4909 135.378 60.2402 136.304C59.9042 136.89 60.2669 137.582 59.9562 138.171C60.0602 138.498 60.0015 138.812 59.8815 139.12C59.5282 139.815 59.9562 140.612 59.5935 141.306C59.6495 141.359 59.6535 141.415 59.6029 141.475C60.1442 142.152 59.6135 142.972 59.8949 143.684C59.9135 143.888 59.9322 144.092 59.9509 144.296C60.1855 144.643 59.9762 145.103 60.2416 145.443C60.3202 145.89 60.2722 146.416 60.4989 146.77C61.4815 148.3 61.1215 149.698 60.2295 151.086C59.9242 151.516 60.2669 152.08 59.9362 152.504C59.5882 152.772 59.8895 153.272 59.5695 153.55L59.5722 153.544C59.1895 153.979 59.5642 154.582 59.2402 155.028C59.1082 155.355 58.9762 155.682 58.8442 156.01C58.5629 156.347 58.7775 156.814 58.5455 157.164C58.5949 157.263 58.5775 157.347 58.4935 157.416C58.1495 157.838 58.5029 158.411 58.1855 158.838C57.7149 159.354 58.2242 160.074 57.8215 160.604L57.8282 160.587C57.4829 160.91 57.7229 161.402 57.4935 161.759C57.5495 161.847 57.5362 161.924 57.4549 161.988C57.2175 162.534 57.3095 163.331 56.4029 163.366C55.6455 163.616 54.8735 163.828 54.1335 164.124C52.3989 164.818 52.1029 165.612 52.8762 167.355C53.1642 167.716 53.4909 168.04 53.8575 168.326C54.0429 168.61 54.3669 168.615 54.6442 168.712C54.9442 168.982 55.4082 168.704 55.6909 169.028H55.6935C55.9882 169.344 56.4695 169.066 56.7682 169.367L56.7549 169.362C57.1042 169.687 57.5922 169.491 57.9775 169.683C58.1575 169.712 58.3375 169.742 58.5175 169.771C58.9362 170.086 59.5109 169.706 59.9149 170.083L59.9162 170.084C61.3389 170.546 62.8335 169.998 64.2602 170.396L64.3749 170.35L64.4855 170.407C65.2002 170.85 66.0429 170.42 66.7762 170.743C67.0215 170.615 67.2669 170.622 67.5122 170.746C68.0002 170.507 68.5575 170.716 69.0509 170.507C70.1269 169.795 71.1389 169.003 71.9455 167.987C74.1522 165.207 75.6482 161.986 77.4789 158.972C78.4389 157.394 79.1762 155.679 80.3789 154.247C82.0522 153.922 83.7295 154.022 85.4069 154.208L85.4509 154.204C86.4495 154.164 87.5175 153.598 88.3789 154.592C88.5002 155.723 89.2282 156.596 89.6989 157.57C91.3362 160.964 93.0629 164.315 94.7549 167.683C95.0922 167.939 94.8069 168.386 95.0602 168.667C95.1962 168.799 95.3322 168.932 95.4669 169.066C95.7682 169.331 96.2309 169.058 96.5162 169.379L96.5175 169.38C97.0882 169.679 97.6749 169.58 98.2615 169.446C98.9135 169.22 99.5789 169.251 100.248 169.338C101.206 168.986 102.238 169.427 103.195 169.062C103.486 168.843 103.798 168.879 104.116 168.986C104.718 168.69 105.414 169.031 106.011 168.704C106.172 168.543 106.352 168.53 106.548 168.631C107.28 168.307 108.112 168.728 108.834 168.324L108.984 168.27L109.139 168.307C109.934 167.882 110.855 168.419 111.648 167.976C111.851 167.964 112.055 167.951 112.258 167.938C112.822 167.579 113.546 168.05 114.092 167.594C115.135 167.276 116.294 167.394 117.251 166.756C117.243 166.6 117.318 166.526 117.472 166.531C118.143 166.24 117.558 165.504 117.972 165.123C117.972 164.911 117.972 164.698 117.972 164.486C117.712 164.012 117.728 163.386 117.178 163.076C115.674 162.416 114.168 161.758 112.664 161.098C112.32 160.251 112.771 159.308 112.347 158.471L112.348 158.478C111.894 157.831 112.48 157 111.972 156.364L111.982 156.387C111.574 155.862 112.119 155.122 111.594 154.622C111.396 154.292 111.579 153.867 111.332 153.55C111.306 153.368 111.279 153.186 111.252 153.006C111.003 152.51 111.282 151.916 110.962 151.435C110.419 150.367 109.974 149.266 109.843 148.062C109.648 147.684 109.828 147.216 109.552 146.859C109.118 145.95 108.634 145.059 108.482 144.043C108.199 143.675 108.274 143.3 108.46 142.923C108.412 142.81 108.432 142.711 108.519 142.624C108.86 141.916 108.462 141.116 108.796 140.408C108.703 140.088 108.734 139.774 108.843 139.464C109.14 138.3 109.052 137.13 108.896 135.959C108.894 135.834 108.891 135.708 108.887 135.584C109.04 133.822 109.184 132.06 108.803 130.307L108.738 130.223L108.791 130.131C108.515 129.287 108.566 128.706 109.698 128.667C110.102 128.652 110.555 128.444 110.934 128.196C111.343 127.816 111.959 128.252 112.358 127.835C112.58 127.7 112.748 127.455 113.055 127.499C113.307 127.15 113.918 127.542 114.079 127.004C114.347 126.68 114.754 126.598 115.106 126.42C115.432 126.158 115.89 126.387 116.218 126.126C117.918 125.086 119.615 124.039 121.458 123.26C122.006 123.032 122.352 122.506 122.903 122.283C123.398 121.967 123.623 121.348 124.204 121.13C124.518 120.894 124.814 120.643 124.982 120.276C125.744 119.067 126.58 117.9 127.16 116.583C127.494 115.986 127.147 115.283 127.448 114.679C127.406 113.024 126.49 111.727 125.687 110.383C125.448 109.951 124.998 109.803 124.604 109.576C124.346 109.598 124.095 109.594 123.912 109.367C123.452 108.904 123.819 108.44 123.911 107.976C124.787 106.919 125.942 106.179 126.962 105.283C127.427 104.979 127.784 104.56 128.152 104.152C128.22 103.355 128.938 103.028 129.382 102.523C132 99.5376 134.214 96.3283 135.643 92.5736C136.17 91.1896 136.692 89.7816 137.339 88.4363C137.719 88.0096 137.327 87.4083 137.672 86.9736C137.631 86.8576 137.655 86.7549 137.74 86.6669C137.972 86.3269 137.771 85.8816 138.016 85.5443C138.034 85.3336 138.05 85.1229 138.067 84.9123C138.279 82.3336 138.403 79.7576 138.004 77.1842ZM55.6576 127.519C52.7642 127.087 49.9442 126.334 47.1229 125.586C46.6429 125.459 46.2162 125.124 45.6029 124.8C46.4922 124.234 47.3349 124.334 47.9522 123.724C47.4029 122.586 46.3189 122.291 45.2775 121.959C44.7775 121.799 44.2509 121.722 43.7402 121.596C43.4762 121.532 43.3602 121.342 43.3935 121.078C43.4469 120.667 43.7309 120.658 44.0335 120.755C45.2229 121.132 46.4482 121.191 47.6815 121.204C48.4189 121.211 49.4322 121.316 49.5455 120.495C49.6495 119.74 48.6362 119.618 47.9749 119.404C46.9256 119.066 45.9842 118.434 44.8695 118.351C44.8615 117.591 45.2949 117.191 45.6695 116.707C49.1869 118.423 52.8015 119.747 56.5215 120.772C59.7402 121.66 63.0322 122.166 66.3482 122.53C67.7002 122.678 67.7175 122.688 67.4416 123.967C67.2536 124.839 67.2309 125.715 67.3495 126.587C67.5015 127.71 67.3109 128.798 67.1669 129.9C67.0842 130.527 66.7549 130.803 66.2069 130.998C65.6522 131.195 65.3309 131.146 65.2242 130.483C65.0202 129.211 64.2522 128.704 62.9629 128.462C60.5402 128.006 58.0855 127.882 55.6576 127.519ZM73.1175 160.095C71.8429 162.119 70.7242 164.244 69.2069 166.111C68.6109 166.844 67.9482 167.194 66.9362 167.048C64.8135 166.744 62.6362 167.135 60.5202 166.615C59.6135 166.391 58.6749 166.27 57.8162 165.711C57.9789 165.104 58.3922 164.946 58.7869 164.912C59.9255 164.815 60.3362 164.012 60.7002 163.114C61.1882 161.911 61.3482 160.628 61.6549 159.382C61.7522 158.983 61.8149 158.576 61.9175 158.182C62.3962 156.352 62.3669 156.455 64.1975 157.05C65.8682 157.592 67.6602 157.576 69.4069 157.702C70.9175 157.81 72.4335 157.818 73.9162 158.138C73.9949 158.978 73.4735 159.53 73.1175 160.095ZM90.8789 152.65C90.4322 150.602 90.3855 150.54 88.2975 150.403C86.9522 150.314 85.6122 150.316 84.2655 150.462C83.1069 150.586 81.9429 150.715 80.7655 150.51C80.0722 150.39 79.3642 150.506 78.6789 150.692C78.0829 150.854 77.5349 151.072 77.5549 151.816C77.5709 152.4 77.1936 152.798 76.9402 153.243C75.9735 154.935 75.9669 154.846 73.9869 154.684C71.5402 154.486 69.0815 154.442 66.6295 154.328C65.7575 154.287 64.8869 154.239 64.0149 154.188C63.2002 154.143 62.8669 153.703 62.9975 152.907C63.1962 151.699 63.2335 150.431 63.6455 149.3C64.1842 147.82 64.0362 146.386 63.6762 144.991C62.8562 141.815 63.5202 138.746 64.0842 135.651C64.2429 134.774 64.8069 134.522 65.6069 134.58C66.6135 134.655 67.5602 134.522 68.4535 133.983C70.4375 132.79 70.7909 130.895 70.7135 128.828C70.6429 126.911 70.5029 124.996 70.3855 122.94C71.6095 122.94 72.7642 122.943 73.9189 122.939C74.5042 122.936 74.7309 123.167 74.6789 123.795C74.5602 125.247 74.3509 126.69 74.6015 128.167C74.7189 128.858 74.8055 129.544 75.0362 130.208C75.5069 130.519 75.9775 130.831 76.4495 131.143C80.7242 131.004 84.9255 130.344 89.1082 129.464C90.9335 129.082 92.7789 128.87 94.5109 128.087C96.3109 127.274 96.9362 126.398 96.7762 124.407C96.6589 122.955 96.4655 121.508 96.2935 119.946C97.8602 119.686 99.4682 119.53 101.019 119.095C101.758 118.887 102.039 119.412 102.043 119.932C102.06 121.762 102.736 123.482 102.864 125.279C102.93 126.206 103.442 127.063 103.242 128.016C105.05 129.063 105.251 130.755 105.302 132.647C105.388 135.794 105.534 138.934 105.071 142.063C104.872 143.406 105.723 144.5 105.931 145.762C106.235 147.602 106.818 149.395 107.256 151.214C107.347 151.592 107.522 151.995 107.204 152.506C106.039 151.938 104.73 152.006 103.548 152.295C102.179 152.63 100.803 152.364 99.4482 152.722C96.9895 153.368 94.4402 153.488 91.9255 153.802C91.1095 153.903 90.9975 153.196 90.8789 152.65ZM108.44 156.636C108.674 158.016 109.006 159.386 109.144 160.775C109.279 162.12 109.666 163.266 110.983 164.063C110.411 164.586 109.779 164.554 109.287 164.639C105.622 165.276 101.904 165.494 98.2055 165.871C97.8135 165.911 97.5135 165.875 97.3775 165.458C96.5189 162.824 94.9549 160.555 93.6215 158.167C93.4509 157.862 93.3429 157.534 93.4229 157.167C93.9962 156.815 94.6615 156.794 95.2855 156.786C97.8642 156.752 100.387 156.247 102.924 155.896C104.442 155.686 105.96 155.894 107.467 155.683C108.178 155.583 108.344 156.068 108.44 156.636ZM123.147 114.235C122.886 114.348 122.643 114.534 122.434 114.731C121.34 115.76 121.475 116.324 123.036 116.84C121.982 118.462 120.564 119.391 119.136 120.267C116.394 121.947 113.46 123.262 110.49 124.47C109.594 124.834 108.534 124.766 107.611 125.17C107.291 125.31 107.078 125.1 106.846 124.907C106.362 124.507 106.183 123.955 106.051 123.387C105.68 121.796 105.359 120.195 104.959 118.614C104.806 118.006 104.976 117.846 105.555 117.664C110.412 116.136 115.034 114.084 119.29 111.258C119.435 111.16 119.567 111.04 119.718 110.955C120.058 110.759 120.452 110.376 120.764 110.898C121.151 111.544 120.46 111.519 120.163 111.62C119.443 111.863 119.102 112.498 118.655 113C118.403 113.284 118.314 113.76 118.584 114.152C118.874 114.571 119.32 114.478 119.704 114.391C120.274 114.264 120.798 114.007 121.291 113.676C121.676 113.42 122.107 113.231 122.52 113.016C122.948 112.794 123.159 113.039 123.319 113.392C123.464 113.715 123.639 114.019 123.147 114.235ZM128.243 98.7909C124.927 103.091 120.77 106.464 116.084 109.216C112.498 111.324 108.807 113.223 104.836 114.436C102.008 115.3 99.1949 116.28 96.2055 116.598C94.8309 116.744 93.4309 117.04 92.1415 117.643C91.8775 117.766 91.5842 117.843 91.3429 117.999C90.7895 118.356 90.2482 118.791 90.3509 119.527C90.4602 120.302 91.1722 120.476 91.7909 120.626C93.2509 120.978 93.2562 120.955 93.5242 122.523C93.9976 125.302 94.0135 125.419 91.2282 125.803C87.8789 126.263 84.5829 127.11 81.1815 127.207C80.4295 127.228 79.6722 127.402 78.9389 127.583C78.2895 127.746 78.0949 127.474 78.0349 126.9C77.9629 126.203 77.8322 125.511 77.7629 124.814C77.7015 124.182 77.4869 123.462 77.7055 122.932C78.0002 122.223 78.8735 122.707 79.4629 122.522C80.1882 122.292 80.9189 122.075 81.6309 121.808C82.0095 121.668 82.4255 121.482 82.4362 120.984C82.4469 120.418 82.0189 120.2 81.5749 120.004C80.6962 119.615 79.7829 119.562 78.8309 119.586C72.9815 119.735 67.1495 119.582 61.3775 118.464C54.2402 117.082 47.6002 114.48 41.6589 110.267C36.6442 106.712 32.7882 102.119 30.4935 96.3976C28.1255 90.4883 28.2029 84.4269 30.0309 78.3669C31.6322 73.0616 34.6122 68.6096 38.2802 64.5029C40.3949 62.1336 42.7415 60.0096 45.1695 58.0523C47.2189 56.4003 49.5429 54.9709 51.9509 53.7763C54.6655 52.4283 57.3002 50.9176 60.1949 49.9443C60.8909 49.7096 61.2469 49.7336 61.5655 50.4269C62.0349 51.4456 62.7269 52.3216 63.5349 53.1003C64.0415 53.5909 64.6509 53.8496 65.2749 53.4336C65.8335 53.0603 65.7949 52.463 65.5935 51.8496C65.4309 51.3523 65.3082 50.8536 65.0709 50.3709C62.9095 45.9976 61.5495 41.4056 60.9149 36.547C60.5095 33.4443 60.2975 30.3389 60.6335 27.2736C61.2722 21.4456 62.6202 15.7576 65.5549 10.5963C66.6095 8.74026 68.3482 7.43095 70.1229 6.31496C71.4949 5.45229 72.9615 4.70561 74.4975 4.10828C78.7762 2.44295 81.7109 3.82828 84.2269 7.24295C85.8882 9.49762 86.6282 12.1069 87.1282 14.8389C87.7842 18.4163 88.0855 22.0243 88.2602 25.6429C88.4189 28.9269 87.7855 32.1309 86.9695 35.2976C86.5602 36.8816 86.3642 38.5069 85.8562 40.0776C84.9602 42.8536 84.0135 45.6069 82.9522 48.3243C82.3615 49.8403 82.5495 50.5163 83.5815 51.0243C84.2615 51.3576 84.9029 51.3816 85.4549 50.7123C86.1735 49.8416 86.6695 48.8749 87.0242 47.8043C87.5322 46.2669 88.1149 44.7536 88.6655 43.2309C88.8015 43.2389 88.9389 43.2456 89.0735 43.2523C89.0509 45.3949 89.7762 47.3683 90.2869 49.3923C90.5669 50.5029 91.1695 51.4283 91.7389 52.3763C92.0162 52.8376 92.4842 53.2096 93.0509 53.0883C93.6762 52.9549 93.7442 52.3696 93.7575 51.8269C93.7789 51.0069 93.7909 50.1896 93.5562 49.3856C92.3029 45.1136 92.2495 40.7456 92.5575 36.3549C92.7855 33.0923 93.0762 29.8483 94.3042 26.7483C94.7202 25.6963 95.2589 24.7349 95.8629 23.8269C97.9149 20.7496 100.31 18.015 103.511 16.0109C106.106 14.3869 108.91 13.7843 111.854 13.9536C116.688 14.2296 120.738 17.6363 121.546 22.7709C122.068 26.1029 121.891 29.3923 121.243 32.6856C120.44 36.7629 119.43 40.7763 117.543 44.5056C116.41 46.7429 115.14 48.9163 113.288 50.6509C112.484 51.4029 112.074 52.3736 111.583 53.283C111.04 54.2896 111.98 55.4576 113.14 55.3723C113.368 55.3549 113.672 55.3363 113.803 55.1936C115.218 53.6403 116.404 54.6936 117.71 55.4243C121.203 57.3789 124.458 59.7416 127.123 62.6416C131.048 66.9109 133.904 71.9043 134.542 77.8509C135.384 85.7029 132.99 92.6349 128.243 98.7909Z" fill="#342D2D"/>
<path d="M79.504 84.0121C80.352 81.3574 80.7494 78.5467 80.7547 75.7281C80.7627 70.6667 79.8774 65.8414 76.872 61.5974C74.2347 57.8761 68.868 55.3481 64.3613 57.2534C60.392 58.9321 57.3494 61.3427 54.9667 64.7521C53.2307 67.2387 52.1094 70.0267 51.3374 72.9654C50.5894 75.8107 49.9587 78.6654 50.5453 81.6108C50.7107 82.4428 50.4253 82.6787 49.728 82.7667C48.1333 82.9667 46.7254 83.6947 45.296 84.3574C44.6 84.6801 44.044 85.2067 44.376 86.0054C44.6547 86.6748 45.2547 86.9894 46.0987 86.8494C47.428 86.6308 48.7413 86.4147 49.9613 85.8014C50.2373 85.6627 50.5427 85.3334 50.896 85.6974C51.7947 86.6267 51.42 88.4974 50.176 88.7721C49.1693 88.9961 48.3 89.4334 47.4654 89.9534C46.308 90.6761 46.2707 91.0748 47.0147 92.3734C47.384 92.2788 47.708 92.3428 47.964 92.6441C49.3227 92.3308 50.6854 92.0347 52.0374 91.6961C52.46 91.5894 52.8267 91.4921 53.1 91.9387C53.5854 92.7281 54.0907 93.5081 54.5507 94.3121C54.7267 94.6174 54.5013 94.8668 54.26 95.0428C53.836 95.3521 53.404 95.6481 52.964 95.9347C52.4654 96.2587 52.0547 96.6721 51.7694 97.1867C51.264 98.0987 51.5907 98.6747 52.6253 98.6507C53.7027 98.6267 54.6467 98.1694 55.5147 97.5694C56.776 96.6987 56.736 96.7427 58.0547 97.5307C60.2974 98.8707 62.656 99.7747 65.352 99.0894C65.736 98.9921 66.16 99.0454 66.564 99.0281C67.3254 98.7334 68.124 98.5094 68.84 98.1307C74.5907 95.0921 77.612 89.9241 79.504 84.0121ZM66.84 94.9814C62.764 96.9308 58.4027 94.9014 56.4334 91.2148C54.5947 87.7761 53.9107 84.4947 53.864 79.5921C54.0934 73.7547 55.92 67.6974 60.5494 62.6774C61.688 61.4428 63.1534 60.7187 64.54 59.8614C64.6374 59.8014 64.7654 59.7254 64.8627 59.7428C66.908 60.1294 69.0894 59.5454 71.0334 60.7054C72.7414 61.7228 74.068 63.0908 74.9307 64.8481C76.304 67.6454 77.0894 70.5721 77.236 73.7468C77.5374 80.2614 75.788 86.0534 71.7667 91.1574C70.4507 92.8267 68.776 94.0574 66.84 94.9814Z" fill="#342D2D"/>
<path d="M117.933 90.0054C116.948 89.8067 116.092 89.2921 115.021 89.0361C115.406 87.3427 115.788 85.6681 116.169 83.9947C116.23 83.4121 116.285 82.8308 116.352 82.2494C117 76.6348 116.13 71.3574 113.038 66.5134C110.222 62.0988 106.073 60.7587 101.145 61.2187C96.4863 61.6547 93.2316 64.4761 90.4689 67.9214C88.3249 70.5934 87.0996 73.7067 86.2396 77.0534C84.7116 83.0054 84.9716 88.7254 87.6982 94.2507C89.2596 97.4121 91.5769 99.8814 94.8329 101.395C95.5222 101.716 96.3289 101.639 96.9609 102.104C97.0769 102.095 97.1969 102.061 97.3102 102.08C101.106 102.695 104.48 101.679 107.625 99.2801C107.88 100.427 108.509 101.239 109.257 101.957C109.937 102.611 111.014 102.739 111.612 102.188C112.236 101.615 112.012 100.915 111.712 100.248C111.418 99.5948 110.956 99.0614 110.482 98.5454C109.629 97.6174 109.612 97.6268 110.417 96.6828C110.72 96.3294 111.042 95.9934 111.426 95.5721C112.453 96.4907 113.514 97.3067 114.884 97.4961C115.442 97.5734 116.088 97.7814 116.469 97.1227C116.836 96.4854 116.368 96.0267 116.062 95.5374C115.324 94.3521 114.052 94.0214 112.862 93.5881C112.905 93.4201 112.918 93.3014 112.962 93.1934C113.861 90.9321 113.877 90.9041 115.988 92.0467C116.95 92.5694 117.861 92.9347 118.968 92.4801C119.865 92.1121 120.082 91.5361 119.453 90.8467C119.045 90.4014 118.478 90.1161 117.933 90.0054ZM113.006 80.4547C112.84 84.5161 111.765 88.3934 109.637 91.9148C108.205 94.2828 106.425 96.3374 103.964 97.6867C98.8729 100.477 94.3422 98.3041 91.6449 94.3054C89.2609 90.7694 88.8276 86.7227 88.6942 83.8721C88.7342 77.3081 90.3329 72.4961 93.4462 68.2387C95.2569 65.7641 97.7303 64.1134 100.748 63.3734C101.426 63.2067 102.077 63.1214 102.714 63.6841C103.473 64.3547 104.544 64.4614 105.468 64.7427C107.985 65.5094 109.464 67.3761 110.588 69.4761C112.409 72.8747 113.164 76.6254 113.006 80.4547Z" fill="#342D2D"/>
<path d="M84.3025 96.1374C83.6185 96.1961 82.9345 96.2401 82.2172 96.2934C82.0065 95.6934 82.2625 95.1694 82.1958 94.6628C82.0332 93.4294 82.1065 92.4774 83.6385 92.0628C84.5292 91.8214 84.5225 90.7628 83.7052 90.3134C82.0092 89.3814 80.2132 89.4388 78.4732 90.1281C77.5918 90.4788 77.4438 91.6174 78.2425 92.1041C78.8892 92.4988 78.9558 92.9188 78.9558 93.5134C78.9558 93.9814 78.9972 94.4481 78.9998 94.9148C79.0078 96.9188 79.0118 96.9588 77.1278 97.2308C75.5012 97.4654 73.9625 97.9801 72.4172 98.4988C71.0958 98.9428 70.2958 99.8281 69.8478 101.145C69.0158 103.588 69.2212 106.068 69.6212 108.515C70.0945 111.42 71.5932 113.851 73.6958 115.885C75.1732 117.315 77.0185 118.151 79.0372 118.192C82.4825 118.261 85.2345 116.731 87.2332 113.932C90.4212 109.469 90.8718 104.533 89.4332 99.4001C88.6678 96.6708 87.2038 95.8868 84.3025 96.1374ZM83.0518 99.2401C82.7932 101.06 82.3278 101.592 80.7705 101.981C79.0025 102.424 77.8692 101.935 76.4932 99.9521C78.8212 99.7414 80.8865 99.2041 83.0518 99.2401ZM85.3625 110.704C84.4052 112.327 83.1758 113.625 81.4972 114.337C80.1425 114.912 78.6452 114.783 77.3132 114.003C76.8718 113.744 76.5012 113.361 76.0812 113.021C78.7052 109.028 82.3238 106.431 86.9145 104.719C86.7292 107.048 86.4078 108.936 85.3625 110.704Z" fill="#342D2D"/>
<path d="M55.7571 104.232C55.0691 104.231 54.5678 104.812 54.5264 105.662C54.4811 106.622 55.2038 107.532 55.9931 107.506C56.6304 107.484 57.0598 106.872 57.0731 105.966C57.0878 104.936 56.5545 104.234 55.7571 104.232Z" fill="#342D2D"/>
<path d="M53.1624 104.588C52.6518 104.566 51.8664 105.314 51.9691 105.883C52.0758 106.479 52.1824 107.244 52.8971 107.43C53.6891 107.634 53.7811 106.91 54.0064 106.376C54.2451 105.812 54.0531 105.348 53.7598 104.9C53.6331 104.707 53.4184 104.586 53.1624 104.588Z" fill="#342D2D"/>
<path d="M103.456 105.033C102.764 105.055 101.986 106.021 102.055 106.773C102.118 107.448 102.946 108.199 103.606 108.181C104.308 108.161 104.927 107.376 104.878 106.571C104.835 105.867 104.048 105.017 103.456 105.033Z" fill="#342D2D"/>
<path d="M100.831 105.711C100.34 105.65 100.108 105.974 100.044 106.45C99.9748 106.967 100.016 107.418 100.651 107.482C101.131 107.531 101.424 107.28 101.472 106.714C101.48 106.287 101.443 105.787 100.831 105.711Z" fill="#342D2D"/>
<path d="M69.8828 61.4935C69.1334 60.9762 68.3001 61.5255 67.5054 61.6242C67.3321 61.6455 67.1548 61.6855 66.9828 61.6709C65.1094 61.4989 63.7788 62.5162 62.5361 63.7082C60.0481 66.0949 58.9548 69.2255 57.9428 72.3962C57.0801 75.0949 56.8961 77.9055 56.8041 80.6949C56.6801 84.4669 57.1521 88.1256 59.6641 91.2416C61.7881 93.8762 64.8481 94.2762 67.4854 92.1496C70.3214 89.8616 71.8094 86.7349 72.8774 83.3762C73.8908 80.1869 74.4921 76.9216 74.3268 74.0496C74.5468 70.3456 73.8521 67.3069 72.5908 64.3869C72.0428 63.1162 70.9801 62.2495 69.8828 61.4935Z" fill="#342D2D"/>
<path d="M104.514 66.6577C104.233 66.4764 104.008 66.1164 103.604 66.295C102.917 66.599 102.256 66.3524 101.588 66.2404C100.706 66.0911 99.8891 66.2151 99.0264 66.5071C97.0877 67.1657 95.6904 68.4884 94.6131 70.0977C92.0744 73.887 90.9931 78.1524 90.8944 82.6831C90.8077 86.6484 91.3491 90.455 93.5571 93.891C95.9277 97.5817 100.857 98.5511 104.28 95.3404C106.088 93.6444 107.384 91.5484 108.264 89.2364C109.417 86.211 110.056 83.0724 109.957 79.8071C110.004 76.4337 109.445 73.1724 107.78 70.1844C106.985 68.759 105.909 67.5497 104.514 66.6577Z" fill="#342D2D"/>
</svg>
