<svg width="211" height="176" viewBox="0 0 211 176" fill="none" xmlns="http://www.w3.org/2000/svg">
<path d="M104.11 168.9C79.0634 167.74 52.0524 160.054 39.4874 147.933C26.9224 135.812 51.1814 132.43 45.6064 122.432C40.0314 112.434 17.2094 95.9309 30.6874 57.1189C44.1654 18.3069 98.9074 -18.9741 155.421 21.2509C220.792 67.7829 195.862 173.15 104.11 168.9Z" fill="#71469E"/>
<path d="M25.2856 130.075C19.6006 120.806 35.9906 115.637 41.8056 122.141C47.6216 128.644 31.7376 140.593 25.2856 130.075Z" fill="#71469E"/>
<path d="M27.9993 116.499C20.6553 113.043 24.6093 104.289 32.3193 109.155C40.0303 114.02 35.3443 119.955 27.9993 116.499Z" fill="#71469E"/>
<path d="M127.439 133.479H83.7521C61.9091 135.489 51.7871 160.132 51.7871 160.132C68.9211 175.362 105.595 175.045 105.595 175.045C105.595 175.045 142.269 175.362 159.403 160.132C159.403 160.132 149.282 135.489 127.439 133.479Z" fill="#D4BBED"/>
<path d="M68.959 169.422C86.148 175.212 105.596 175.046 105.596 175.046C105.596 175.046 125.637 175.217 143.01 169.155C138.759 162.987 129.205 149.83 105.982 149.83C82.425 149.83 73.237 163.371 68.959 169.422Z" fill="#EADCF7"/>
<path opacity="0.4" d="M70.1543 138.118C86.6063 145.379 105.595 145.691 105.595 145.691C105.595 145.691 124.584 145.379 141.036 138.119C137.148 135.72 132.628 133.957 127.438 133.48L105.595 134.749L83.7513 133.48C78.5623 133.957 74.0423 135.72 70.1543 138.118Z" fill="#D4BBED"/>
<path d="M160.127 159.933C157.213 152.937 152.358 146.31 146.662 141.352C142.124 137.401 136.754 134.427 130.823 133.228C126.891 132.433 122.956 132.99 118.98 133.221C111.205 133.673 103.917 133.901 96.1591 133.451C92.1021 133.215 87.8771 132.605 83.8111 132.734C78.1251 132.914 72.3131 135.562 67.7471 138.807C60.5161 143.945 54.4811 151.73 51.0641 159.935C50.6931 160.825 52.1441 161.213 52.5101 160.334C55.2151 153.838 60.1221 147.173 65.5891 142.415C70.5061 138.135 77.1141 134.489 83.7811 134.233C87.1971 134.102 90.7671 134.639 94.1771 134.837C100.624 135.212 106.665 135.438 113.094 135.065C123.344 134.469 132.085 133.216 141.266 139.145C148.83 144.028 155.311 152.245 158.68 160.334C159.046 161.21 160.498 160.825 160.127 159.933Z" fill="#42295C"/>
<path d="M161.731 96.1441C161.731 96.1441 181.615 108.413 198.749 87.6831C215.883 66.9531 212.499 31.4151 197.48 13.4351C182.461 -4.54487 151.577 -6.66087 133.174 41.9921L161.731 96.1441Z" fill="#D4BBED"/>
<path d="M205.678 34.0631C201.907 19.8971 191.552 7.52012 176.127 6.26612C160.546 4.99912 149.193 17.7981 142.865 30.6721C142.713 30.9821 143.12 31.2081 143.32 30.9381C151.592 19.8231 158.665 6.76112 174.603 7.15812C190.022 7.54212 201.236 20.2411 205.632 34.0751C205.642 34.1041 205.686 34.0921 205.678 34.0631Z" fill="#ECD9FB"/>
<path d="M163.281 90.62C163.281 90.62 178.566 101.043 193.039 83.663C207.512 66.283 206.163 36.351 193.477 21.276C180.791 6.20102 157.815 7.33502 142.271 48.125L163.281 90.62Z" fill="#FFB6C3"/>
<path d="M162.901 91.2683C177.417 100.918 193.343 88.0362 199.435 74.8482C207.245 57.9402 206.131 33.5882 192.909 19.5113C184.289 10.3342 171.75 9.39225 161.722 16.9752C153.259 23.3752 147.759 33.2293 143.63 42.7873C142.79 44.7323 141.344 46.8263 141.808 48.8833C142.227 50.7373 143.744 52.7992 144.581 54.4922C150.598 66.6612 156.614 78.8293 162.631 90.9983C163.059 91.8633 164.353 91.1042 163.926 90.2412C159.699 81.6932 155.473 73.1442 151.246 64.5962C148.91 59.8702 146.573 55.1452 144.237 50.4192C143.897 49.7322 142.982 48.5483 142.928 47.7713C142.923 47.6923 144.51 44.5582 144.323 44.9712C145.113 43.2262 145.831 41.4612 146.655 39.7332C147.862 37.2032 149.167 34.7183 150.61 32.3133C157.586 20.6923 170.753 7.83925 185.201 15.4172C200.647 23.5182 204.498 45.4343 202.001 61.0913C200.142 72.7483 194.006 85.7583 182.798 91.0313C176.872 93.8193 169.213 93.6652 163.656 89.9712C162.852 89.4362 162.1 90.7353 162.901 91.2683Z" fill="#42295C"/>
<path opacity="0.4" d="M134.544 40.3472C166.203 51.7492 171.369 86.9922 171.369 86.9922C193.117 88.8702 202.718 76.2432 209.564 61.9232C208.207 71.3962 204.733 80.4422 198.749 87.6812C181.614 108.411 161.73 96.1422 161.73 96.1422L133.173 41.9892C133.623 40.8052 134.081 41.4742 134.544 40.3472Z" fill="#D4BBED"/>
<path d="M49.4606 96.1441C49.4606 96.1441 29.5766 108.413 12.4426 87.6831C-4.69139 66.9531 -1.30737 31.4151 13.7116 13.4351C28.7306 -4.54487 59.6146 -6.66087 78.0176 41.9921L49.4606 96.1441Z" fill="#D4BBED"/>
<path d="M5.55962 34.075C9.98562 20.148 21.1506 7.67502 36.5886 7.15802C52.4836 6.62502 59.6576 19.9 67.8716 30.938C68.0716 31.207 68.4796 30.982 68.3266 30.672C61.9996 17.797 50.6486 4.99702 35.0656 6.26502C19.6426 7.52002 9.28564 19.897 5.51464 34.062C5.50664 34.092 5.55062 34.104 5.55962 34.075Z" fill="#ECD9FB"/>
<path d="M47.9112 90.62C47.9112 90.62 32.6262 101.043 18.1532 83.663C3.68117 66.283 5.02918 36.351 17.7152 21.276C30.4012 6.20102 53.3772 7.33502 68.9212 48.125L47.9112 90.62Z" fill="#FFB6C3"/>
<path d="M47.533 89.9721C31.234 100.807 15.055 82.4281 10.718 67.8431C5.91104 51.6751 8.19806 29.0241 22.2811 17.8421C34.6001 8.06014 48.5491 15.6401 56.8361 26.7001C59.5441 30.3151 61.823 34.2451 63.831 38.2851C65.231 41.1001 68.422 45.6521 67.861 48.5821C67.13 52.3991 63.7471 56.9031 62.034 60.3681C57.1111 70.3261 52.1871 80.2831 47.2641 90.2411C46.8381 91.1041 48.131 91.8641 48.559 90.9981C53.875 80.2461 59.191 69.4941 64.507 58.7421C65.754 56.2201 67.001 53.6981 68.248 51.1761C68.622 50.4191 69.578 49.2001 69.645 48.3241C69.766 46.7381 68.1861 44.2341 67.5601 42.7861C66.2831 39.8291 64.8921 36.9191 63.3361 34.0981C60.7881 29.4801 57.81 25.0331 54.167 21.2011C45.45 12.0301 32.6211 8.14315 21.8401 16.3001C6.83805 27.6501 4.25206 51.3581 9.27206 68.2411C13.8621 83.6761 31.0521 102.726 48.2901 91.2662C49.0911 90.7362 48.34 89.4361 47.533 89.9721Z" fill="#42295C"/>
<path opacity="0.4" d="M76.6479 40.3472C44.9889 51.7492 39.8229 86.9922 39.8229 86.9922C18.0749 88.8702 8.47393 76.2432 1.62793 61.9232C2.98493 71.3962 6.45892 80.4422 12.4429 87.6812C29.5769 108.411 49.4619 96.1422 49.4619 96.1422L78.0189 41.9892C77.5699 40.8052 77.1109 41.4742 76.6479 40.3472Z" fill="#D4BBED"/>
<path d="M139.508 41.6012C121.053 28.6102 90.138 28.6102 71.684 41.6012C44.173 60.9682 41.48 98.5862 49.673 114.97C61.954 139.532 105.597 140.244 105.597 140.244C105.597 140.244 149.239 139.532 161.52 114.97C169.711 98.5862 167.019 60.9672 139.508 41.6012Z" fill="#D4BBED"/>
<path opacity="0.4" d="M105.596 135.118C91.1506 135.118 62.3976 132.593 47.4736 109.132C48.0776 111.278 48.8106 113.247 49.6716 114.969C61.9526 139.531 105.596 140.243 105.596 140.243C105.596 140.243 149.238 139.531 161.519 114.969C162.38 113.247 163.113 111.278 163.717 109.132C148.793 132.594 120.04 135.118 105.596 135.118Z" fill="#D4BBED"/>
<path d="M122.174 102.489C116.463 91.4891 108.388 90.4321 105.595 90.4321C102.802 90.4321 94.7285 91.4881 89.0175 102.489C83.3055 113.489 83.7285 122.859 89.0175 127.301C94.3055 131.743 116.885 131.743 122.174 127.301C127.462 122.859 127.885 113.489 122.174 102.489Z" fill="#EADCF7"/>
<path d="M134.907 37.9121C117.009 28.7961 94.4442 28.7731 76.5062 37.7951C75.6432 38.2291 76.4022 39.5231 77.2632 39.0901C94.6962 30.3211 116.756 30.3471 134.149 39.2071C135.008 39.6451 135.768 38.3511 134.907 37.9121Z" fill="#42295C"/>
<path d="M44.9445 97.881C45.9545 112.785 52.2975 124.131 65.5495 131.259C75.3615 136.536 86.5355 139.128 97.5395 140.384C112.203 142.058 127.839 139.297 141.286 133.379C147.503 130.643 153.469 126.905 157.917 121.699C163.657 114.982 165.662 106.529 166.248 97.881C166.313 96.917 164.813 96.921 164.748 97.881C164.164 106.498 162.096 114.91 156.157 121.431C152.235 125.737 147.247 128.959 141.998 131.414C132.62 135.801 122.208 138.05 111.943 139.067C99.3805 140.312 86.2315 137.948 74.4615 133.608C67.9265 131.199 61.5365 127.84 56.5085 122.949C49.5865 116.216 47.0835 107.314 46.4435 97.8801C46.3795 96.9231 44.8785 96.915 44.9445 97.881Z" fill="#42295C"/>
<path d="M164.906 98.46C178.633 103.605 192.07 97.911 200.639 86.476C210.473 73.353 212.687 55.645 209.845 39.829C205.973 18.279 187.962 -6.92396 163.106 3.13204C147.214 9.56204 138.267 26.714 132.45 41.792C132.102 42.693 133.552 43.083 133.897 42.191C141.728 21.894 160.95 -7.69596 186.691 5.62004C210.59 17.982 214.622 55.592 204.169 77.693C197.051 92.742 181.905 103.236 165.304 97.015C164.399 96.674 164.009 98.124 164.906 98.46Z" fill="#42295C"/>
<path d="M45.4964 97.1621C31.0104 102.358 17.4004 95.0161 9.58143 82.4011C1.42743 69.2451 0.0444365 52.4701 3.32144 37.5781C7.74244 17.4891 25.0054 -5.01691 48.0084 4.72309C63.1444 11.1321 71.7044 27.7031 77.2944 42.1911C77.6384 43.0821 79.0894 42.6951 78.7404 41.7921C70.5354 20.5231 50.4854 -9.53491 23.7424 4.32409C12.7134 10.0401 6.13044 21.6971 2.85144 33.2841C-1.52656 48.7571 -0.83156 66.5351 6.94044 80.8411C14.7224 95.1661 29.7594 104.396 45.8944 98.6081C46.7964 98.2851 46.4084 96.8351 45.4964 97.1621Z" fill="#42295C"/>
<path d="M114.771 99.7491C112.656 95.3161 105.597 95.5091 105.597 95.5091C105.597 95.5091 98.5375 95.3151 96.4225 99.7491C94.3075 104.182 100.388 109.471 105.597 109.471C110.806 109.47 116.887 104.182 114.771 99.7491Z" fill="#42295C"/>
<g opacity="0.8">
<path d="M98.1968 101.015C101.497 97.0762 107.28 97.9582 111.398 99.7482C111.785 99.9172 112.231 99.4632 111.881 99.1222C108.477 95.8062 99.9938 96.1222 97.9878 100.893C97.9388 101.008 98.1188 101.107 98.1968 101.015Z" fill="#D4BBED"/>
</g>
<path d="M99.1719 116.662C99.1719 116.662 99.3829 122.937 100.018 124.365C100.653 125.793 105.597 125.211 105.597 125.211C105.597 125.211 110.541 125.793 111.175 124.365C111.81 122.937 112.021 116.662 112.021 116.662C109.906 118.566 101.287 118.566 99.1719 116.662Z" fill="white"/>
<path d="M94.4017 113.912C99.8897 120.708 111.025 120.709 116.513 113.912C117.114 113.168 116.059 112.1 115.452 112.851C110.454 119.041 100.46 119.04 95.4627 112.851C94.8557 112.1 93.8007 113.167 94.4017 113.912Z" fill="#42295C"/>
<path d="M104.847 109.47C104.847 112.123 104.847 114.777 104.847 117.43C104.847 118.395 106.347 118.397 106.347 117.43C106.347 114.776 106.347 112.123 106.347 109.47C106.347 108.505 104.847 108.503 104.847 109.47Z" fill="#42295C"/>
<path d="M146.208 105.451C153.877 103.617 157.483 111.327 146.208 113.912C136.982 116.028 135.591 107.99 146.208 105.451ZM64.9846 105.451C57.3156 103.617 53.7096 111.327 64.9846 113.912C74.2106 116.028 75.6016 107.99 64.9846 105.451Z" fill="#B694DD"/>
<path d="M76.4036 79.9958C64.7076 79.6998 62.4865 93.7648 66.4845 100.131C68.4835 103.314 70.9826 105.526 76.4036 105.526C81.6506 105.526 84.3246 103.314 86.3226 100.131C90.3206 93.7648 88.0996 79.6998 76.4036 79.9958Z" fill="white"/>
<path d="M88.342 88.5669C85.931 80.4869 76.402 76.0049 69.068 81.4099C63.402 85.5859 62.457 94.6579 65.837 100.51C66.32 101.346 67.616 100.591 67.132 99.7529C64.414 95.0479 64.794 87.9839 68.549 83.8999C74.508 77.4179 84.588 81.2319 86.896 88.9649C87.171 89.8879 88.619 89.4949 88.342 88.5669Z" fill="#42295C"/>
<path d="M79.4488 102.324C83.5352 102.324 86.8478 98.2292 86.8478 93.178C86.8478 88.1268 83.5352 84.032 79.4488 84.032C75.3625 84.032 72.0498 88.1268 72.0498 93.178C72.0498 98.2292 75.3625 102.324 79.4488 102.324Z" fill="#42295C"/>
<path d="M134.511 79.9958C146.207 79.6998 148.428 93.7648 144.43 100.131C142.431 103.314 139.932 105.526 134.511 105.526C129.264 105.526 126.59 103.314 124.592 100.131C120.594 93.7648 122.815 79.6998 134.511 79.9958Z" fill="white"/>
<path d="M124.019 88.9649C126.331 81.2149 136.412 77.4259 142.366 83.8999C146.119 87.9809 146.499 95.0499 143.783 99.7529C143.299 100.59 144.595 101.347 145.078 100.51C148.458 94.6579 147.512 85.5849 141.847 81.4099C134.518 76.0079 124.983 80.4889 122.573 88.5669C122.296 89.4939 123.743 89.8899 124.019 88.9649Z" fill="#42295C"/>
<path d="M131.466 102.324C135.553 102.324 138.865 98.2292 138.865 93.178C138.865 88.1268 135.553 84.032 131.466 84.032C127.38 84.032 124.067 88.1268 124.067 93.178C124.067 98.2292 127.38 102.324 131.466 102.324Z" fill="#42295C"/>
<path d="M139.792 74.851C137.812 74.003 135.104 73.405 131.968 74.532C129.724 75.338 128.481 73.541 130.125 72.254C132.018 70.772 136.767 69.912 140.087 71.542C143.407 73.172 143.179 74.285 142.914 74.918C142.648 75.552 141.653 75.648 139.792 74.851Z" fill="#42295C"/>
<path d="M71.4012 74.851C73.3812 74.003 76.0892 73.405 79.2252 74.532C81.4692 75.338 82.7121 73.541 81.0681 72.254C79.1751 70.772 74.4261 69.912 71.1061 71.542C67.7861 73.172 68.0141 74.285 68.2791 74.918C68.5441 75.552 69.5402 75.648 71.4012 74.851Z" fill="#42295C"/>
<path d="M131.966 122.023C127.828 117.092 122.842 113.155 117.058 110.332C116.276 109.95 116.438 111.076 116.994 111.338C122.629 113.996 127.609 117.661 131.769 122.294C131.987 122.538 132.133 122.222 131.966 122.023Z" fill="#42295C"/>
<path d="M129.314 107.473C125.103 105.775 120.277 105.423 115.88 106.658C114.987 106.909 115.98 108.136 116.64 108.019C120.958 107.253 124.956 107.198 129.329 107.813C129.53 107.84 129.434 107.521 129.314 107.473Z" fill="#42295C"/>
<path d="M137.565 116.856C131.642 112.506 124.589 109.14 117.162 108.631C116.562 108.59 117.059 109.54 117.425 109.616C124.654 111.11 131.249 113.03 137.517 117.074C137.649 117.159 137.647 116.917 137.565 116.856Z" fill="#42295C"/>
<path d="M79.4844 122.34C83.7424 117.683 88.8244 114.045 94.5354 111.375C95.1164 111.103 94.2994 110.047 93.7994 110.293C88.0864 113.108 83.2134 117.064 79.1674 121.976C79.0384 122.133 79.3224 122.517 79.4844 122.34Z" fill="#42295C"/>
<path d="M73.7299 116.764C80.1499 112.738 86.8078 110.918 94.1368 109.301C94.6568 109.186 94.0298 108.292 93.6508 108.315C86.2918 108.755 79.4009 112.138 73.5999 116.515C73.5029 116.587 73.6249 116.83 73.7299 116.764Z" fill="#42295C"/>
<path d="M81.9521 107.814C86.4521 107.241 90.6801 107.175 95.1411 108.018C96.0761 108.195 95.4931 106.857 94.9121 106.701C90.5801 105.539 85.9161 105.635 81.7971 107.466C81.6461 107.533 81.8181 107.831 81.9521 107.814Z" fill="#42295C"/>
<path d="M91.8609 36.9361C90.0909 41.5441 91.836 47.0921 95.785 50.0091C96.187 50.3061 96.6519 49.6671 96.3099 49.3281C92.8709 45.9101 91.536 41.8381 92.233 37.0391C92.269 36.7941 91.9509 36.7001 91.8609 36.9361Z" fill="#42295C"/>
<path d="M96.8488 42.7471C97.4458 49.2161 104.477 53.6541 110.487 50.7271C110.92 50.5161 110.612 49.8511 110.166 49.9671C104.168 51.5191 98.8848 48.8801 97.3208 42.6831C97.2558 42.4271 96.8228 42.4721 96.8488 42.7471Z" fill="#42295C"/>
<path d="M103.863 44.883C108.264 49.217 113.341 48.939 118.266 45.441C118.706 45.129 118.334 44.5 117.846 44.723C115.627 45.735 113.464 47.15 110.952 47.24C108.407 47.33 106.233 45.957 104.36 44.387C104.018 44.1 103.535 44.56 103.863 44.883Z" fill="#42295C"/>
<path d="M110.707 42.8361C114.643 43.9761 118.621 42.4331 121.714 39.9591C122.089 39.6591 121.612 39.1281 121.224 39.3241C117.899 41.0081 114.793 42.9591 110.897 42.1471C110.45 42.0531 110.262 42.7071 110.707 42.8361Z" fill="#42295C"/>
</svg>
